SplineFontDB: 3.0
FontName: BoonTook-Mon-Ultra-Oblique
FullName: BoonTook Mon Ultra Oblique
FamilyName: BoonTook Mon Ultra
Weight: Ultra
Copyright: Copyright (c) 2014, Sungsit Sawaiwan (sungsit.com | https://twitter.com/gzix), with Reserved Font Names "BoonTook".
Version: 1.0-beta1
ItalicAngle: -9
UnderlinePosition: -60
UnderlineWidth: 60
Ascent: 960
Descent: 240
woffMajor: 1
woffMinor: 0
LayerCount: 2
Layer: 0 0 "Back"  1
Layer: 1 0 "Fore"  0
FSType: 8
OS2Version: 0
OS2_WeightWidthSlopeOnly: 0
OS2_UseTypoMetrics: 0
CreationTime: 1394017292
ModificationTime: 1414543609
PfmFamily: 33
TTFWeight: 950
TTFWidth: 5
LineGap: 0
VLineGap: 0
Panose: 2 1 1 5 5 0 0 0 0 0
OS2TypoAscent: 1240
OS2TypoAOffset: 0
OS2TypoDescent: -480
OS2TypoDOffset: 0
OS2TypoLinegap: 0
OS2WinAscent: 1240
OS2WinAOffset: 0
OS2WinDescent: 480
OS2WinDOffset: 0
HheadAscent: 1240
HheadAOffset: 0
HheadDescent: -480
HheadDOffset: 0
OS2FamilyClass: 2048
OS2Vendor: 'BUni'
Lookup: 1 0 0 "'aalt' Latin Access All Alternates"  {"'aalt' Latin Access All Alternates" ("alt" ) } ['aalt' ('DFLT' <'dflt' > 'latn' <'dflt' > ) ]
Lookup: 1 0 0 "'ss18' Latin g alt"  {"'ss18' Latin g alt"  } ['ss18' ('DFLT' <'dflt' > 'latn' <'dflt' > 'thai' <'PAL ' 'SAN ' 'THA ' 'dflt' > ) ]
Lookup: 1 0 0 "'ss19' Latin a alt"  {"'ss19' Latin a alt"  } ['ss19' ('DFLT' <'dflt' > 'latn' <'dflt' > 'thai' <'PAL ' 'SAN ' 'THA ' 'dflt' > ) ]
Lookup: 1 0 0 "'ss20' Latin a & g alt"  {"'ss20' Latin a & g alt" ("alt" ) } ['ss20' ('DFLT' <'dflt' > 'latn' <'dflt' > 'thai' <'PAL ' 'SAN ' 'THA ' 'dflt' > ) ]
Lookup: 1 0 0 "'locl' Localized Thai-Sanskrit"  {"'locl' Localized Thai-Sanskrit" ("descless" ) } ['ccmp' ('latn' <' SAN' 'PAL ' > 'thai' <'PAL ' 'SAN ' > ) 'locl' ('latn' <' SAN' 'PAL ' > 'thai' <'PAL ' 'SAN ' > ) 'salt' ('DFLT' <'dflt' > 'latn' <'dflt' > 'thai' <'PAL ' 'SAN ' 'THA ' 'dflt' > ) 'ss01' ('DFLT' <'dflt' > 'latn' <'dflt' > 'thai' <'PAL ' 'SAN ' 'THA ' 'dflt' > ) ]

StartChar: uni0E2D
Encoding: 3629 3629 0
Width: 730
VWidth: 0
Flags: W
HStem: -20 180<261.043 374.274> 230 110<250 299.982> 440 180<185.97 493>
VStem: 421 272<226.164 403.163>
LayerCount: 2
Fore
SplineSet
7 206 m 0
 7 223 8 241 11 260 c 0
 18 305 46 340 84 340 c 2
 284 340 l 2
 298 340 309 329 309 315 c 0
 309 313 309 312 309 310 c 2
 301 260 l 2
 298 244 282 230 266 230 c 2
 251 230 l 1
 250 225 250 220 250 216 c 0
 250 178 279 160 315 160 c 0
 373 160 404 210 418 300 c 0
 420 312 421 323 421 333 c 0
 421 409 369 440 290 440 c 0
 230 440 190 427 167 420 c 0
 153 416 128 405 115 405 c 0
 100 405 98 423 95 435 c 2
 76 510 l 1
 76 510 73 522 75 535 c 0
 77 550 83 558 99 565 c 0
 112 570 222 620 398 620 c 0
 588 620 693 523 693 364 c 0
 693 344 692 322 688 300 c 0
 660 123 501 -20 287 -20 c 0
 123 -20 7 53 7 206 c 0
EndSplineSet
Colour: ffff00
EndChar

StartChar: uni0E01
Encoding: 3585 3585 1
Width: 770
VWidth: 0
Flags: W
HStem: 0 21G<60 271 430 641> 440 180<332.089 454.75>
LayerCount: 2
Fore
SplineSet
36 34 m 0
 36 36 36 38 36 40 c 2
 89 370 l 2
 92 387 90 395 85 398 c 1
 79 397 71 395 68 395 c 0
 57 395 53 403 51 415 c 2
 41 480 l 1
 41 480 39 497 40 505 c 0
 42 517 51 527 65 535 c 1
 65 535 230 620 418 620 c 0
 613 620 732 550 732 412 c 0
 732 399 731 385 729 370 c 2
 676 40 l 2
 673 18 652 0 630 0 c 2
 440 0 l 2
 420 0 406 15 406 34 c 0
 406 36 406 38 406 40 c 2
 459 370 l 2
 460 377 461 383 461 389 c 0
 461 424 440 440 390 440 c 0
 375 440 354 439 331 437 c 1
 346 422 358 401 358 374 c 0
 358 369 358 365 357 360 c 2
 306 40 l 2
 303 18 282 0 260 0 c 2
 70 0 l 2
 50 0 36 15 36 34 c 0
EndSplineSet
Colour: ffff00
EndChar

StartChar: uni0E17
Encoding: 3607 3607 2
Width: 775
VWidth: 0
Flags: W
HStem: 0 21G<20 241 420 641> 400 210<385.5 604> 580 20G<114 315>
VStem: 444 290<241.562 487>
LayerCount: 2
Fore
SplineSet
-4 34 m 0xd0
 -4 36 -4 38 -4 40 c 2
 79 560 l 2
 82 582 103 600 125 600 c 2
 305 600 l 2xb0
 325 600 339 585 339 566 c 0
 339 564 339 562 339 560 c 2
 329 498 l 1
 364 544 434 610 547 610 c 0
 661 610 734 545 734 429 c 0
 734 413 733 397 730 380 c 2
 676 40 l 2
 673 18 652 0 630 0 c 2
 430 0 l 2
 410 0 396 15 396 34 c 0
 396 36 396 38 396 40 c 2
 441 320 l 2
 443 333 444 344 444 353 c 0
 444 388 430 400 403 400 c 0
 368 400 342 374 323 333 c 1
 276 40 l 2
 273 18 252 0 230 0 c 2
 30 0 l 2
 10 0 -4 15 -4 34 c 0xd0
EndSplineSet
Colour: ffff00
EndChar

StartChar: uni0E19
Encoding: 3609 3609 3
Width: 775
VWidth: 0
Flags: W
HStem: -10 210<146 364.5> 0 21G<435 636> 580 20G<109 330 509 730>
VStem: 16 290<113 358.438>
LayerCount: 2
Fore
SplineSet
16 171 m 0xb0
 16 187 17 203 20 220 c 2
 74 560 l 2
 77 582 98 600 120 600 c 2
 320 600 l 2
 340 600 354 585 354 566 c 0
 354 564 354 562 354 560 c 2
 309 280 l 2
 307 267 306 256 306 247 c 0
 306 212 320 200 347 200 c 0xb0
 382 200 408 226 427 267 c 1
 474 560 l 2
 477 582 498 600 520 600 c 2
 720 600 l 2
 740 600 754 585 754 566 c 0
 754 564 754 562 754 560 c 2
 671 40 l 2
 668 18 647 0 625 0 c 2
 445 0 l 2x70
 425 0 411 15 411 34 c 0
 411 36 411 38 411 40 c 2
 421 102 l 1
 386 56 316 -10 203 -10 c 0
 89 -10 16 55 16 171 c 0xb0
EndSplineSet
Colour: ffff00
EndChar

StartChar: uni0E21
Encoding: 3617 3617 4
Width: 775
VWidth: 0
Flags: W
HStem: -10 210<342.378 512.5> 0 21G<20 221> 580 20G<114 335 514 735>
LayerCount: 2
Fore
SplineSet
-4 34 m 0x60
 -4 36 -4 38 -4 40 c 2
 79 560 l 2
 82 582 103 600 125 600 c 2
 325 600 l 2
 345 600 359 585 359 566 c 0
 359 564 359 562 359 560 c 2
 312 267 l 1
 319 226 337 200 372 200 c 0
 406 200 424 219 434 280 c 2
 479 560 l 2
 482 582 503 600 525 600 c 2
 725 600 l 2
 745 600 759 585 759 566 c 0
 759 564 759 562 759 560 c 2
 705 220 l 2
 682 74 577 -10 448 -10 c 0xa0
 335 -10 287 56 266 102 c 1
 256 40 l 2
 253 18 232 0 210 0 c 2
 30 0 l 2
 10 0 -4 15 -4 34 c 0x60
EndSplineSet
Colour: ffff00
EndChar

StartChar: uni0E1A
Encoding: 3610 3610 5
Width: 790
VWidth: 0
Flags: W
HStem: -20 190<310.515 421.317> 580 20G<109 330 529 750>
LayerCount: 2
Fore
SplineSet
18 188 m 0
 18 201 19 215 21 230 c 2
 74 560 l 2
 77 582 98 600 120 600 c 2
 320 600 l 2
 340 600 354 585 354 566 c 0
 354 564 354 562 354 560 c 2
 303 240 l 2
 302 234 302 227 302 222 c 0
 302 186 324 170 362 170 c 0
 406 170 435 192 443 240 c 2
 494 560 l 2
 497 582 518 600 540 600 c 2
 740 600 l 2
 760 600 774 585 774 566 c 0
 774 564 774 562 774 560 c 2
 721 230 l 2
 695 64 546 -20 332 -20 c 0
 137 -20 18 50 18 188 c 0
EndSplineSet
Colour: ffff00
EndChar

StartChar: uni0E1B
Encoding: 3611 3611 6
Width: 820
VWidth: 0
Flags: W
HStem: -20 190<311.978 441.017> 580 20G<109 330> 820 20G<587 808>
AnchorPoint: "th-vow-above" 525 660 basechar 0
LayerCount: 2
Fore
SplineSet
18 189 m 0
 18 202 19 216 21 230 c 2
 74 560 l 2
 77 582 98 600 120 600 c 2
 320 600 l 2
 340 600 354 585 354 566 c 0
 354 564 354 562 354 560 c 2
 303 240 l 2
 302 235 302 230 302 225 c 0
 302 188 329 170 372 170 c 0
 421 170 455 192 463 240 c 2
 552 800 l 2
 555 822 576 840 598 840 c 2
 798 840 l 2
 818 840 832 825 832 806 c 0
 832 804 832 802 832 800 c 2
 741 230 l 2
 715 64 561 -20 342 -20 c 0
 142 -20 18 50 18 189 c 0
EndSplineSet
Colour: ffff00
EndChar

StartChar: uni0E04
Encoding: 3588 3588 7
Width: 780
VWidth: 0
Flags: W
HStem: 0 21G<10 221 440 651> 165 175<319.207 387.947> 430 190<330.843 457.369>
LayerCount: 2
Fore
SplineSet
-14 34 m 0
 -14 36 -14 38 -14 40 c 2
 39 370 l 2
 65 536 214 620 428 620 c 0
 623 620 742 550 742 412 c 0
 742 399 741 385 739 370 c 2
 686 40 l 2
 683 18 662 0 640 0 c 2
 450 0 l 2
 430 0 416 15 416 34 c 0
 416 36 416 38 416 40 c 2
 467 360 l 2
 468 365 468 370 468 374 c 0
 468 412 438 430 398 430 c 0
 354 430 315 408 307 360 c 2
 296 290 l 1
 318 317 345 340 374 340 c 0
 385 340 392 338 398 335 c 0
 407 330 410 319 409 310 c 2
 388 175 l 2
 387 167 378 162 371 163 c 0
 365 164 359 165 346 165 c 0
 315 165 286 146 270 125 c 1
 256 40 l 2
 253 18 232 0 210 0 c 2
 20 0 l 2
 0 0 -14 15 -14 34 c 0
EndSplineSet
Colour: ffff00
EndChar

StartChar: uni0E05
Encoding: 3589 3589 8
Width: 780
VWidth: 0
Flags: W
HStem: 0 21G<10 221 440 651> 165 175<319.207 387.947> 385 235<278 391>
VStem: 470 275<247.031 491.5>
LayerCount: 2
Fore
SplineSet
-14 34 m 0
 -14 36 -14 38 -14 40 c 2
 42 390 l 2
 65 536 193 620 278 620 c 0
 335 620 414 530 414 530 c 1
 414 530 521 620 578 620 c 0
 655 620 745 552 745 431 c 0
 745 418 744 404 742 390 c 2
 686 40 l 2
 683 18 662 0 640 0 c 2
 450 0 l 2
 430 0 416 15 416 34 c 0
 416 36 416 38 416 40 c 2
 469 370 l 2
 470 375 470 380 470 384 c 0
 470 410 457 420 457 420 c 1
 418 395 l 1
 418 395 401 385 391 385 c 0
 381 385 368 395 368 395 c 1
 337 420 l 1
 337 420 315 406 309 370 c 2
 296 290 l 1
 318 317 345 340 374 340 c 0
 385 340 392 338 398 335 c 0
 407 330 410 319 409 310 c 2
 388 175 l 2
 387 167 378 162 371 163 c 0
 365 164 359 165 346 165 c 0
 315 165 286 146 270 125 c 1
 256 40 l 2
 253 18 232 0 210 0 c 2
 20 0 l 2
 0 0 -14 15 -14 34 c 0
EndSplineSet
Colour: ffff00
EndChar

StartChar: uni0E02
Encoding: 3586 3586 9
Width: 755
VWidth: 0
Flags: W
HStem: -20 180<298.901 399.844> 580 20G<107 332 504 715>
LayerCount: 2
Fore
SplineSet
22 179 m 0
 22 192 23 206 25 220 c 0
 44 338 137 420 137 420 c 1
 87 420 l 2
 73 420 61 431 61 445 c 0
 61 447 61 448 61 450 c 2
 80 570 l 2
 83 586 99 599 115 600 c 1
 295 600 l 2
 369 600 399 567 399 512 c 0
 399 502 398 491 396 480 c 0
 383 397 310 317 295 220 c 0
 294 215 294 210 294 206 c 0
 294 174 315 160 345 160 c 0
 379 160 408 177 415 220 c 2
 469 560 l 2
 472 582 493 600 515 600 c 2
 705 600 l 2
 725 600 739 585 739 566 c 0
 739 564 739 562 739 560 c 2
 685 220 l 2
 659 54 518 -20 317 -20 c 0
 134 -20 22 47 22 179 c 0
EndSplineSet
Colour: ffff00
EndChar

StartChar: uni0E03
Encoding: 3587 3587 10
Width: 765
VWidth: 0
Flags: W
HStem: -20 180<308.292 409.844> 450 160<170 346> 580 20G<514 725>
LayerCount: 2
Fore
SplineSet
31 176 m 0xa0
 31 190 33 205 35 220 c 0
 53 333 188 369 197 425 c 0
 199 438 196 450 181 450 c 0xc0
 159 450 139 430 126 415 c 0
 121 409 115 400 103 400 c 0
 97 400 85 410 85 410 c 1
 44 435 l 2
 37 440 31 448 33 460 c 2
 53 590 l 2
 54 598 61 607 69 607 c 0
 74 607 77 606 85 600 c 2xa0
 157 550 l 1
 180 570 233 610 307 610 c 0xc0
 385 610 428 565 428 503 c 0
 428 496 427 488 426 480 c 0
 413 397 320 317 305 220 c 0
 304 215 303 209 303 205 c 0
 303 173 325 160 355 160 c 0
 389 160 418 177 425 220 c 2
 479 560 l 2
 482 582 503 600 525 600 c 2
 715 600 l 2
 735 600 749 585 749 566 c 0
 749 564 749 562 749 560 c 2
 695 220 l 2
 669 54 528 -20 327 -20 c 0
 145 -20 31 41 31 176 c 0xa0
EndSplineSet
Colour: ffff00
EndChar

StartChar: uni0E06
Encoding: 3590 3590 11
Width: 775
VWidth: -360
Flags: W
HStem: -10 210<342.408 512.5> 0 21G<30 221> 450 160<170 346> 580 20G<524 735>
LayerCount: 2
Fore
SplineSet
6 34 m 0x40
 6 36 6 38 6 40 c 2
 35 220 l 2
 53 333 188 369 197 425 c 0
 199 438 196 450 181 450 c 0x60
 159 450 139 430 126 415 c 0
 121 409 115 400 103 400 c 0
 97 400 85 410 85 410 c 1
 44 435 l 2
 37 440 31 448 33 460 c 2
 53 590 l 2
 54 598 61 607 69 607 c 0
 74 607 77 606 85 600 c 2x10
 157 550 l 1
 180 570 233 610 307 610 c 0x20
 385 610 428 565 428 503 c 0
 428 496 427 488 426 480 c 0
 415 408 343 338 315 257 c 1
 322 222 340 200 372 200 c 0
 406 200 434 219 444 280 c 2
 489 560 l 2
 492 582 513 600 535 600 c 2
 725 600 l 2
 745 600 759 585 759 566 c 0
 759 564 759 562 759 560 c 2
 705 220 l 2
 682 74 577 -10 448 -10 c 0x90
 335 -10 287 56 266 102 c 1
 256 40 l 2
 253 18 232 0 210 0 c 2
 40 0 l 2
 20 0 6 15 6 34 c 0x40
EndSplineSet
Colour: ffff00
EndChar

StartChar: uni0E07
Encoding: 3591 3591 12
Width: 770
VWidth: 0
Flags: W
HStem: -10 170<350 411.573> 580 20G<77 279.5 470 574.5>
VStem: 46 263<478.049 597.671> 471 262<229.295 403.872>
AnchorPoint: "th-vow-below" 540 0 basechar 0
LayerCount: 2
Fore
SplineSet
46 572 m 0
 46 590 64 600 90 600 c 2
 265 600 l 2
 294 600 306 587 309 560 c 2
 350 160 l 1
 405 160 454 212 468 300 c 0
 470 313 471 324 471 335 c 0
 471 392 443 420 407 420 c 0
 391 420 376 425 374 440 c 2
 364 545 l 1
 364 545 363 556 364 562 c 0
 366 576 373 585 383 590 c 0
 397 598 443 610 497 610 c 0
 652 610 733 504 733 363 c 0
 733 343 731 322 728 300 c 0
 701 129 552 -10 318 -10 c 0
 237 -10 220 -7 172 -3 c 0
 147 -1 134 27 133 40 c 1
 48 555 l 2
 47 559 46 567 46 572 c 0
EndSplineSet
Colour: ffff00
EndChar

StartChar: uni0E16
Encoding: 3606 3606 13
Width: 770
VWidth: 0
Flags: W
HStem: 0 21G<105 328 430 641> 440 180<330.135 454.75>
LayerCount: 2
Fore
SplineSet
40 499 m 0
 40 501 40 503 40 505 c 0
 42 517 51 527 65 535 c 1
 65 535 230 620 418 620 c 0
 613 620 732 550 732 412 c 0
 732 399 731 385 729 370 c 2
 676 40 l 2
 673 18 652 0 630 0 c 2
 440 0 l 2
 420 0 406 15 406 34 c 0
 406 36 406 38 406 40 c 2
 459 370 l 2
 460 377 461 383 461 389 c 0
 461 424 440 440 390 440 c 0
 374 440 352 439 327 436 c 1
 339 423 348 403 348 377 c 0
 348 371 348 366 347 360 c 2
 314 150 l 1
 344 150 l 2
 358 150 369 139 369 125 c 0
 369 123 369 122 369 120 c 2
 355 30 l 2
 352 14 336 0 320 0 c 2
 140 0 l 2
 70 0 43 32 43 73 c 0
 43 79 43 84 44 90 c 2
 89 370 l 2
 92 390 89 397 82 397 c 1
 76 396 70 395 68 395 c 0
 57 395 53 403 51 415 c 2
 41 480 l 1
 41 480 40 491 40 499 c 0
EndSplineSet
Colour: ffff00
EndChar

StartChar: uni0E2E
Encoding: 3630 3630 14
Width: 750
VWidth: 0
Flags: W
HStem: -20 180<261.043 374.274> 230 110<250 299.982> 440 180<185.97 440>
VStem: 421 272<226.164 405.855>
LayerCount: 2
Fore
SplineSet
7 206 m 0
 7 223 8 241 11 260 c 0
 18 305 46 340 84 340 c 2
 284 340 l 2
 298 340 309 329 309 315 c 0
 309 313 309 312 309 310 c 2
 301 260 l 2
 298 244 282 230 266 230 c 2
 251 230 l 1
 250 225 250 220 250 216 c 0
 250 178 279 160 315 160 c 0
 373 160 404 210 418 300 c 0
 420 312 421 323 421 333 c 0
 421 409 369 440 290 440 c 0
 230 440 190 427 167 420 c 0
 153 416 128 405 115 405 c 0
 100 405 98 423 95 435 c 2
 76 510 l 1
 76 510 73 522 75 535 c 0
 77 550 83 558 99 565 c 0
 112 570 222 620 398 620 c 0
 482 620 529 596 551 579 c 1
 575 604 588 634 591 650 c 0
 594 666 610 680 626 680 c 2
 763 680 l 2
 777 680 788 669 788 655 c 0
 788 592 726 526 657 486 c 1
 677 461 693 422 693 362 c 0
 693 343 692 323 688 300 c 0
 660 123 501 -20 287 -20 c 0
 123 -20 7 53 7 206 c 0
EndSplineSet
Substitution2: "TH Tail Swap" uni0E2E.swap
Substitution2: "'ss02' TH Tail swap" uni0E2E.swap
Colour: ffff00
EndChar

StartChar: uni0E20
Encoding: 3616 3616 15
Width: 770
VWidth: 0
Flags: W
HStem: 0 21G<3 230 430 641> 440 180<338.715 454.75>
LayerCount: 2
Fore
SplineSet
-15 25 m 0
 -15 27 -15 28 -15 30 c 2
 -1 120 l 2
 2 136 18 150 34 150 c 2
 64 150 l 1
 99 370 l 2
 102 391 98 399 90 399 c 1
 84 398 72 395 68 395 c 0
 57 395 53 403 51 415 c 2
 41 480 l 1
 41 480 39 497 40 505 c 0
 42 517 51 527 65 535 c 1
 65 535 230 620 418 620 c 0
 613 620 732 550 732 412 c 0
 732 399 731 385 729 370 c 2
 676 40 l 2
 673 18 652 0 630 0 c 2
 440 0 l 2
 420 0 406 15 406 34 c 0
 406 36 406 38 406 40 c 2
 459 370 l 2
 460 377 461 383 461 389 c 0
 461 424 440 440 390 440 c 0
 376 440 357 439 336 437 c 1
 349 423 359 404 359 379 c 0
 359 373 358 367 357 360 c 2
 314 90 l 2
 306 42 270 0 190 0 c 2
 10 0 l 2
 -4 0 -15 11 -15 25 c 0
EndSplineSet
Colour: ffff00
EndChar

StartChar: uni0E14
Encoding: 3604 3604 16
Width: 790
VWidth: 0
Flags: W
HStem: 0 21G<450 661> 420 200<346.202 468.629>
VStem: 478 274<308.308 409.607>
LayerCount: 2
Fore
SplineSet
13 241 m 0
 13 260 15 280 18 300 c 0
 45 471 200 620 448 620 c 0
 649 620 752 524 752 404 c 0
 752 393 751 382 749 370 c 2
 696 40 l 2
 693 18 672 0 650 0 c 2
 460 0 l 2
 440 0 426 15 426 34 c 0
 426 36 426 38 426 40 c 2
 477 360 l 2
 477 362 478 364 478 367 c 0
 478 392 460 420 417 420 c 0
 356 420 311 380 298 300 c 0
 296 289 295 279 295 269 c 0
 295 205 347 197 359 180 c 1
 376 180 385 185 389 185 c 0
 395 185 399 182 397 170 c 2
 376 40 l 2
 374 25 357 11 341 5 c 0
 326 0 298 -10 258 -10 c 0
 101 -10 13 98 13 241 c 0
EndSplineSet
Colour: ffff00
EndChar

StartChar: uni0E15
Encoding: 3605 3605 17
Width: 810
VWidth: 0
Flags: W
HStem: 0 21G<460 671> 420 190<337.927 430.936> 580 20G<564 765>
LayerCount: 2
Fore
SplineSet
13 241 m 0xc0
 13 260 15 280 18 300 c 0
 45 471 174 610 347 610 c 0xc0
 423 610 481 553 517 485 c 1
 529 560 l 2
 532 582 553 600 575 600 c 2
 755 600 l 2xa0
 775 600 789 585 789 566 c 0
 789 564 789 562 789 560 c 2
 706 40 l 2
 703 18 682 0 660 0 c 2
 470 0 l 2
 450 0 436 15 436 34 c 0
 436 36 436 38 436 40 c 2
 483 334 l 1
 468 376 420 420 387 420 c 0
 351 420 311 380 298 300 c 0
 296 289 295 279 295 269 c 0
 295 205 347 197 359 180 c 1
 376 180 385 185 389 185 c 0
 395 185 399 182 397 170 c 2
 376 40 l 2
 374 25 357 11 341 5 c 0
 326 0 298 -10 258 -10 c 0
 101 -10 13 98 13 241 c 0xc0
EndSplineSet
Colour: ffff00
EndChar

StartChar: uni0E33
Encoding: 3635 3635 18
Width: 540
VWidth: 0
Flags: W
HStem: 0 21G<180 401> 410 200<118.628 358.5> 670 90<-188.022 -114.041> 850 90<-181.428 -109.745>
VStem: -325 136<760.835 843.529> -107 136<766.471 849.165> 208 287<248.594 495.5>
LayerCount: 2
Fore
SplineSet
-325 782 m 0
 -325 789 -324 797 -323 805 c 0
 -310 884 -240 940 -126 940 c 0
 -23 940 29 895 29 828 c 0
 29 821 28 813 27 805 c 0
 14 726 -55 670 -169 670 c 0
 -272 670 -325 715 -325 782 c 0
-189 794 m 0
 -189 771 -174 760 -155 760 c 0
 -133 760 -113 775 -108 805 c 0
 -107 809 -107 813 -107 816 c 0
 -107 839 -121 850 -140 850 c 0
 -162 850 -183 835 -188 805 c 0
 -189 801 -189 797 -189 794 c 0
29 524 m 0
 29 526 29 528 29 530 c 0
 31 542 39 549 59 560 c 1
 59 560 152 610 287 610 c 0
 430 610 495 552 495 439 c 0
 495 421 493 401 490 380 c 2
 436 40 l 2
 433 18 412 0 390 0 c 2
 190 0 l 2
 170 0 156 15 156 34 c 0
 156 36 156 38 156 40 c 2
 207 360 l 2
 208 366 208 372 208 377 c 0
 208 402 195 410 165 410 c 1
 139 410 115 404 93 395 c 0
 83 391 72 385 61 385 c 0
 50 385 46 393 44 405 c 2
 30 505 l 1
 30 505 29 516 29 524 c 0
EndSplineSet
Substitution2: "TH Sara Am Alter" uni0E33.alt
Colour: ffff00
EndChar

StartChar: uni0E08
Encoding: 3592 3592 19
Width: 710
VWidth: -360
Flags: W
HStem: -10 350<129.11 288.018> 440 180<165.992 473.5>
VStem: 401 274<241.236 406.932>
AnchorPoint: "th-vow-below" 460 0 basechar 0
LayerCount: 2
Fore
SplineSet
25 215 m 0
 25 217 25 218 25 220 c 2
 39 310 l 2
 42 326 58 340 74 340 c 2
 234 340 l 2
 276 340 290 320 296 290 c 2
 320 168 l 1
 356 186 387 233 399 310 c 0
 401 320 401 330 401 339 c 0
 401 405 359 440 280 440 c 0
 224 440 170 427 147 420 c 0
 133 416 108 405 95 405 c 0
 80 405 78 423 75 435 c 2
 56 510 l 1
 56 510 53 522 55 535 c 0
 57 550 63 558 79 565 c 0
 92 570 202 620 378 620 c 0
 569 620 675 528 675 377 c 0
 675 359 674 340 671 320 c 0
 644 149 493 -10 308 -10 c 0
 227 -10 206 -7 158 -3 c 0
 133 -1 122 27 119 40 c 2
 80 190 l 1
 50 190 l 2
 36 190 25 201 25 215 c 0
EndSplineSet
Colour: ffff00
EndChar

StartChar: uni0E09
Encoding: 3593 3593 20
Width: 750
VWidth: 0
Flags: W
HStem: -10 170<178 335> 0 21G<430 621> 440 180<186.383 505>
VStem: 25 277<190.658 274> 435 278<231.203 483>
LayerCount: 2
Fore
SplineSet
25 215 m 0xb8
 25 217 25 218 25 220 c 2
 39 310 l 2
 42 326 58 340 74 340 c 2
 254 340 l 2
 305 340 316 326 316 303 c 0
 316 296 315 289 314 280 c 2
 303 210 l 2
 302 204 302 199 302 194 c 0
 302 169 325 171 335 160 c 1xb8
 361 160 388 177 412 204 c 1
 434 340 l 2
 435 346 435 351 435 356 c 0
 435 415 377 440 300 440 c 0
 244 440 185 427 162 420 c 0
 148 416 118 405 105 405 c 0
 90 405 88 423 85 435 c 2
 66 510 l 1
 66 510 63 522 65 535 c 0
 67 550 73 558 89 565 c 0
 102 570 232 620 408 620 c 0
 602 620 713 551 713 415 c 0
 713 401 711 386 709 370 c 2
 656 40 l 2
 653 18 632 0 610 0 c 2
 440 0 l 2x78
 420 0 406 15 406 34 c 0
 406 36 406 38 406 40 c 2
 415 92 l 1
 381 51 296 -10 178 -10 c 0
 115 -10 49 20 49 103 c 0
 49 112 50 120 51 130 c 2
 60 190 l 1
 50 190 l 2
 36 190 25 201 25 215 c 0xb8
EndSplineSet
Colour: ffff00
EndChar

StartChar: uni0E0A
Encoding: 3594 3594 21
Width: 770
VWidth: -360
Flags: W
HStem: -20 180<298.901 399.844> 580 20G<107 332>
VStem: 442 261<224.922 414.424> 591 197<598.266 678.505>
LayerCount: 2
Fore
SplineSet
22 179 m 0xe0
 22 192 23 206 25 220 c 0
 44 338 137 420 137 420 c 1
 87 420 l 2
 73 420 61 431 61 445 c 0
 61 447 61 448 61 450 c 2
 80 570 l 2
 83 586 99 599 115 600 c 1
 295 600 l 2
 369 600 399 567 399 512 c 0
 399 502 398 491 396 480 c 0
 383 397 310 317 295 220 c 0
 294 215 294 210 294 206 c 0
 294 174 315 160 345 160 c 0
 379 160 408 177 415 220 c 2
 439 370 l 2
 441 382 442 392 442 400 c 0xe0
 442 418 437 427 428 430 c 0
 418 433 409 439 411 450 c 2
 421 510 l 2
 423 521 433 530 444 530 c 0
 536 530 586 618 591 650 c 0
 594 666 610 680 626 680 c 2
 763 680 l 2
 777 680 788 669 788 655 c 0xd0
 788 579 701 501 608 462 c 1
 663 444 703 396 703 345 c 0
 703 340 703 335 702 330 c 2
 685 220 l 2
 659 54 518 -20 317 -20 c 0
 134 -20 22 47 22 179 c 0xe0
EndSplineSet
Substitution2: "TH Tail Swap" uni0E0A.swap
Substitution2: "'ss02' TH Tail swap" uni0E0A.swap
Colour: ffff00
EndChar

StartChar: uni0E0B
Encoding: 3595 3595 22
Width: 780
VWidth: -360
Flags: W
HStem: -20 180<308.292 409.844> 450 160<170 346>
VStem: 452 261<224.922 414.424> 601 197<598.266 678.505>
LayerCount: 2
Fore
SplineSet
31 176 m 0xe0
 31 190 33 205 35 220 c 0
 53 333 188 369 197 425 c 0
 199 438 196 450 181 450 c 0
 159 450 139 430 126 415 c 0
 121 409 115 400 103 400 c 0
 97 400 85 410 85 410 c 1
 44 435 l 2
 37 440 31 448 33 460 c 2
 53 590 l 2
 54 598 61 607 69 607 c 0
 74 607 77 606 85 600 c 2
 157 550 l 1
 180 570 233 610 307 610 c 0
 385 610 428 565 428 503 c 0
 428 496 427 488 426 480 c 0
 413 397 320 317 305 220 c 0
 304 215 303 209 303 205 c 0
 303 173 325 160 355 160 c 0
 389 160 418 177 425 220 c 2
 449 370 l 2
 451 382 452 392 452 400 c 0xe0
 452 418 447 427 438 430 c 0
 428 433 424 439 426 450 c 2
 436 510 l 2
 438 521 443 530 454 530 c 0
 546 530 596 618 601 650 c 0
 604 666 620 680 636 680 c 2
 773 680 l 2
 787 680 798 669 798 655 c 0xd0
 798 579 711 501 618 462 c 1
 673 444 713 396 713 345 c 0
 713 340 713 335 712 330 c 2
 695 220 l 2
 669 54 528 -20 327 -20 c 0
 145 -20 31 41 31 176 c 0xe0
EndSplineSet
Substitution2: "TH Tail Swap" uni0E0B.swap
Substitution2: "'ss02' TH Tail swap" uni0E0B.swap
Colour: ffff00
EndChar

StartChar: uni0E0C
Encoding: 3596 3596 23
Width: 1150
VWidth: 0
Flags: W
HStem: -10 200<733.618 897> 0 21G<105 328 430 621> 440 180<330.135 454.75> 580 20G<894 1105>
LayerCount: 2
Fore
SplineSet
40 499 m 0x60
 40 501 40 503 40 505 c 0
 42 517 51 527 65 535 c 1
 65 535 230 620 418 620 c 0x60
 613 620 732 550 732 412 c 0
 732 399 731 385 729 370 c 2
 706 230 l 1
 719 205 736 190 760 190 c 0
 786 190 803 209 813 270 c 2
 859 560 l 2
 862 582 883 600 905 600 c 2
 1095 600 l 2
 1115 600 1129 585 1129 566 c 0
 1129 564 1129 562 1129 560 c 2
 1073 210 l 2
 1050 64 956 -10 838 -10 c 0x90
 734 -10 686 48 665 92 c 1
 656 40 l 2
 653 18 632 0 610 0 c 2
 440 0 l 2
 420 0 406 15 406 34 c 0
 406 36 406 38 406 40 c 2
 459 370 l 2
 460 377 461 383 461 389 c 0
 461 424 440 440 390 440 c 0
 374 440 352 439 327 436 c 1
 339 423 348 403 348 377 c 0
 348 371 348 366 347 360 c 2
 314 150 l 1
 344 150 l 2
 358 150 369 139 369 125 c 0
 369 123 369 122 369 120 c 2
 355 30 l 2
 352 14 336 0 320 0 c 2
 140 0 l 2
 70 0 43 32 43 73 c 0
 43 79 43 84 44 90 c 2
 89 370 l 2
 92 390 89 397 82 397 c 1
 76 396 70 395 68 395 c 0
 57 395 53 403 51 415 c 2
 41 480 l 1
 41 480 40 491 40 499 c 0x60
EndSplineSet
Colour: ffff00
EndChar

StartChar: uni0E0D
Encoding: 3597 3597 24
Width: 1150
VWidth: 0
Flags: W
HStem: -250 150<557.463 859.36> -20 180<706.436 791.336> 0 21G<105 328> 440 180<330.135 454.75> 580 20G<894 1105>
VStem: 430 274<163.791 353.047>
LayerCount: 2
Fore
SplineSet
40 499 m 0xb4
 40 501 40 503 40 505 c 0
 42 517 51 527 65 535 c 1
 65 535 230 620 418 620 c 0xb4
 613 620 732 550 732 412 c 0
 732 399 731 385 729 370 c 2
 705 220 l 2
 704 213 704 207 704 201 c 0
 704 173 716 160 745 160 c 0
 780 160 799 179 805 220 c 2
 859 560 l 2
 862 582 883 600 905 600 c 2
 1095 600 l 2
 1115 600 1129 585 1129 566 c 0
 1129 564 1129 562 1129 560 c 2
 1073 210 l 2
 1053 83 949 -20 717 -20 c 0xcc
 509 -20 430 63 430 171 c 0
 430 184 431 197 433 210 c 2
 459 370 l 2
 460 377 461 383 461 389 c 0
 461 424 440 440 390 440 c 0
 374 440 352 439 327 436 c 1
 339 423 348 403 348 377 c 0
 348 371 348 366 347 360 c 2
 314 150 l 1
 344 150 l 2
 358 150 369 139 369 125 c 0
 369 123 369 122 369 120 c 2
 355 30 l 2
 352 14 336 0 320 0 c 2
 140 0 l 2
 70 0 43 32 43 73 c 0
 43 79 43 84 44 90 c 2
 89 370 l 2
 92 390 89 397 81 397 c 1
 76 396 70 395 68 395 c 0
 57 395 53 403 51 415 c 2
 41 480 l 1
 41 480 40 491 40 499 c 0xb4
423 -173 m 0
 423 -165 428 -154 431 -150 c 2
 479 -70 l 2
 485 -59 496 -55 506 -55 c 0
 513 -55 520 -58 525 -60 c 0
 531 -63 601 -100 704 -100 c 0
 807 -100 889 -63 895 -60 c 0
 900 -58 909 -55 916 -55 c 0
 926 -55 937 -59 939 -70 c 2
 961 -150 l 2
 962 -153 963 -160 963 -166 c 0
 963 -167 963 -169 963 -170 c 0
 961 -180 950 -192 939 -196 c 0
 895 -214 817 -250 680 -250 c 0
 543 -250 477 -214 439 -196 c 0
 431 -192 423 -182 423 -173 c 0
EndSplineSet
Substitution2: "TH Descless" uni0E0D.descless
Substitution2: "'locl' Localized Thai-Sanskrit" uni0E0D.descless
Colour: ffff00
EndChar

StartChar: uni0E13
Encoding: 3603 3603 25
Width: 1150
VWidth: -360
Flags: W
HStem: -10 200<546.5 752> 0 21G<105 328 820 1011> 440 180<330.135 454.75> 580 20G<894 1105>
VStem: 429 281<102.5 347.031>
LayerCount: 2
Fore
SplineSet
40 499 m 0x68
 40 501 40 503 40 505 c 0
 42 517 51 527 65 535 c 1
 65 535 230 620 418 620 c 0
 613 620 732 550 732 412 c 0
 732 399 731 385 729 370 c 2
 713 270 l 2
 711 255 710 242 710 232 c 0
 710 201 720 190 740 190 c 0xa8
 764 190 785 205 806 230 c 1
 859 560 l 2
 862 582 883 600 905 600 c 2
 1095 600 l 2
 1115 600 1129 585 1129 566 c 0
 1129 564 1129 562 1129 560 c 2
 1046 40 l 2
 1043 18 1022 0 1000 0 c 2
 830 0 l 2x58
 810 0 796 15 796 34 c 0
 796 36 796 38 796 40 c 2
 805 92 l 1
 770 48 702 -10 598 -10 c 0x88
 495 -10 429 47 429 158 c 0
 429 174 430 191 433 210 c 2
 459 370 l 2
 460 377 461 383 461 389 c 0
 461 424 440 440 390 440 c 0
 374 440 352 439 327 436 c 1
 339 423 348 403 348 377 c 0
 348 371 348 366 347 360 c 2
 314 150 l 1
 344 150 l 2
 358 150 369 139 369 125 c 0
 369 123 369 122 369 120 c 2
 355 30 l 2
 352 14 336 0 320 0 c 2
 140 0 l 2
 70 0 43 32 43 73 c 0
 43 79 43 84 44 90 c 2
 89 370 l 2
 92 390 89 397 82 397 c 1
 76 396 70 395 68 395 c 0
 57 395 53 403 51 415 c 2
 41 480 l 1
 41 480 40 491 40 499 c 0x68
EndSplineSet
Colour: ffff00
EndChar

StartChar: uni0E12
Encoding: 3602 3602 26
Width: 1180
VWidth: -360
Flags: W
HStem: -10 200<763.618 927> 0 21G<460 651> 420 190<337.927 430.936> 580 20G<564 765 924 1135>
LayerCount: 2
Fore
SplineSet
13 241 m 0xa0
 13 260 15 280 18 300 c 0
 45 471 174 610 347 610 c 0xa0
 423 610 481 553 517 485 c 1
 529 560 l 2
 532 582 553 600 575 600 c 2
 755 600 l 2
 775 600 789 585 789 566 c 0
 789 564 789 562 789 560 c 2
 736 230 l 1
 749 205 766 190 790 190 c 0
 816 190 833 209 843 270 c 2
 889 560 l 2
 892 582 913 600 935 600 c 2
 1125 600 l 2
 1145 600 1159 585 1159 566 c 0
 1159 564 1159 562 1159 560 c 2
 1103 210 l 2
 1080 64 986 -10 868 -10 c 0x90
 764 -10 716 48 695 92 c 1
 686 40 l 2
 683 18 662 0 640 0 c 2
 470 0 l 2x40
 450 0 436 15 436 34 c 0
 436 36 436 38 436 40 c 2
 483 334 l 1
 468 376 420 420 387 420 c 0
 351 420 311 380 298 300 c 0
 296 289 295 279 295 269 c 0
 295 205 347 197 359 180 c 1
 376 180 385 185 389 185 c 0
 395 185 399 182 397 170 c 2
 376 40 l 2
 374 25 357 11 341 5 c 0
 326 0 298 -10 258 -10 c 0
 101 -10 13 98 13 241 c 0xa0
EndSplineSet
Colour: ffff00
EndChar

StartChar: uni0E11
Encoding: 3601 3601 27
Width: 785
VWidth: 0
Flags: W
HStem: 0 21G<40 261 430 651> 450 160<170 346>
VStem: 454 294<307.781 504.821>
LayerCount: 2
Fore
SplineSet
16 34 m 0
 16 36 16 38 16 40 c 2
 45 220 l 2
 63 333 188 369 197 425 c 0
 199 438 196 450 181 450 c 0
 159 450 139 430 126 415 c 0
 121 409 115 400 103 400 c 0
 97 400 85 410 85 410 c 1
 44 435 l 2
 37 440 31 448 33 460 c 2
 53 590 l 2
 54 598 61 607 69 607 c 0
 74 607 77 606 85 600 c 2
 157 550 l 1
 180 570 233 610 307 610 c 0
 385 610 428 564 428 501 c 0
 428 498 428 494 428 491 c 1
 476 553 541 610 617 610 c 0
 711 610 748 558 748 464 c 0
 748 439 745 411 740 380 c 2
 686 40 l 2
 683 18 662 0 640 0 c 2
 440 0 l 2
 420 0 406 15 406 34 c 0
 406 36 406 38 406 40 c 2
 452 330 l 2
 453 337 454 344 454 349 c 0
 454 363 449 370 434 370 c 0
 394 370 351 291 325 220 c 1
 296 40 l 2
 293 18 272 0 250 0 c 2
 50 0 l 2
 30 0 16 15 16 34 c 0
EndSplineSet
Colour: ffff00
EndChar

StartChar: uni0E24
Encoding: 3620 3620 28
Width: 775
VWidth: 0
Flags: W
HStem: 0 21G<105 328> 440 180<330.135 454.75>
LayerCount: 2
Fore
SplineSet
40 499 m 0
 40 501 40 503 40 505 c 0
 42 517 51 527 65 535 c 1
 65 535 230 620 418 620 c 0
 613 620 732 550 732 412 c 0
 732 399 731 385 729 370 c 2
 638 -200 l 2
 635 -222 614 -240 592 -240 c 2
 402 -240 l 2
 382 -240 368 -225 368 -206 c 0
 368 -204 368 -202 368 -200 c 2
 459 370 l 2
 460 377 461 383 461 389 c 0
 461 424 440 440 390 440 c 0
 374 440 352 439 327 436 c 1
 339 423 348 403 348 377 c 0
 348 371 348 366 347 360 c 2
 314 150 l 1
 344 150 l 2
 358 150 369 139 369 125 c 0
 369 123 369 122 369 120 c 2
 355 30 l 2
 352 14 336 0 320 0 c 2
 140 0 l 2
 70 0 43 32 43 73 c 0
 43 79 43 84 44 90 c 2
 89 370 l 2
 92 390 89 397 82 397 c 1
 76 396 70 395 68 395 c 0
 57 395 53 403 51 415 c 2
 41 480 l 1
 41 480 40 491 40 499 c 0
EndSplineSet
Colour: ffff00
EndChar

StartChar: uni0E26
Encoding: 3622 3622 29
Width: 775
VWidth: 0
Flags: W
HStem: 0 21G<3 230> 440 180<338.715 454.75>
LayerCount: 2
Fore
SplineSet
-15 25 m 0
 -15 27 -15 28 -15 30 c 2
 -1 120 l 2
 2 136 18 150 34 150 c 2
 64 150 l 1
 99 370 l 2
 102 391 98 399 90 399 c 1
 84 398 72 395 68 395 c 0
 57 395 53 403 51 415 c 2
 41 480 l 1
 41 480 39 497 40 505 c 0
 42 517 51 527 65 535 c 1
 65 535 230 620 418 620 c 0
 613 620 732 550 732 412 c 0
 732 399 731 385 729 370 c 2
 638 -200 l 2
 635 -222 614 -240 592 -240 c 2
 402 -240 l 2
 382 -240 368 -225 368 -206 c 0
 368 -204 368 -202 368 -200 c 2
 459 370 l 2
 460 377 461 383 461 389 c 0
 461 424 440 440 390 440 c 0
 376 440 357 439 336 437 c 1
 349 423 359 404 359 379 c 0
 359 373 358 367 357 360 c 2
 314 90 l 2
 306 42 270 0 190 0 c 2
 10 0 l 2
 -4 0 -15 11 -15 25 c 0
EndSplineSet
Colour: ffff00
EndChar

StartChar: uni0E27
Encoding: 3623 3623 30
Width: 650
VWidth: 0
Flags: W
HStem: -20 200<61.1241 267.995> 420 200<137.047 404.5>
VStem: 330 282<241.553 388.85>
LayerCount: 2
Fore
SplineSet
-20 56 m 0
 -20 70 -11 81 -6 90 c 2
 49 180 l 2
 56 192 63 205 77 205 c 0
 93 205 102 193 134 185 c 0
 147 182 165 180 189 180 c 0
 258 180 316 227 328 300 c 0
 329 308 330 316 330 323 c 0
 330 383 288 420 227 420 c 0
 203 420 184 418 171 415 c 0
 137 407 124 395 108 395 c 0
 94 395 90 408 87 420 c 2
 61 510 l 2
 58 519 54 528 56 540 c 0
 59 558 82 572 102 580 c 0
 120 587 185 620 308 620 c 0
 501 620 612 504 612 352 c 0
 612 335 611 318 608 300 c 0
 580 123 421 -20 207 -20 c 0
 84 -20 29 13 13 20 c 0
 -4 27 -20 40 -20 56 c 0
EndSplineSet
Colour: ffff00
EndChar

StartChar: uni0E28
Encoding: 3624 3624 31
Width: 800
VWidth: 0
Flags: W
HStem: 0 21G<10 221 440 651> 165 175<319.207 387.947> 430 190<330.843 458.866>
LayerCount: 2
Fore
SplineSet
-14 34 m 0
 -14 36 -14 38 -14 40 c 2
 39 370 l 2
 65 536 214 620 428 620 c 0
 511 620 568 598 601 578 c 1
 625 604 638 634 641 650 c 0
 644 666 660 680 676 680 c 2
 813 680 l 2
 827 680 838 669 838 655 c 0
 838 593 777 528 709 488 c 1
 727 463 741 430 741 393 c 0
 741 385 740 378 739 370 c 2
 686 40 l 2
 683 18 662 0 640 0 c 2
 450 0 l 2
 430 0 416 15 416 34 c 0
 416 36 416 38 416 40 c 2
 467 360 l 2
 468 365 468 370 468 374 c 0
 468 412 438 430 398 430 c 0
 354 430 315 408 307 360 c 2
 296 290 l 1
 318 317 345 340 374 340 c 0
 385 340 392 338 398 335 c 0
 407 330 410 319 409 310 c 2
 388 175 l 2
 387 167 378 162 371 163 c 0
 365 164 359 165 346 165 c 0
 315 165 286 146 270 125 c 1
 256 40 l 2
 253 18 232 0 210 0 c 2
 20 0 l 2
 0 0 -14 15 -14 34 c 0
EndSplineSet
Substitution2: "TH Tail Swap" uni0E28.swap
Substitution2: "'ss02' TH Tail swap" uni0E28.swap
Colour: ffff00
EndChar

StartChar: uni0E29
Encoding: 3625 3625 32
Width: 830
VWidth: -360
Flags: W
HStem: -20 190<310.515 429.157> 290 140<379.093 461 743 805.002> 580 20G<109 330 539 740>
LayerCount: 2
Fore
SplineSet
18 188 m 0
 18 201 19 215 21 230 c 2
 74 560 l 2
 77 582 98 600 120 600 c 2
 320 600 l 2
 340 600 354 585 354 566 c 0
 354 564 354 562 354 560 c 2
 303 240 l 2
 302 234 302 227 302 222 c 0
 302 186 324 170 362 170 c 0
 406 170 445 192 453 240 c 2
 461 290 l 1
 391 290 l 2
 376 290 366 301 366 315 c 0
 366 317 366 318 366 320 c 2
 378 400 l 2
 381 416 397 429 413 430 c 1
 483 430 l 1
 504 560 l 2
 507 582 528 600 550 600 c 2
 730 600 l 2
 750 600 764 585 764 566 c 0
 764 564 764 562 764 560 c 2
 743 430 l 1
 793 430 l 1
 807 429 818 419 818 405 c 0
 818 403 818 402 818 400 c 2
 806 320 l 2
 803 304 788 290 771 290 c 2
 731 290 l 1
 721 230 l 2
 695 64 546 -20 332 -20 c 0
 137 -20 18 50 18 188 c 0
EndSplineSet
Colour: ffff00
EndChar

StartChar: uni0E2B
Encoding: 3627 3627 33
Width: 740
VWidth: -360
Flags: W
HStem: 0 21G<20 231 405 639.5> 580 20G<114 325 500.5 696.5>
VStem: 381 289<2.67709 180> 391 273<1.04141 274.631>
LayerCount: 2
Fore
SplineSet
-4 34 m 0xd0
 -4 36 -4 38 -4 40 c 2
 79 560 l 2
 82 582 103 600 125 600 c 2
 315 600 l 2
 335 600 349 585 349 566 c 0
 349 564 349 562 349 560 c 2
 328 430 l 1
 383 430 l 1
 454 560 l 2
 469 587 486 600 515 600 c 2
 685 600 l 2
 708 600 721 591 721 578 c 0
 721 572 719 566 714 560 c 2
 612 410 l 1
 657 382 660 327 664 280 c 1xd0
 668 85 l 2
 668 80 670 57 670 42 c 0
 670 37 669 32 669 30 c 0
 667 15 652 0 627 0 c 2
 419 0 l 2
 391 0 381 11 381 36 c 0
 381 38 381 39 381 40 c 2xe0
 390 190 l 2
 391 199 391 207 391 215 c 0
 391 257 380 280 334 280 c 2
 304 280 l 1
 266 40 l 2
 263 18 242 0 220 0 c 2
 30 0 l 2
 10 0 -4 15 -4 34 c 0xd0
EndSplineSet
Colour: ffff00
EndChar

StartChar: uni0E1E
Encoding: 3614 3614 34
Width: 1050
VWidth: 0
Flags: W
HStem: 0 21G<140 378.5 551.5 790> 580 20G<79.5 309.5 500.5 619.5 810.5 1039>
VStem: 47 285<373.125 598.843>
AnchorPoint: "th-vow-below" 780 0 basechar 0
AnchorPoint: "th-vow-above" 945 660 basechar 0
LayerCount: 2
Fore
SplineSet
47 577 m 0
 47 596 64 600 95 600 c 2
 295 600 l 2
 324 600 333 587 334 560 c 2
 333 270 l 1
 332 230 l 1
 341 230 l 1
 353 270 l 1
 469 560 l 2
 478 584 486 600 515 600 c 2
 560 600 l 1
 605 600 l 2
 634 600 638 584 639 560 c 2
 663 270 l 1
 661 230 l 1
 671 230 l 1
 683 270 l 1
 774 560 l 2
 783 587 796 600 825 600 c 2
 1025 600 l 2
 1053 600 1067 596 1067 583 c 0
 1067 582 1067 581 1067 580 c 0
 1066 575 1062 565 1059 560 c 2
 826 40 l 2
 817 19 805 0 775 0 c 2
 565 0 l 2
 538 0 530 16 526 40 c 1
 505 250 l 1
 416 40 l 1
 404 16 392 0 365 0 c 2
 155 0 l 2
 125 0 119 19 116 40 c 2
 49 560 l 2
 48 564 47 572 47 577 c 0
EndSplineSet
Colour: ffff00
EndChar

StartChar: uni0E1F
Encoding: 3615 3615 35
Width: 1040
VWidth: -360
Flags: W
HStem: 0 21G<140 378.5 551.5 800> 580 20G<79.5 309.5 500.5 619.5> 820 20G<868.5 1077>
VStem: 47 285<373.125 598.843>
AnchorPoint: "th-vow-above" 725 660 basechar 0
LayerCount: 2
Fore
SplineSet
47 577 m 0
 47 596 64 600 95 600 c 2
 295 600 l 2
 324 600 333 587 334 560 c 2
 333 270 l 1
 332 230 l 1
 341 230 l 1
 353 270 l 1
 469 560 l 2
 478 584 486 600 515 600 c 2
 560 600 l 1
 605 600 l 2
 634 600 638 584 639 560 c 2
 663 270 l 1
 661 230 l 1
 671 230 l 1
 683 270 l 1
 832 800 l 1
 841 827 854 840 883 840 c 2
 1063 840 l 2
 1091 840 1105 836 1105 823 c 0
 1105 822 1105 821 1105 820 c 0
 1104 811 1097 795 1095 790 c 2
 836 40 l 2
 828 18 815 0 785 0 c 2
 565 0 l 2
 538 0 530 16 526 40 c 1
 505 250 l 1
 416 40 l 1
 404 16 392 0 365 0 c 2
 155 0 l 2
 125 0 119 19 116 40 c 2
 49 560 l 2
 48 564 47 572 47 577 c 0
EndSplineSet
Colour: ffff00
EndChar

StartChar: uni0E1D
Encoding: 3613 3613 36
Width: 930
VWidth: 0
Flags: W
HStem: 0 21G<134 293 527 781> 420 190<330.472 415.711> 820 20G<702 913>
VStem: 13 272<204.424 369.945>
AnchorPoint: "th-vow-above" 625 660 basechar 0
LayerCount: 2
Fore
SplineSet
13 243 m 0
 13 261 15 280 18 300 c 0
 45 471 169 610 347 610 c 0
 401 610 441 598 453 590 c 0
 461 585 466 576 464 562 c 0
 463 556 458 545 458 545 c 1
 416 440 l 2
 410 425 393 420 377 420 c 0
 334 420 301 380 288 300 c 0
 286 288 285 278 285 268 c 0
 285 239 293 217 306 203 c 1
 389 310 l 2
 412 339 423 350 440 350 c 2
 465 350 l 1
 490 350 l 2
 507 350 516 339 529 310 c 2
 574 213 l 1
 667 800 l 2
 670 822 691 840 713 840 c 2
 903 840 l 2
 923 840 937 825 937 806 c 0
 937 804 937 802 937 800 c 2
 816 40 l 2
 813 18 792 0 770 0 c 2
 540 0 l 2
 514 0 500 16 489 40 c 2
 434 150 l 1
 343 40 l 2
 324 16 306 0 280 0 c 2
 280 0 199 0 170 0 c 0
 98 0 13 102 13 243 c 0
EndSplineSet
Colour: ffff00
EndChar

StartChar: uni0E1C
Encoding: 3612 3612 37
Width: 920
VWidth: 0
Flags: W
HStem: 0 21G<134 293 527 781> 420 190<330.472 415.711> 580 20G<664 875>
VStem: 13 272<204.424 369.945>
LayerCount: 2
Fore
SplineSet
13 243 m 0xb0
 13 261 15 280 18 300 c 0
 45 471 169 610 347 610 c 0
 401 610 441 598 453 590 c 0
 461 585 466 576 464 562 c 0
 463 556 458 545 458 545 c 1
 416 440 l 2
 410 425 393 420 377 420 c 0xd0
 334 420 301 380 288 300 c 0
 286 288 285 278 285 268 c 0
 285 239 293 217 306 203 c 1
 389 310 l 2
 412 339 423 350 440 350 c 2
 465 350 l 1
 490 350 l 2
 507 350 516 339 529 310 c 2
 574 213 l 1
 629 560 l 2
 632 582 653 600 675 600 c 2
 865 600 l 2
 885 600 899 585 899 566 c 0
 899 564 899 562 899 560 c 2
 816 40 l 2
 813 18 792 0 770 0 c 2
 540 0 l 2
 514 0 500 16 489 40 c 2
 434 150 l 1
 343 40 l 2
 324 16 306 0 280 0 c 2
 280 0 199 0 170 0 c 0
 98 0 13 102 13 243 c 0xb0
EndSplineSet
Colour: ffff00
EndChar

StartChar: uni0E25
Encoding: 3621 3621 38
Width: 740
VWidth: 0
Flags: W
HStem: 0 21G<400 611> 230 140<176 373.717> 440 180<190.861 506.137>
VStem: 428 275<312.523 486.893>
LayerCount: 2
Fore
SplineSet
-4 145 m 0
 -4 156 -3 168 -1 180 c 0
 16 288 103 370 249 370 c 0
 346 370 396 335 419 311 c 1
 427 360 l 2
 428 365 428 370 428 375 c 0
 428 424 381 440 310 440 c 0
 261 440 199 427 166 415 c 0
 152 410 127 400 114 400 c 0
 99 400 97 418 94 430 c 2
 76 510 l 1
 76 510 73 522 75 535 c 0
 77 550 83 558 99 565 c 0
 112 570 232 620 408 620 c 0
 600 620 703 552 703 418 c 0
 703 403 702 387 699 370 c 2
 646 40 l 2
 643 18 622 0 600 0 c 2
 410 0 l 2
 390 0 376 15 376 34 c 0
 376 36 376 38 376 40 c 2
 403 208 l 1
 387 222 368 230 336 230 c 0
 304 230 275 215 269 180 c 0
 268 176 268 172 268 169 c 0
 268 139 301 139 311 130 c 1
 327 130 335 135 341 135 c 0
 347 135 351 132 349 120 c 2
 336 40 l 2
 334 25 318 16 302 10 c 0
 271 -1 232 -10 188 -10 c 0
 58 -10 -4 55 -4 145 c 0
EndSplineSet
Colour: ffff00
EndChar

StartChar: uni0E2A
Encoding: 3626 3626 39
Width: 760
VWidth: 0
Flags: W
HStem: 0 21G<400 611> 230 140<176 373.717> 440 180<190.861 411.817>
LayerCount: 2
Fore
SplineSet
-4 145 m 0
 -4 156 -3 168 -1 180 c 0
 16 288 103 370 249 370 c 0
 346 370 396 335 419 311 c 1
 427 360 l 2
 428 365 428 370 428 375 c 0
 428 424 381 440 310 440 c 0
 261 440 199 427 166 415 c 0
 152 410 127 400 114 400 c 0
 99 400 97 418 94 430 c 2
 76 510 l 1
 76 510 73 522 75 535 c 0
 77 550 83 558 99 565 c 0
 112 570 232 620 408 620 c 0
 480 620 532 601 564 582 c 1
 586 607 599 635 601 650 c 0
 604 666 620 680 636 680 c 2
 773 680 l 2
 787 680 798 669 798 655 c 0
 798 592 737 527 668 487 c 1
 685 466 701 435 701 394 c 0
 701 386 700 379 699 370 c 2
 646 40 l 2
 643 18 622 0 600 0 c 2
 410 0 l 2
 390 0 376 15 376 34 c 0
 376 36 376 38 376 40 c 2
 403 208 l 1
 387 222 368 230 336 230 c 0
 304 230 275 215 269 180 c 0
 268 176 268 172 268 169 c 0
 268 139 301 139 311 130 c 1
 327 130 335 135 341 135 c 0
 347 135 351 132 349 120 c 2
 336 40 l 2
 334 25 318 16 302 10 c 0
 271 -1 232 -10 188 -10 c 0
 58 -10 -4 55 -4 145 c 0
EndSplineSet
Substitution2: "TH Tail Swap" uni0E2A.swap
Substitution2: "'ss02' TH Tail swap" uni0E2A.swap
Colour: ffff00
EndChar

StartChar: uni0E2C
Encoding: 3628 3628 40
Width: 1040
VWidth: -360
Flags: W
HStem: 0 21G<140 378.5 551.5 790> 580 20G<79.5 309.5 500.5 619.5>
VStem: 47 285<373.125 598.843> 736 243<377.979 478.348>
AnchorPoint: "th-vow-below" 780 0 basechar 0
LayerCount: 2
Fore
SplineSet
47 577 m 0
 47 596 64 600 95 600 c 2
 295 600 l 2
 324 600 333 587 334 560 c 2
 333 270 l 1
 332 230 l 1
 341 230 l 1
 353 270 l 1
 469 560 l 2
 478 584 486 600 515 600 c 2
 560 600 l 1
 605 600 l 2
 634 600 638 584 639 560 c 2
 663 270 l 1
 661 230 l 1
 671 230 l 1
 683 270 l 1
 724 400 l 1
 724 400 732 429 735 445 c 0
 736 450 736 456 736 460 c 0
 736 476 731 485 726 490 c 1
 726 490 721 493 723 503 c 0
 724 508 734 530 734 530 c 1
 760 590 l 2
 764 598 768 600 779 600 c 0
 827 600 882 610 906 680 c 0
 911 694 923 710 942 710 c 2
 1077 710 l 2
 1091 710 1103 699 1103 685 c 0
 1103 683 1103 682 1103 680 c 0
 1088 584 981 522 913 499 c 1
 952 488 979 462 979 419 c 0
 979 413 979 406 978 400 c 0
 973 367 943 300 943 300 c 1
 826 40 l 2
 817 19 805 0 775 0 c 2
 565 0 l 2
 538 0 530 16 526 40 c 1
 505 250 l 1
 416 40 l 1
 404 16 392 0 365 0 c 2
 155 0 l 2
 125 0 119 19 116 40 c 2
 49 560 l 2
 48 564 47 572 47 577 c 0
EndSplineSet
Substitution2: "TH Tail Swap" uni0E2C.swap
Substitution2: "'ss02' TH Tail swap" uni0E2C.swap
Colour: ffff00
EndChar

StartChar: uni0E22
Encoding: 3618 3618 41
Width: 775
VWidth: -360
Flags: W
HStem: -20 170<273.864 412.657> 260 120<297.807 375.041> 465 145<301.35 404.791> 580 20G<524 735>
LayerCount: 2
Fore
SplineSet
-2 168 m 0xd0
 -2 175 -1 183 0 190 c 0
 10 250 43 289 90 314 c 1
 56 336 36 367 36 408 c 0
 36 415 37 423 38 430 c 0
 53 524 139 610 287 610 c 0
 331 610 366 601 393 590 c 0
 406 584 419 576 419 563 c 0
 419 562 419 561 419 560 c 2
 406 480 l 2
 404 468 400 465 394 465 c 0xe0
 388 465 380 470 364 470 c 0
 342 470 303 465 297 425 c 0
 296 422 296 419 296 416 c 0
 296 388 321 380 350 380 c 2
 360 380 l 2
 374 380 385 369 385 355 c 0
 385 353 385 352 385 350 c 2
 376 290 l 2
 373 274 357 261 341 260 c 0
 300 257 267 238 262 205 c 0
 262 203 261 201 261 199 c 0
 261 169 299 150 344 150 c 1
 388 150 427 172 435 220 c 2
 489 560 l 2
 492 582 513 600 535 600 c 2
 725 600 l 2
 745 600 759 585 759 566 c 0
 759 564 759 562 759 560 c 2
 706 230 l 2
 680 64 531 -20 317 -20 c 0
 99 -20 -2 71 -2 168 c 0xd0
EndSplineSet
Colour: ffff00
EndChar

StartChar: uni0E10
Encoding: 3600 3600 42
Width: 740
VWidth: 0
Flags: W
HStem: -250 140<11.5271 197.584> -240 180<302.922 328.828 396.918 555.76> -10 350<129.11 288.018> 440 180<165.992 406> 510 168<619.176 744.598>
VStem: 401 272<238.631 408.731>
AnchorPoint: "th-vow-above" 645 660 basechar 0
LayerCount: 2
Fore
SplineSet
-55 -192 m 0xa4
 -55 -182 -47 -173 -43 -167 c 2
 6 -101 l 2
 14 -90 22 -80 32 -80 c 0
 41 -80 49 -89 51 -90 c 0
 56 -93 79 -110 108 -110 c 0xa4
 172 -110 208 -79 219 -70 c 0
 226 -65 232 -60 240 -60 c 2
 295 -60 l 2
 304 -60 308 -63 314 -70 c 2
 387 -146 l 1
 396 -90 l 2
 399 -74 414 -60 430 -60 c 2
 550 -60 l 2
 564 -60 576 -71 576 -85 c 0
 576 -87 576 -88 576 -90 c 2
 557 -210 l 2
 554 -226 538 -240 522 -240 c 2
 402 -240 l 1
 372 -240 l 1
 342 -240 l 2x64
 331 -240 328 -239 319 -230 c 2
 270 -181 l 1
 211 -226 144 -250 80 -250 c 0
 8 -250 -32 -219 -43 -210 c 0
 -49 -204 -55 -200 -55 -192 c 0xa4
25 215 m 0
 25 217 25 218 25 220 c 2
 39 310 l 2
 42 326 58 340 74 340 c 2
 234 340 l 2
 276 340 290 320 296 290 c 2
 320 168 l 1
 356 186 387 233 399 310 c 0
 401 320 401 330 401 339 c 0
 401 405 359 440 280 440 c 0x34
 224 440 170 427 147 420 c 0
 133 416 108 405 95 405 c 0
 80 405 78 423 75 435 c 2
 56 510 l 1x2c
 56 510 53 522 55 535 c 0
 57 550 63 558 79 565 c 0
 92 570 202 620 378 620 c 0x34
 434 620 474 608 501 595 c 1
 565 633 661 678 737 678 c 0
 751 678 763 667 763 653 c 0
 763 651 763 650 763 648 c 2
 746 540 l 2
 743 524 727 510 711 510 c 0x2c
 674 510 643 506 618 499 c 1
 644 468 673 416 673 352 c 0
 673 342 673 331 671 320 c 0
 644 149 493 -10 308 -10 c 0
 227 -10 206 -7 158 -3 c 0
 133 -1 122 27 119 40 c 2
 80 190 l 1
 50 190 l 2
 36 190 25 201 25 215 c 0
EndSplineSet
Substitution2: "TH Descless" uni0E10.descless
Substitution2: "'locl' Localized Thai-Sanskrit" uni0E10.descless
Colour: ffff00
EndChar

StartChar: uni0E23
Encoding: 3619 3619 43
Width: 630
VWidth: 0
Flags: W
HStem: -20 155<118.869 281.402> 465 155<321.805 480.361>
VStem: 33 286<341.5 460.541> 286 276<142.039 256>
AnchorPoint: "th-vow-above" 615 660 basechar 0
LayerCount: 2
Fore
SplineSet
0 57 m 0xd0
 0 69 8 81 14 90 c 2
 55 155 l 2
 62 167 72 175 83 175 c 0
 94 175 106 167 120 160 c 0
 151 145 184 135 221 135 c 0
 257 135 286 143 286 168 c 0xd0
 286 185 265 195 242 205 c 0
 221 214 183 230 158 240 c 0
 106 261 33 299 33 384 c 0
 33 392 34 400 35 409 c 0
 58 555 212 620 358 620 c 0
 480 620 568 580 586 572 c 0
 602 565 611 556 611 542 c 0
 611 540 610 537 610 535 c 0
 608 523 599 509 594 500 c 2
 555 440 l 2
 548 428 541 417 526 417 c 0
 512 417 496 433 475 442 c 0
 449 454 410 465 379 465 c 0
 345 465 319 457 319 431 c 0xe0
 319 414 337 405 363 395 c 0
 386 386 421 372 447 360 c 0
 496 337 562 296 562 216 c 0
 562 208 561 199 560 190 c 0
 540 63 414 -20 247 -20 c 0
 114 -20 47 17 29 25 c 0
 11 32 0 44 0 57 c 0xd0
EndSplineSet
Colour: ffff00
EndChar

StartChar: uni0E18
Encoding: 3608 3608 44
Width: 720
VWidth: -360
Flags: W
HStem: -20 150<263.872 390.882> 470 150<334.27 537.45>
VStem: 45 286<359 456.947>
LayerCount: 2
Fore
SplineSet
11 68 m 0
 11 68 11 69 11 70 c 2
 33 210 l 2
 36 232 58 250 80 250 c 2
 221 250 l 1
 194 257 169 265 153 270 c 0
 84 293 45 327 45 391 c 0
 45 400 45 410 47 420 c 0
 66 540 202 620 378 620 c 0
 542 620 633 579 641 575 c 0
 663 565 675 555 675 540 c 0
 675 538 675 537 675 535 c 0
 673 523 664 509 659 500 c 2
 626 450 l 2
 619 438 607 425 592 425 c 0
 578 425 562 436 535 445 c 0
 499 457 443 470 384 470 c 0
 359 470 331 466 331 446 c 0
 331 428 351 426 367 420 c 0
 392 411 509 379 539 370 c 0
 609 347 662 305 662 219 c 0
 662 207 661 194 659 180 c 0
 639 55 496 -20 327 -20 c 0
 161 -20 11 28 11 68 c 0
261 133 m 1
 282 131 301 130 316 130 c 0
 362 130 392 141 396 165 c 0
 396 167 397 170 397 172 c 0
 397 201 366 213 335 220 c 0
 324 223 303 228 277 235 c 1
 261 133 l 1
EndSplineSet
Colour: ffff00
EndChar

StartChar: uni0E0E
Encoding: 3598 3598 45
Width: 775
VWidth: 0
Flags: W
HStem: -190 140<26.4358 320.121> 0 21G<3 230> 440 180<338.715 454.75>
VStem: 461 271<228.391 431.727>
LayerCount: 2
Fore
SplineSet
-38 -118 m 0
 -38 -104 -27 -96 -14 -90 c 0
 -1 -83 55 -50 162 -50 c 0
 264 -50 338 -79 384 -104 c 1
 459 370 l 2
 460 377 461 383 461 389 c 0
 461 424 440 440 390 440 c 0
 376 440 357 439 336 437 c 1
 349 423 359 404 359 379 c 0
 359 373 358 367 357 360 c 2
 314 90 l 2
 306 42 270 0 190 0 c 2
 10 0 l 2
 -4 0 -15 11 -15 25 c 0
 -15 27 -15 28 -15 30 c 2
 -1 120 l 2
 2 136 18 150 34 150 c 2
 64 150 l 1
 99 370 l 2
 102 391 98 399 90 399 c 1
 84 398 72 395 68 395 c 0
 57 395 53 403 51 415 c 2
 41 480 l 1
 41 480 39 497 40 505 c 0
 42 517 51 527 65 535 c 1
 65 535 230 620 418 620 c 0
 613 620 732 550 732 412 c 0
 732 399 731 385 729 370 c 2
 638 -200 l 2
 635 -222 614 -240 592 -240 c 2
 392 -240 l 1
 392 -240 291 -190 150 -190 c 0
 83 -190 31 -214 18 -220 c 0
 15 -222 0 -230 -6 -230 c 0
 -16 -230 -23 -225 -24 -215 c 2
 -36 -135 l 2
 -37 -130 -38 -124 -38 -118 c 0
EndSplineSet
Colour: ffff00
EndChar

StartChar: uni0E0F
Encoding: 3599 3599 46
Width: 775
VWidth: 0
Flags: W
HStem: -250 140<21.5271 207.584> 0 21G<3 230> 440 180<338.715 454.75>
VStem: 461 271<228.719 431.727>
LayerCount: 2
Fore
SplineSet
-45 -192 m 0
 -45 -182 -37 -173 -33 -167 c 2
 16 -101 l 2
 24 -90 32 -80 42 -80 c 0
 51 -80 59 -89 61 -90 c 0
 66 -93 89 -110 118 -110 c 0
 182 -110 218 -79 229 -70 c 0
 236 -65 242 -60 250 -60 c 2
 305 -60 l 2
 314 -60 318 -63 324 -70 c 2
 380 -128 l 1
 459 370 l 2
 460 377 461 383 461 389 c 0
 461 424 440 440 390 440 c 0
 376 440 357 439 336 437 c 1
 349 423 359 404 359 379 c 0
 359 373 358 367 357 360 c 2
 314 90 l 2
 306 42 270 0 190 0 c 2
 10 0 l 2
 -4 0 -15 11 -15 25 c 0
 -15 27 -15 28 -15 30 c 2
 -1 120 l 2
 2 136 18 150 34 150 c 2
 64 150 l 1
 99 370 l 2
 102 391 98 399 90 399 c 1
 84 398 72 395 68 395 c 0
 57 395 53 403 51 415 c 2
 41 480 l 1
 41 480 39 497 40 505 c 0
 42 517 51 527 65 535 c 1
 65 535 230 620 418 620 c 0
 613 620 732 550 732 412 c 0
 732 399 731 385 729 370 c 2
 638 -200 l 2
 635 -222 614 -240 592 -240 c 2
 412 -240 l 1
 352 -240 l 2
 341 -240 338 -239 329 -230 c 2
 280 -181 l 1
 221 -226 154 -250 90 -250 c 0
 18 -250 -22 -219 -33 -210 c 0
 -39 -204 -45 -200 -45 -192 c 0
EndSplineSet
Colour: ffff00
EndChar

StartChar: uni0E31
Encoding: 3633 3633 47
Width: 0
VWidth: 0
Flags: W
HStem: 690 150<-232 22.8125>
AnchorPoint: "th-mkmk" -60 0 basemark 0
AnchorPoint: "th-vow-above" -25 660 mark 0
LayerCount: 2
Fore
SplineSet
-447 765 m 0
 -447 770 -447 775 -446 780 c 0
 -440 821 -411 870 -411 870 c 1
 -402 886 -386 900 -366 900 c 2
 -232 900 l 2
 -221 900 -213 893 -213 883 c 0
 -213 879 -214 875 -217 870 c 2
 -232 840 l 1
 13 840 l 2
 27 840 38 829 38 815 c 0
 38 813 38 812 38 810 c 2
 24 720 l 2
 21 704 5 690 -11 690 c 2
 -351 690 l 2
 -407 690 -447 716 -447 765 c 0
EndSplineSet
Substitution2: "TH Vowel to Left" uni0E31.left
Colour: ffff00
EndChar

StartChar: uni0E34
Encoding: 3636 3636 48
Width: 0
VWidth: 0
Flags: W
HStem: 690 150<-520.812 -37.1875>
AnchorPoint: "th-mkmk" -60 0 basemark 0
AnchorPoint: "th-vow-above" -25 660 mark 0
LayerCount: 2
Fore
SplineSet
-536 715 m 0
 -536 717 -536 718 -536 720 c 2
 -522 810 l 2
 -519 826 -503 840 -487 840 c 2
 -47 840 l 2
 -33 840 -22 829 -22 815 c 0
 -22 813 -22 812 -22 810 c 2
 -36 720 l 2
 -39 704 -55 690 -71 690 c 2
 -511 690 l 2
 -525 690 -536 701 -536 715 c 0
EndSplineSet
Substitution2: "TH Vowel to Left" uni0E34.left
Colour: ffff00
EndChar

StartChar: uni0E35
Encoding: 3637 3637 49
Width: 0
VWidth: 0
Flags: W
HStem: 690 230<-208.065 -36.935> 690 150<-530.812 -233.253>
AnchorPoint: "th-mkmk" -60 0 basemark 0
AnchorPoint: "th-vow-above" -25 660 mark 0
LayerCount: 2
Fore
SplineSet
-546 715 m 0x40
 -546 717 -546 718 -546 720 c 2
 -532 810 l 2
 -529 826 -513 840 -497 840 c 2
 -297 840 l 2x40
 -241 840 -223 800 -223 800 c 1
 -209 890 l 2
 -206 906 -190 920 -174 920 c 2
 -34 920 l 2
 -20 920 -9 909 -9 895 c 0
 -9 893 -9 892 -9 890 c 2
 -36 720 l 2
 -39 704 -55 690 -71 690 c 2x80
 -521 690 l 2
 -535 690 -546 701 -546 715 c 0x40
EndSplineSet
Substitution2: "TH Vowel to Left" uni0E35.left
Colour: ffff00
EndChar

StartChar: uni0E36
Encoding: 3638 3638 50
Width: 0
VWidth: 0
Flags: W
HStem: 690 150<-540.812 -293.092> 690 80<-182.637 -108.29> 850 80<-176.7 -101.653>
VStem: -283 100<798.18 844.876> -101 101<775.124 849.204>
AnchorPoint: "th-mkmk" -60 0 basemark 0
AnchorPoint: "th-vow-above" -25 660 mark 0
LayerCount: 2
Fore
SplineSet
-556 715 m 0xb8
 -556 717 -556 718 -556 720 c 2
 -542 810 l 2
 -539 826 -523 840 -507 840 c 2
 -337 840 l 2xb8
 -311 840 -294 819 -283 798 c 1
 -283 802 -283 806 -282 810 c 0
 -271 882 -209 930 -123 930 c 0
 -45 930 0 891 0 830 c 0
 0 823 -1 817 -2 810 c 0
 -13 738 -75 690 -161 690 c 2x78
 -531 690 l 2
 -545 690 -556 701 -556 715 c 0xb8
-183 802 m 0
 -183 781 -169 770 -148 770 c 0x78
 -125 770 -106 784 -102 810 c 0
 -102 813 -101 815 -101 818 c 0
 -101 839 -115 850 -135 850 c 0
 -158 850 -178 836 -182 810 c 0
 -182 807 -183 805 -183 802 c 0
EndSplineSet
Substitution2: "TH Vowel to Left" uni0E36.left
Colour: ffff00
EndChar

StartChar: uni0E37
Encoding: 3639 3639 51
Width: 0
VWidth: 0
Flags: W
HStem: 690 230<-348.065 -215.327 -148.065 -26.935> 690 150<-540.812 -371.113> 690 100<-215 -165>
AnchorPoint: "th-mkmk" -60 0 basemark 0
AnchorPoint: "th-vow-above" -25 660 mark 0
LayerCount: 2
Fore
SplineSet
-556 715 m 0x40
 -556 717 -556 718 -556 720 c 2
 -542 810 l 2
 -539 826 -523 840 -507 840 c 2
 -427 840 l 2x40
 -376 840 -363 800 -363 800 c 1
 -349 890 l 2
 -346 906 -330 920 -314 920 c 2
 -224 920 l 2x80
 -210 920 -199 909 -199 895 c 0
 -199 893 -199 892 -199 890 c 2
 -215 790 l 1
 -165 790 l 1x20
 -149 890 l 2
 -146 906 -130 920 -114 920 c 2
 -24 920 l 2
 -10 920 1 909 1 895 c 0
 1 893 1 892 1 890 c 2
 -26 720 l 2
 -29 704 -45 690 -61 690 c 2x80
 -531 690 l 2
 -545 690 -556 701 -556 715 c 0x40
EndSplineSet
Substitution2: "TH Vowel to Left" uni0E37.left
Colour: ffff00
EndChar

StartChar: uni0E4D
Encoding: 3661 3661 52
Width: 0
VWidth: 0
Flags: W
HStem: 670 90<-188.022 -114.041> 850 90<-181.428 -109.745>
VStem: -325 136<760.835 843.529> -107 136<766.471 849.165>
LayerCount: 2
Fore
SplineSet
-325 782 m 0
 -325 789 -324 797 -323 805 c 0
 -310 884 -240 940 -126 940 c 0
 -23 940 29 895 29 828 c 0
 29 821 28 813 27 805 c 0
 14 726 -55 670 -169 670 c 0
 -272 670 -325 715 -325 782 c 0
-189 794 m 0
 -189 771 -174 760 -155 760 c 0
 -133 760 -113 775 -108 805 c 0
 -107 809 -107 813 -107 816 c 0
 -107 839 -121 850 -140 850 c 0
 -162 850 -183 835 -188 805 c 0
 -189 801 -189 797 -189 794 c 0
EndSplineSet
Substitution2: "TH Nikhahit High-Left" uni0E4D.high.left
Substitution2: "TH Vowel to Left" uni0E4D.low.left
Substitution2: "TH Tone High to High-Left" uni0E4D.high.left
Substitution2: "TH Nikhahit High" uni0E4D.high
Colour: ffff00
EndChar

StartChar: uni0E32
Encoding: 3634 3634 53
Width: 540
VWidth: 0
Flags: W
HStem: 0 21G<180 401> 410 200<118.628 358.5>
VStem: 208 287<248.594 495.5>
LayerCount: 2
Fore
SplineSet
29 524 m 0
 29 526 29 528 29 530 c 0
 31 542 39 549 59 560 c 1
 59 560 152 610 287 610 c 0
 430 610 495 552 495 439 c 0
 495 421 493 401 490 380 c 2
 436 40 l 2
 433 18 412 0 390 0 c 2
 190 0 l 2
 170 0 156 15 156 34 c 0
 156 36 156 38 156 40 c 2
 207 360 l 2
 208 366 208 372 208 377 c 0
 208 402 195 410 165 410 c 1
 139 410 115 404 93 395 c 0
 83 391 72 385 61 385 c 0
 50 385 46 393 44 405 c 2
 30 505 l 1
 30 505 29 516 29 524 c 0
EndSplineSet
Colour: ffff00
EndChar

StartChar: uni0E38
Encoding: 3640 3640 54
Width: 0
VWidth: 0
Flags: W
HStem: -280 220<-368.895 -181.579>
VStem: -414 256<-178.906 -99.6>
AnchorPoint: "th-vow-below" -130 0 mark 0
LayerCount: 2
Fore
SplineSet
-414 -150 m 2
 -404 -90 l 2
 -401 -74 -386 -60 -370 -60 c 2
 -210 -60 l 2
 -178 -60 -158 -79 -158 -108 c 0
 -158 -112 -158 -116 -159 -120 c 2
 -180 -250 l 2
 -183 -266 -198 -280 -214 -280 c 2
 -354 -280 l 2
 -368 -280 -380 -269 -380 -255 c 0
 -380 -253 -380 -252 -380 -250 c 2
 -369 -180 l 1
 -389 -180 l 2
 -403 -180 -414 -169 -414 -155 c 0
 -414 -153 -414 -152 -414 -150 c 2
EndSplineSet
Substitution2: "TH Vow Lower" uni0E38.low
Colour: ffff00
EndChar

StartChar: uni0E3A
Encoding: 3642 3642 55
Width: 0
VWidth: 0
Flags: W
HStem: -220 160<-353.082 -171.204>
VStem: -370 216<-142.5 -137.5>
AnchorPoint: "th-vow-below" -130 0 mark 0
LayerCount: 2
Fore
SplineSet
-370 -190 m 2
 -354 -90 l 2
 -351 -74 -336 -60 -320 -60 c 2
 -180 -60 l 2
 -166 -60 -154 -71 -154 -85 c 0
 -154 -87 -154 -88 -154 -90 c 2
 -170 -190 l 2
 -173 -206 -189 -220 -205 -220 c 2
 -345 -220 l 2
 -359 -220 -370 -209 -370 -195 c 0
 -370 -193 -370 -192 -370 -190 c 2
EndSplineSet
Substitution2: "TH Vow Lower" uni0E3A.low
Colour: ffff00
EndChar

StartChar: uni0E39
Encoding: 3641 3641 56
Width: 0
VWidth: 0
Flags: W
HStem: -280 220<-588.059 -410.36 -323.082 -183.141> -280 90<-410 -340>
AnchorPoint: "th-vow-below" -230 0 mark 0
LayerCount: 2
Fore
SplineSet
-634 -150 m 2x80
 -624 -90 l 2
 -621 -74 -606 -60 -590 -60 c 2
 -450 -60 l 2x80
 -418 -60 -398 -79 -398 -108 c 0
 -398 -112 -398 -116 -399 -120 c 2
 -410 -190 l 1
 -340 -190 l 1x40
 -324 -90 l 2
 -321 -74 -306 -60 -290 -60 c 2
 -170 -60 l 2
 -156 -60 -144 -71 -144 -85 c 0
 -144 -87 -144 -88 -144 -90 c 2
 -165 -220 l 2
 -171 -255 -204 -280 -264 -280 c 2
 -514 -280 l 2
 -569 -280 -596 -259 -596 -229 c 0
 -596 -226 -596 -223 -595 -220 c 2
 -589 -180 l 1
 -609 -180 l 2
 -623 -180 -634 -169 -634 -155 c 0
 -634 -153 -634 -152 -634 -150 c 2x80
EndSplineSet
Substitution2: "TH Vow Lower" uni0E39.low
Colour: ffff00
EndChar

StartChar: uni0E49
Encoding: 3657 3657 57
Width: 0
VWidth: 0
Flags: W
HStem: 960 110<-86 65.886> 1080 90<-257.9 -209>
VStem: -292 366<964.673 1039.48>
AnchorPoint: "th-mkmk" -60 0 mark 0
LayerCount: 2
Fore
SplineSet
-292 994 m 0
 -292 996 -292 998 -292 1000 c 0
 -289 1017 -280 1029 -265 1040 c 2
 -209 1080 l 1
 -249 1080 l 2
 -260 1080 -268 1089 -266 1100 c 2
 -258 1150 l 2
 -256 1161 -246 1170 -235 1170 c 2
 -55 1170 l 2
 -32 1170 -20 1156 -20 1140 c 0
 -20 1138 -20 1137 -20 1135 c 0
 -22 1121 -29 1113 -40 1105 c 2
 -86 1070 l 1
 49 1070 l 2
 63 1070 74 1059 74 1045 c 0
 74 1043 74 1042 74 1040 c 2
 67 990 l 2
 64 974 48 960 32 960 c 2
 -258 960 l 2
 -280 960 -292 976 -292 994 c 0
EndSplineSet
Substitution2: "TH Tone High to High-Left" uni0E49.high.left
Substitution2: "TH Tone High to Low-Left" uni0E49.low.left
Substitution2: "TH Tone High to Low" uni0E49.low
Colour: ffff00
EndChar

StartChar: uni0E48
Encoding: 3656 3656 58
Width: 0
VWidth: 0
Flags: W
HStem: 960 210<-158.082 -4.34525>
VStem: -183 204
AnchorPoint: "th-mkmk" -60 0 mark 0
LayerCount: 2
Fore
SplineSet
-183 985 m 0
 -183 987 -183 988 -183 990 c 2
 -159 1140 l 2
 -156 1156 -141 1170 -125 1170 c 2
 -5 1170 l 2
 9 1170 21 1159 21 1145 c 0
 21 1143 21 1142 21 1140 c 2
 -3 990 l 2
 -6 974 -22 960 -38 960 c 2
 -158 960 l 2
 -172 960 -183 971 -183 985 c 0
EndSplineSet
Substitution2: "TH Tone High to High-Left" uni0E48.high.left
Substitution2: "TH Tone High to Low-Left" uni0E48.low.left
Substitution2: "TH Tone High to Low" uni0E48.low
Colour: ffff00
EndChar

StartChar: uni0E4B
Encoding: 3659 3659 59
Width: 0
VWidth: 0
Flags: W
HStem: 960 210<-148.082 -14.3453> 1020 90<-236.9 -168 6 74.9004>
VStem: -245 328
AnchorPoint: "th-mkmk" -60 0 mark 0
LayerCount: 2
Fore
SplineSet
-245 1040 m 2x60
 -237 1090 l 2
 -235 1101 -225 1110 -214 1110 c 2
 -154 1110 l 1x60
 -149 1140 l 2
 -146 1156 -131 1170 -115 1170 c 2
 -15 1170 l 2xa0
 -1 1170 11 1159 11 1145 c 0
 11 1143 11 1142 11 1140 c 2
 6 1110 l 1
 66 1110 l 2
 77 1110 85 1101 83 1090 c 2
 75 1040 l 2
 73 1029 63 1020 52 1020 c 2
 -8 1020 l 1x60
 -13 990 l 2
 -16 974 -32 960 -48 960 c 2
 -148 960 l 2xa0
 -162 960 -173 971 -173 985 c 0
 -173 987 -173 988 -173 990 c 2
 -168 1020 l 1
 -228 1020 l 2
 -239 1020 -247 1029 -245 1040 c 2x60
EndSplineSet
Substitution2: "TH Tone High to High-Left" uni0E4B.high.left
Substitution2: "TH Tone High to Low-Left" uni0E4B.low.left
Substitution2: "TH Tone High to Low" uni0E4B.low
Colour: ffff00
EndChar

StartChar: uni0E40
Encoding: 3648 3648 60
Width: 390
VWidth: 0
Flags: W
HStem: -10 610<94.3233 272.232>
VStem: 14 346
LayerCount: 2
Fore
SplineSet
14 73 m 0
 14 81 15 91 16 100 c 2
 89 560 l 2
 92 582 113 600 135 600 c 2
 325 600 l 2
 345 600 360 585 360 566 c 0
 360 564 359 562 359 560 c 2
 273 20 l 2
 271 7 266 2 255 0 c 1
 255 0 195 -10 138 -10 c 0
 42 -10 14 23 14 73 c 0
EndSplineSet
Colour: ffff00
EndChar

StartChar: uni0E41
Encoding: 3649 3649 61
Width: 750
VWidth: 0
Flags: W
HStem: 580 20G<124 335 484 695>
LayerCount: 2
Fore
SplineSet
14 73 m 0
 14 81 15 91 16 100 c 2
 89 560 l 2
 92 582 113 600 135 600 c 2
 325 600 l 2
 345 600 359 585 359 566 c 0
 359 564 359 562 359 560 c 2
 273 20 l 2
 271 7 266 2 255 0 c 1
 255 0 195 -10 138 -10 c 0
 42 -10 14 23 14 73 c 0
374 73 m 0
 374 81 375 91 376 100 c 2
 449 560 l 2
 452 582 473 600 495 600 c 2
 685 600 l 2
 705 600 719 585 719 566 c 0
 719 564 719 562 719 560 c 2
 633 20 l 2
 631 7 626 2 615 0 c 1
 615 0 555 -10 498 -10 c 0
 402 -10 374 23 374 73 c 0
EndSplineSet
Colour: ffff00
EndChar

StartChar: uni0E2F
Encoding: 3631 3631 62
Width: 700
VWidth: 0
Flags: W
HStem: 0 21G<330 551> 290 170<141.5 306.991> 580 20G<84 235 444 645>
VStem: 35 224<414.422 584.424>
LayerCount: 2
Fore
SplineSet
35 455 m 0
 35 467 36 478 38 490 c 1
 49 560 l 2
 52 582 73 600 95 600 c 2
 225 600 l 2
 245 600 259 585 259 566 c 0
 259 564 259 562 259 560 c 2
 256 540 l 2
 255 531 254 523 254 516 c 0
 254 474 277 460 303 460 c 0
 342 460 380 490 405 535 c 1
 409 560 l 2
 412 582 433 600 455 600 c 2
 635 600 l 2
 655 600 669 585 669 566 c 0
 669 564 669 562 669 560 c 2
 586 40 l 2
 583 18 562 0 540 0 c 2
 340 0 l 2
 320 0 306 15 306 34 c 0
 306 36 306 38 306 40 c 2
 355 349 l 1
 319 317 266 290 196 290 c 0
 87 290 35 366 35 455 c 0
EndSplineSet
Colour: ffff00
EndChar

StartChar: uni0E30
Encoding: 3632 3632 63
Width: 520
VWidth: 0
Flags: W
HStem: 40 170<243 429.991> 350 170<292 478.991>
LayerCount: 2
Fore
SplineSet
1 125 m 0
 1 130 1 135 2 140 c 0
 9 183 37 230 37 230 c 1
 46 246 62 260 82 260 c 2
 239 260 l 2
 250 260 258 253 258 243 c 0
 258 239 257 235 254 230 c 2
 243 210 l 1
 423 210 l 2
 437 210 449 199 449 185 c 0
 449 183 449 182 449 180 c 2
 431 70 l 2
 428 54 412 40 396 40 c 2
 96 40 l 2
 41 40 1 75 1 125 c 0
50 435 m 0
 50 440 50 445 51 450 c 0
 58 493 87 540 87 540 c 1
 96 556 111 570 131 570 c 2
 288 570 l 2
 300 570 308 563 308 553 c 0
 308 549 306 545 304 540 c 2
 292 520 l 1
 472 520 l 2
 486 520 498 509 498 495 c 0
 498 493 498 492 498 490 c 2
 480 380 l 2
 477 364 461 350 445 350 c 2
 145 350 l 2
 90 350 50 385 50 435 c 0
EndSplineSet
Colour: ffff00
EndChar

StartChar: uni0E4A
Encoding: 3658 3658 64
Width: 0
VWidth: 0
Flags: W
HStem: 960 210<-108.082 25.5455> 960 90<26 94.9004> 1070 110<-238.5 -145.805>
VStem: -350 158<960.015 1065.79> -133 228<960.008 1049.13>
AnchorPoint: "th-mkmk" -60 0 mark 0
LayerCount: 2
Fore
SplineSet
-350 990 m 0x78
 -350 1002 -349 1017 -347 1030 c 0
 -333 1119 -274 1180 -203 1180 c 0x78
 -160 1180 -134 1146 -115 1108 c 1
 -109 1140 l 2
 -106 1156 -91 1170 -75 1170 c 2
 15 1170 l 2x98
 29 1170 41 1159 41 1145 c 0
 41 1143 41 1142 41 1140 c 2
 26 1050 l 1
 86 1050 l 2
 97 1050 105 1041 103 1030 c 2
 95 980 l 2
 93 969 83 960 72 960 c 2x58
 -108 960 l 2x98
 -122 960 -133 971 -133 985 c 0
 -133 987 -133 988 -133 990 c 2
 -127 1026 l 1
 -137 1051 -148 1070 -161 1070 c 0
 -181 1070 -190 1036 -193 1020 c 0
 -195 1010 -196 998 -194 990 c 0
 -193 985 -191 979 -192 975 c 0
 -194 965 -208 960 -219 960 c 2
 -323 960 l 2
 -339 960 -350 974 -350 990 c 0x78
EndSplineSet
Substitution2: "TH Tone High to High-Left" uni0E4A.high.left
Substitution2: "TH Tone High to Low-Left" uni0E4A.low.left
Substitution2: "TH Tone High to Low" uni0E4A.low
Colour: ffff00
EndChar

StartChar: uni0E47
Encoding: 3655 3655 65
Width: 0
VWidth: 0
Flags: W
HStem: 670 115<-391.5 -249.389> 680 140<-198.987 -71.9953> 865 115<-316.738 -19.0176>
VStem: -491 167<788.24 858.496>
AnchorPoint: "th-vow-above" -25 660 mark 0
LayerCount: 2
Fore
SplineSet
-491 798 m 0xb0
 -491 807 -490 816 -489 825 c 0
 -476 907 -408 980 -290 980 c 2
 -35 980 l 2
 -21 980 -10 969 -10 955 c 0
 -10 953 -10 952 -10 950 c 2
 -18 895 l 2
 -21 879 -37 865 -53 865 c 2
 -268 865 l 2
 -295 865 -320 852 -324 825 c 0
 -324 823 -324 820 -324 818 c 0
 -324 796 -306 785 -281 785 c 0xb0
 -257 785 -243 794 -234 805 c 0
 -228 813 -221 820 -210 820 c 2
 -98 820 l 2
 -82 820 -75 806 -71 790 c 2
 -49 710 l 1
 -49 710 -44 699 -45 695 c 0
 -47 685 -59 680 -70 680 c 2
 -172 680 l 2x70
 -188 680 -196 694 -200 710 c 1
 -205 742 l 1
 -228 706 -269 670 -339 670 c 0
 -444 670 -491 728 -491 798 c 0xb0
EndSplineSet
Substitution2: "TH Vowel to Left" uni0E47.left
Colour: ffff00
EndChar

StartChar: uni0E4C
Encoding: 3660 3660 66
Width: 0
VWidth: 0
Flags: W
HStem: 990 120<-98 41.0408>
VStem: -259 310<1024 1080.8>
AnchorPoint: "th-mkmk" -60 0 mark 0
LayerCount: 2
Fore
SplineSet
-259 1011 m 0
 -259 1017 -258 1023 -257 1030 c 0
 -248 1088 -205 1110 -144 1110 c 2
 26 1110 l 2
 40 1110 51 1099 51 1085 c 0
 51 1083 51 1082 51 1080 c 2
 42 1020 l 2
 39 1004 23 990 7 990 c 2
 -98 990 l 1
 -88 960 l 1
 -88 960 -82 949 -83 945 c 0
 -85 935 -99 930 -110 930 c 2
 -214 930 l 2
 -230 930 -240 944 -246 960 c 0
 -249 969 -259 985 -259 1011 c 0
EndSplineSet
Substitution2: "TH Tone High to High-Left" uni0E4C.high.left
Substitution2: "TH Tone High to Low-Left" uni0E4C.low.left
Substitution2: "TH Tone High to Low" uni0E4C.low
Colour: ffff00
EndChar

StartChar: uni0E43
Encoding: 3651 3651 67
Width: 440
VWidth: 0
Flags: W
HStem: 780 150<204.735 366>
VStem: 298 204<704.127 825.5>
LayerCount: 2
Fore
SplineSet
44 73 m 0
 44 81 45 91 46 100 c 2
 111 510 l 2
 128 615 289 690 297 740 c 0
 298 744 298 747 298 750 c 0
 298 769 287 780 264 780 c 1
 229 780 190 748 170 717 c 0
 166 711 160 705 152 705 c 0
 145 705 130 715 124 718 c 2
 65 755 l 2
 58 759 51 766 53 777 c 0
 54 785 58 793 61 800 c 0
 93 863 182 930 307 930 c 0
 425 930 502 868 502 783 c 0
 502 776 501 768 500 760 c 0
 482 646 400 628 381 510 c 2
 303 20 l 2
 301 7 296 2 285 0 c 1
 285 0 225 -10 168 -10 c 0
 72 -10 44 23 44 73 c 0
EndSplineSet
Colour: ffff00
EndChar

StartChar: uni0E44
Encoding: 3652 3652 68
Width: 440
VWidth: 0
Flags: W
HStem: 780 150<288.361 433>
LayerCount: 2
Fore
SplineSet
44 73 m 0
 44 81 45 91 46 100 c 2
 111 510 l 2
 130 629 312 704 319 750 c 0
 319 752 320 755 320 757 c 0
 320 770 312 780 294 780 c 0
 260 780 222 748 197 720 c 0
 192 714 185 700 173 700 c 0
 167 700 152 710 152 710 c 1
 75 760 l 2
 68 765 62 773 64 785 c 2
 83 900 l 2
 84 908 88 914 97 915 c 0
 101 915 108 912 114 907 c 2
 202 842 l 1
 231 876 299 930 387 930 c 0
 479 930 526 878 526 807 c 0
 526 798 525 789 524 780 c 0
 508 677 400 628 381 510 c 2
 303 20 l 2
 301 7 296 2 285 0 c 1
 285 0 225 -10 168 -10 c 0
 72 -10 44 23 44 73 c 0
EndSplineSet
Colour: ffff00
EndChar

StartChar: uni0E42
Encoding: 3650 3650 69
Width: 440
VWidth: 0
Flags: W
HStem: 780 150<282.292 411.852>
VStem: 114 277<407.812 637.757>
LayerCount: 2
Fore
SplineSet
44 73 m 0
 44 81 45 91 46 100 c 2
 111 510 l 2
 113 522 114 533 114 543 c 0
 114 626 58 661 58 735 c 0
 58 743 59 751 60 760 c 0
 75 856 168 930 297 930 c 0
 426 930 506 877 518 870 c 0
 529 863 533 854 533 843 c 0
 533 841 533 839 533 837 c 0
 532 828 524 820 524 820 c 1
 472 752 l 2
 463 741 459 735 451 735 c 0
 444 735 432 742 424 747 c 0
 415 753 366 780 334 780 c 0
 301 780 279 773 279 747 c 0
 279 706 391 677 391 581 c 0
 391 574 390 567 389 560 c 2
 303 20 l 2
 301 7 296 2 285 0 c 1
 285 0 225 -10 168 -10 c 0
 72 -10 44 23 44 73 c 0
EndSplineSet
Colour: ffff00
EndChar

StartChar: uni0E45
Encoding: 3653 3653 70
Width: 540
VWidth: 0
Flags: W
HStem: 410 200<118.628 358.5>
VStem: 208 287<249.688 495.5>
LayerCount: 2
Fore
SplineSet
29 524 m 0
 29 526 29 528 29 530 c 0
 31 542 39 549 59 560 c 1
 59 560 152 610 287 610 c 0
 430 610 495 552 495 439 c 0
 495 421 493 401 490 380 c 2
 398 -200 l 2
 395 -222 374 -240 352 -240 c 2
 152 -240 l 2
 132 -240 118 -225 118 -206 c 0
 118 -204 118 -202 118 -200 c 2
 207 360 l 2
 208 366 208 372 208 377 c 0
 208 402 195 410 165 410 c 1
 139 410 115 404 93 395 c 0
 83 391 72 385 61 385 c 0
 50 385 46 393 44 405 c 2
 30 505 l 1
 30 505 29 516 29 524 c 0
EndSplineSet
Colour: ffff00
EndChar

StartChar: uni0E46
Encoding: 3654 3654 71
Width: 600
VWidth: 0
Flags: W
HStem: -250 173<78.6172 180.97> 430 180<242 442.5>
VStem: 291 261<348.823 504>
LayerCount: 2
Fore
SplineSet
39 435 m 2
 62 580 l 2
 63 588 67 594 76 595 c 0
 80 595 87 592 93 587 c 2
 181 516 l 1
 204 544 280 610 392 610 c 0
 493 610 552 543 552 465 c 0
 552 457 551 449 550 440 c 2
 474 -40 l 2
 444 -232 220 -250 95 -250 c 0
 75 -250 71 -243 71 -226 c 0
 71 -224 71 -222 71 -220 c 2
 78 -105 l 1
 81 -87 93 -81 113 -77 c 0
 134 -73 199 -69 208 -10 c 2
 248 240 l 2
 257 298 283 333 290 380 c 0
 291 386 291 391 291 396 c 0
 291 417 282 430 258 430 c 0
 226 430 193 394 171 366 c 0
 166 360 159 345 147 345 c 0
 141 345 126 355 126 355 c 1
 50 410 l 2
 43 415 37 423 39 435 c 2
EndSplineSet
Colour: ffff00
EndChar

StartChar: uni0E0D.descless
Encoding: 60941 60941 72
Width: 1150
VWidth: -360
Flags: W
HStem: -20 180<706.436 791.336> 0 21G<105 328> 440 180<330.135 454.75> 580 20G<894 1105>
VStem: 430 274<163.791 353.047>
LayerCount: 2
Fore
SplineSet
40 499 m 0x68
 40 501 40 503 40 505 c 0
 42 517 51 527 65 535 c 1
 65 535 230 620 418 620 c 0x68
 613 620 732 550 732 412 c 0
 732 399 731 385 729 370 c 2
 705 220 l 2
 704 213 704 207 704 201 c 0
 704 173 716 160 745 160 c 0
 780 160 799 179 805 220 c 2
 859 560 l 2
 862 582 883 600 905 600 c 2
 1095 600 l 2
 1115 600 1129 585 1129 566 c 0
 1129 564 1129 562 1129 560 c 2
 1073 210 l 2
 1053 83 949 -20 717 -20 c 0x98
 509 -20 430 63 430 171 c 0
 430 184 431 197 433 210 c 2
 459 370 l 2
 460 377 461 383 461 389 c 0
 461 424 440 440 390 440 c 0
 374 440 352 439 327 436 c 1
 339 423 348 403 348 377 c 0
 348 371 348 366 347 360 c 2
 314 150 l 1
 344 150 l 2
 358 150 369 139 369 125 c 0
 369 123 369 122 369 120 c 2
 355 30 l 2
 352 14 336 0 320 0 c 2
 140 0 l 2
 70 0 43 32 43 73 c 0
 43 79 43 84 44 90 c 2
 89 370 l 2
 92 390 89 397 81 397 c 1
 76 396 70 395 68 395 c 0
 57 395 53 403 51 415 c 2
 41 480 l 1
 41 480 40 491 40 499 c 0x68
EndSplineSet
Colour: ffff00
EndChar

StartChar: uni0E10.descless
Encoding: 60944 60944 73
Width: 740
VWidth: 0
Flags: W
HStem: -10 350<129.11 288.018> 440 180<165.992 406> 510 168<619.176 744.598>
VStem: 401 272<238.631 408.731>
AnchorPoint: "th-vow-above" 645 660 basechar 0
AnchorPoint: "th-vow-below" 460 0 basechar 0
LayerCount: 2
Fore
SplineSet
25 215 m 0xb0
 25 217 25 218 25 220 c 2
 39 310 l 2
 42 326 58 340 74 340 c 2
 234 340 l 2
 276 340 290 320 296 290 c 2
 320 168 l 1
 356 186 387 233 399 310 c 0
 401 320 401 330 401 339 c 0
 401 405 359 440 280 440 c 0xd0
 224 440 170 427 147 420 c 0
 133 416 108 405 95 405 c 0
 80 405 78 423 75 435 c 2
 56 510 l 1xb0
 56 510 53 522 55 535 c 0
 57 550 63 558 79 565 c 0
 92 570 202 620 378 620 c 0xd0
 434 620 474 608 501 595 c 1
 565 633 661 678 737 678 c 0
 751 678 763 667 763 653 c 0
 763 651 763 650 763 648 c 2
 746 540 l 2
 743 524 727 510 711 510 c 0
 674 510 643 506 618 499 c 1
 644 468 673 416 673 352 c 0
 673 342 673 331 671 320 c 0
 644 149 493 -10 308 -10 c 0
 227 -10 206 -7 158 -3 c 0
 133 -1 122 27 119 40 c 2
 80 190 l 1
 50 190 l 2
 36 190 25 201 25 215 c 0xb0
EndSplineSet
Colour: ffff00
EndChar

StartChar: uni0E3F
Encoding: 3647 3647 74
Width: 820
VWidth: 0
Flags: W
HStem: 350 150<359 454.285>
LayerCount: 2
Fore
SplineSet
6 34 m 0
 6 36 6 38 6 40 c 2
 127 800 l 2
 130 822 151 840 173 840 c 2
 353 840 l 1
 367 930 l 2
 370 946 386 960 402 960 c 2
 552 960 l 2
 566 960 577 949 577 935 c 0
 577 933 577 932 577 930 c 2
 563 837 l 1
 718 820 790 748 790 647 c 0
 790 635 789 623 787 610 c 0
 775 533 729 472 646 434 c 1
 729 400 769 342 769 263 c 0
 769 249 767 235 765 220 c 0
 740 60 577 3 430 0 c 1
 416 -90 l 2
 413 -106 397 -120 381 -120 c 2
 231 -120 l 2
 217 -120 206 -109 206 -95 c 0
 206 -93 206 -92 206 -90 c 2
 220 0 l 1
 40 0 l 2
 20 0 6 15 6 34 c 0
309 180 m 1
 359 180 l 2
 411 180 464 214 471 260 c 0
 472 265 472 270 472 275 c 0
 472 315 447 350 385 350 c 2
 335 350 l 1
 309 180 l 1
359 500 m 1
 409 500 l 2
 453 500 486 542 492 580 c 0
 493 584 493 587 493 591 c 0
 493 626 468 660 425 660 c 2
 385 660 l 1
 359 500 l 1
EndSplineSet
Colour: ffff00
EndChar

StartChar: uni0E4E
Encoding: 3662 3662 75
Width: 0
VWidth: 0
Flags: W
HStem: 660 85<-293.184 -156.488> 673 79<-211.256 -157.311> 830 60<-211.531 -166.096> 960 90<-208.625 -95.4219>
VStem: -388 132<748.205 818.575> -343 130<893.419 954.238>
AnchorPoint: "th-vow-above" -95 660 mark 0
LayerCount: 2
Fore
SplineSet
-388 757 m 0xb8
 -388 763 -388 769 -387 775 c 0
 -380 818 -356 847 -316 864 c 1
 -333 877 -343 896 -343 920 c 0
 -343 925 -343 930 -342 935 c 0
 -331 1005 -267 1050 -174 1050 c 0
 -117 1050 -79 1026 -61 1002 c 0
 -59 999 -58 995 -58 992 c 0
 -58 986 -62 980 -65 977 c 2
 -96 943 l 2
 -100 939 -104 935 -107 935 c 0
 -110 935 -112 938 -117 944 c 0
 -126 952 -138 960 -159 960 c 0
 -193 960 -213 941 -213 920 c 0xb4
 -213 900 -189 890 -161 890 c 0
 -152 890 -151 884 -153 879 c 2
 -166 839 l 2
 -168 833 -173 830 -184 830 c 0
 -208 830 -250 820 -256 785 c 0
 -256 783 -256 780 -256 778 c 0
 -256 756 -238 745 -212 745 c 1xb8
 -196 745 -188 746 -182 748 c 0
 -177 750 -172 752 -166 752 c 0
 -160 752 -159 745 -159 741 c 2
 -154 698 l 2
 -153 695 -154 691 -155 685 c 0
 -156 680 -162 675 -170 673 c 0x78
 -192 667 -218 660 -265 660 c 0
 -331 660 -388 693 -388 757 c 0xb8
EndSplineSet
Colour: ffff00
EndChar

StartChar: uni0E4F
Encoding: 3663 3663 76
Width: 760
VWidth: 0
Flags: W
HStem: -20 80<227.816 443.103> 150 300<304.337 430.755> 540 80<296.407 507.731>
VStem: 44 91<153.427 372.352> 601 91<227.648 446.573>
CounterMasks: 1 e0
LayerCount: 2
Fore
SplineSet
44 245 m 0
 44 263 45 281 48 300 c 0
 76 477 229 620 418 620 c 0
 587 620 692 505 692 354 c 0
 692 336 691 318 688 300 c 0
 660 123 506 -20 317 -20 c 0
 148 -20 44 94 44 245 c 0
135 257 m 0
 135 145 208 60 330 60 c 1
 467 60 577 167 598 300 c 0
 600 315 601 329 601 343 c 0
 601 455 528 540 406 540 c 0
 269 540 159 433 138 300 c 0
 136 285 135 271 135 257 c 0
216 276 m 0
 216 284 217 292 218 300 c 0
 231 383 308 450 391 450 c 0
 466 450 520 395 520 323 c 0
 520 315 519 308 518 300 c 0
 505 217 427 150 344 150 c 0
 269 150 216 204 216 276 c 0
EndSplineSet
Colour: ffff00
EndChar

StartChar: uni0E50
Encoding: 3664 3664 77
Width: 780
VWidth: 0
Flags: W
HStem: -20 210<297.526 429.922> 410 210<325.326 457.803>
LayerCount: 2
Fore
SplineSet
14 249 m 0
 14 266 15 283 18 300 c 0
 46 477 208 620 428 620 c 0
 627 620 742 504 742 351 c 0
 742 335 741 317 738 300 c 0
 710 123 547 -20 327 -20 c 0
 129 -20 14 96 14 249 c 0
276 275 m 0
 276 225 303 190 360 190 c 0
 426 190 468 237 478 300 c 0
 479 308 480 317 480 325 c 0
 480 375 452 410 395 410 c 0
 329 410 288 363 278 300 c 0
 277 291 276 283 276 275 c 0
EndSplineSet
Colour: ffff00
EndChar

StartChar: uni0E51
Encoding: 3665 3665 78
Width: 780
VWidth: 0
Flags: W
HStem: 410 210<318.901 457.803>
VStem: 15 266<271.866 372.352> 480 262<217.19 386.144>
LayerCount: 2
Fore
SplineSet
15 257 m 0
 15 270 16 285 18 300 c 0
 46 477 208 620 428 620 c 0
 627 620 742 504 742 351 c 0
 742 335 741 317 738 300 c 0
 707 107 585 2 444 -71 c 0
 436 -75 428 -80 418 -80 c 0
 406 -80 396 -73 390 -63 c 2
 331 37 l 2
 327 44 324 52 325 60 c 0
 327 72 334 83 346 91 c 0
 400 127 459 179 478 300 c 0
 479 308 480 317 480 325 c 0
 480 375 452 410 395 410 c 0
 329 410 288 367 281 320 c 0
 280 316 281 312 281 309 c 0
 281 283 296 270 323 270 c 0
 335 270 344 275 352 275 c 0
 362 275 366 268 365 250 c 2
 361 151 l 1
 359 136 347 123 331 116 c 0
 301 102 257 90 204 90 c 0
 101 90 15 140 15 257 c 0
EndSplineSet
Colour: ffff00
EndChar

StartChar: uni0E52
Encoding: 3666 3666 79
Width: 870
VWidth: 0
Flags: W
HStem: 0 180<289 559> 430 180<541 738.5>
VStem: 591 249<276.25 500>
LayerCount: 2
Fore
SplineSet
6 34 m 0
 6 36 6 38 6 40 c 2
 112 710 l 2
 115 732 137 750 159 750 c 2
 339 750 l 2
 359 750 372 735 372 716 c 0
 372 714 372 712 372 710 c 2
 289 180 l 1
 559 180 l 1
 589 370 l 2
 590 377 591 383 591 389 c 0
 591 413 582 430 558 430 c 0
 524 430 493 398 471 370 c 0
 466 364 460 355 448 355 c 0
 442 355 430 365 430 365 c 1
 378 410 l 2
 371 415 365 423 367 435 c 2
 390 579 l 2
 391 587 396 594 405 595 c 0
 409 595 414 590 420 584 c 2
 480 520 l 1
 510 554 577 610 687 610 c 0
 790 610 840 543 840 457 c 0
 840 445 839 433 837 420 c 2
 776 40 l 2
 773 18 752 0 730 0 c 2
 40 0 l 2
 20 0 6 15 6 34 c 0
EndSplineSet
Colour: ffff00
EndChar

StartChar: uni0E53
Encoding: 3667 3667 80
Width: 840
VWidth: 0
Flags: W
HStem: -10 190<291.75 361.32> 0 21G<500 701> 590 10G<240.5 345.5 582 795>
VStem: 13 260<197.685 346.931>
LayerCount: 2
Fore
SplineSet
13 236 m 0xb0
 13 257 15 278 18 300 c 0
 45 470 164 610 317 610 c 0
 374 610 387 570 387 570 c 1
 442 452 l 1
 441 450 l 1
 532 560 l 2
 551 584 569 600 595 600 c 2
 785 600 l 2
 805 600 819 585 819 566 c 0
 819 564 819 562 819 560 c 2
 736 40 l 2
 733 18 712 0 690 0 c 2
 510 0 l 2x70
 490 0 476 15 476 34 c 0
 476 36 476 38 476 40 c 2
 530 380 l 1
 486 320 l 2
 463 291 451 280 434 280 c 2
 414 280 l 1
 391 280 l 2
 374 280 366 291 353 320 c 2
 323 380 l 1
 300 361 281 324 274 280 c 0
 273 275 273 269 273 264 c 0
 273 221 301 180 339 180 c 0
 355 180 369 175 371 160 c 2
 381 55 l 1
 381 55 382 44 381 38 c 0
 379 24 372 15 362 10 c 0
 348 2 302 -10 248 -10 c 0
 93 -10 13 96 13 236 c 0xb0
EndSplineSet
Colour: ffff00
EndChar

StartChar: uni0E54
Encoding: 3668 3668 81
Width: 760
VWidth: 0
Flags: W
HStem: 0 180<293.657 395.194 569 631.057> 440 180<338.659 514.58>
VStem: 14 261<197.148 364.568>
LayerCount: 2
Fore
SplineSet
14 251 m 0
 14 267 15 283 18 300 c 0
 46 477 188 620 408 620 c 0
 496 620 549 652 568 710 c 0
 575 732 593 750 615 750 c 2
 764 750 l 2
 784 750 797 735 797 716 c 0
 797 714 797 712 797 710 c 0
 772 550 609 440 420 440 c 0
 335 440 291 380 278 300 c 0
 276 287 275 274 275 263 c 0
 275 205 304 180 359 180 c 2
 389 180 l 1
 395 218 414 250 433 270 c 0
 449 286 468 300 488 300 c 2
 613 300 l 2
 629 300 631 294 630 287 c 0
 629 280 622 274 618 270 c 0
 598 247 574 213 569 180 c 1
 619 180 l 2
 639 180 652 165 652 146 c 0
 652 144 652 142 652 140 c 2
 636 40 l 2
 633 18 612 0 590 0 c 2
 330 0 l 2
 131 0 14 101 14 251 c 0
EndSplineSet
Colour: ffff00
EndChar

StartChar: uni0E55
Encoding: 3669 3669 82
Width: 760
VWidth: 0
Flags: W
HStem: 0 180<293.657 395.194 569 631.057> 440 140<346.472 426.494> 670 90<351.486 432.545>
VStem: 14 261<197.148 369.847> 237 106<582.365 659.553> 435 106<613.705 666.971>
LayerCount: 2
Fore
SplineSet
14 251 m 0xf4
 14 267 15 283 18 300 c 0
 39 432 123 523 245 561 c 1
 240 573 237 588 237 604 c 0xec
 237 611 238 618 239 625 c 0
 251 702 322 760 410 760 c 0
 490 760 541 712 541 646 c 0
 541 639 540 632 539 625 c 0
 538 621 538 617 537 613 c 1
 569 635 588 667 600 710 c 0
 606 732 625 750 647 750 c 2
 764 750 l 2
 784 750 797 735 797 716 c 0
 797 714 797 712 797 710 c 1
 754 554 622 440 420 440 c 0
 335 440 291 380 278 300 c 0
 276 287 275 274 275 263 c 0
 275 205 304 180 359 180 c 2
 389 180 l 1
 395 218 414 250 433 270 c 0
 449 286 468 300 488 300 c 2
 613 300 l 2
 629 300 631 294 630 287 c 0
 629 280 622 274 618 270 c 0
 598 247 574 213 569 180 c 1
 619 180 l 2
 639 180 652 165 652 146 c 0
 652 144 652 142 652 140 c 2
 636 40 l 2
 633 18 612 0 590 0 c 2
 330 0 l 2
 131 0 14 101 14 251 c 0xf4
343 618 m 0
 343 596 359 580 382 580 c 0
 407 580 430 600 434 625 c 0
 434 627 435 630 435 632 c 0
 435 654 419 670 396 670 c 0
 371 670 348 650 344 625 c 0
 344 623 343 620 343 618 c 0
EndSplineSet
Colour: ffff00
EndChar

StartChar: uni0E56
Encoding: 3670 3670 83
Width: 760
VWidth: 0
Flags: W
HStem: -20 180<287.978 400.078> 440 180<322.541 433.95>
VStem: 7 270<105.5 244.476> 461 262<227.719 412.544>
LayerCount: 2
Fore
SplineSet
7 158 m 0
 7 165 8 173 9 180 c 0
 20 250 65 300 148 300 c 2
 258 300 l 2
 271 300 287 295 287 276 c 0
 287 274 286 272 286 270 c 0
 285 266 280 249 279 244 c 0
 278 237 277 230 277 224 c 0
 277 187 295 160 335 160 c 0
 401 160 445 217 458 300 c 0
 460 313 461 325 461 337 c 0
 461 398 431 440 360 440 c 0
 153 440 62 519 62 653 c 0
 62 671 64 690 67 710 c 0
 70 732 92 750 114 750 c 2
 262 750 l 2
 284 750 294 732 295 710 c 0
 296 652 323 620 428 620 c 0
 624 620 723 507 723 358 c 0
 723 339 721 320 718 300 c 0
 690 123 527 -20 307 -20 c 0
 129 -20 7 53 7 158 c 0
EndSplineSet
Colour: ffff00
EndChar

StartChar: uni0E57
Encoding: 3671 3671 84
Width: 1105
VWidth: 0
Flags: W
HStem: -10 190<291.75 361.32> 0 21G<500 780> 590 10G<240.5 345.5 582 765 894 1065>
VStem: 13 260<197.685 346.931>
LayerCount: 2
Fore
SplineSet
13 236 m 0xb0
 13 257 15 278 18 300 c 0
 45 470 164 610 317 610 c 0
 374 610 387 570 387 570 c 1
 442 452 l 1
 441 450 l 1
 532 560 l 2
 551 584 569 600 595 600 c 2
 755 600 l 2
 775 600 789 585 789 566 c 0
 789 564 789 562 789 560 c 2
 729 183 l 1
 777 193 807 230 818 300 c 2
 859 560 l 2
 862 582 883 600 905 600 c 2
 1055 600 l 2
 1075 600 1089 585 1089 566 c 0
 1089 564 1089 562 1089 560 c 2
 1048 300 l 2
 1020 123 890 0 670 0 c 2
 510 0 l 2x70
 490 0 476 15 476 34 c 0
 476 36 476 38 476 40 c 2
 530 380 l 1
 486 320 l 2
 463 291 451 280 434 280 c 2
 414 280 l 1
 391 280 l 2
 374 280 366 291 353 320 c 2
 323 380 l 1
 300 361 281 324 274 280 c 0
 273 275 273 269 273 264 c 0
 273 221 301 180 339 180 c 0
 355 180 369 175 371 160 c 2
 381 55 l 1
 381 55 382 44 381 38 c 0
 379 24 372 15 362 10 c 0
 348 2 302 -10 248 -10 c 0
 93 -10 13 96 13 236 c 0xb0
EndSplineSet
Colour: ffff00
EndChar

StartChar: uni0E58
Encoding: 3672 3672 85
Width: 820
VWidth: 0
Flags: W
HStem: -20 21G<198 256 478 539.5> 440 180<338.659 547.913>
VStem: 14 241<187.006 356.715> 539 232<185.906 275.301>
LayerCount: 2
Fore
SplineSet
14 247 m 0
 14 264 15 281 18 300 c 0
 46 477 188 620 408 620 c 0
 548 620 578 652 597 710 c 0
 604 732 622 750 644 750 c 2
 814 750 l 2
 834 750 847 735 847 716 c 0
 847 714 847 712 847 710 c 0
 818 529 693 440 420 440 c 0
 335 440 271 380 258 300 c 0
 256 286 255 273 255 260 c 0
 255 225 264 197 282 180 c 1
 370 280 l 1
 370 280 385 300 403 300 c 2
 418 300 l 1
 433 300 l 2
 451 300 458 280 458 280 c 1
 512 185 l 1
 526 201 535 221 539 244 c 0
 540 249 539 266 540 270 c 0
 544 294 564 300 578 300 c 2
 668 300 l 2
 740 300 771 262 771 207 c 0
 771 198 770 189 769 180 c 0
 750 58 592 -20 487 -20 c 0
 469 -20 458 0 458 0 c 1
 389 120 l 1
 282 0 l 1
 282 0 265 -20 247 -20 c 0
 149 -20 14 78 14 247 c 0
EndSplineSet
Colour: ffff00
EndChar

StartChar: uni0E59
Encoding: 3673 3673 86
Width: 880
VWidth: 0
Flags: W
HStem: 0 21G<470.5 632.5> 590 20G<299.5 451>
VStem: 10 262<175.292 355.07>
LayerCount: 2
Fore
SplineSet
10 225 m 0
 10 243 11 261 14 280 c 0
 43 464 192 610 407 610 c 0
 495 610 535 600 535 600 c 1
 563 600 572 570 573 557 c 1
 586 482 l 1
 638 501 666 541 675 600 c 2
 692 710 l 2
 695 732 717 750 739 750 c 2
 889 750 l 2
 909 750 922 735 922 716 c 0
 922 714 922 712 922 710 c 2
 905 600 l 2
 882 452 780 335 618 300 c 1
 662 45 l 2
 663 40 665 29 664 25 c 0
 662 10 645 0 620 0 c 2
 485 0 l 2
 456 0 444 13 441 40 c 2
 388 430 l 1
 340 430 289 370 276 290 c 0
 273 273 272 258 272 245 c 0
 272 195 290 170 317 170 c 0
 333 170 348 165 350 150 c 2
 361 55 l 1
 361 55 362 44 361 38 c 0
 359 24 352 15 342 10 c 0
 328 2 282 -10 228 -10 c 0
 97 -10 10 87 10 225 c 0
EndSplineSet
Colour: ffff00
EndChar

StartChar: uni0E5A
Encoding: 3674 3674 87
Width: 900
VWidth: 0
Flags: W
HStem: 0 21G<323 488 593 758> 290 170<141.5 306.991> 580 20G<84 235 437 582 687 852>
VStem: 35 224<414.422 584.424>
LayerCount: 2
Fore
SplineSet
35 455 m 0
 35 467 36 478 38 490 c 1
 49 560 l 2
 52 582 73 600 95 600 c 2
 225 600 l 2
 245 600 259 585 259 566 c 0
 259 564 259 562 259 560 c 2
 256 540 l 2
 255 531 254 523 254 516 c 0
 254 474 277 460 303 460 c 0
 342 460 380 490 405 535 c 1
 410 570 l 2
 413 586 429 600 445 600 c 2
 575 600 l 2
 589 600 600 589 600 575 c 0
 600 573 600 572 600 570 c 2
 515 30 l 2
 512 14 496 0 480 0 c 2
 330 0 l 2
 316 0 305 11 305 25 c 0
 305 27 305 28 305 30 c 2
 355 349 l 1
 319 317 266 290 196 290 c 0
 87 290 35 366 35 455 c 0
575 25 m 0
 575 27 575 28 575 30 c 2
 660 570 l 2
 663 586 679 600 695 600 c 2
 845 600 l 2
 859 600 870 589 870 575 c 0
 870 573 870 572 870 570 c 2
 785 30 l 2
 782 14 766 0 750 0 c 2
 600 0 l 2
 586 0 575 11 575 25 c 0
EndSplineSet
Colour: ffff00
EndChar

StartChar: uni0E5B
Encoding: 3675 3675 88
Width: 1110
VWidth: 0
Flags: W
HStem: -20 80<197.816 417.165> 150 300<274.337 400.755> 260 80<972 1065.09> 540 80<266.407 482.474>
VStem: 14 91<153.427 372.352> 642 86<453.021 539.993>
LayerCount: 2
Fore
SplineSet
14 245 m 0xbc
 14 263 15 281 18 300 c 0
 46 477 199 620 388 620 c 0
 476 620 534 592 581 545 c 0
 584 541 587 536 586 530 c 0
 585 525 584 519 580 515 c 2
 549 485 l 2
 544 480 541 480 536 480 c 0
 531 480 526 482 522 485 c 0
 487 519 439 540 376 540 c 0
 239 540 129 433 108 300 c 0
 106 285 105 271 105 257 c 0
 105 145 178 60 300 60 c 1
 451 60 541 158 588 300 c 0
 610 366 630 448 642 520 c 0
 644 531 655 540 666 540 c 2
 711 540 l 2
 722 540 726 532 728 520 c 2
 766 217 l 1
 867 430 l 2
 873 442 880 450 891 450 c 2
 933 450 l 2xdc
 944 450 949 442 951 430 c 2
 972 340 l 1
 1054 340 l 2
 1065 340 1073 331 1071 320 c 2
 1064 280 l 2
 1062 269 1052 260 1041 260 c 2
 934 260 l 2
 923 260 918 268 916 280 c 2
 900 349 l 1
 793 110 l 2
 787 98 780 90 769 90 c 2
 719 90 l 2
 708 90 703 98 701 110 c 2
 674 322 l 1
 672 314 670 307 668 300 c 0
 610 108 488 -20 287 -20 c 0
 118 -20 14 94 14 245 c 0xbc
186 276 m 0
 186 284 187 292 188 300 c 0
 201 383 278 450 361 450 c 0
 436 450 490 395 490 323 c 0
 490 315 489 308 488 300 c 0
 475 217 397 150 314 150 c 0
 239 150 186 204 186 276 c 0
EndSplineSet
Colour: ffff00
EndChar

StartChar: o
Encoding: 111 111 91
Width: 760
VWidth: 0
Flags: W
HStem: -20 210<316.039 412.994> 410 210<320.634 438.947>
LayerCount: 2
Fore
SplineSet
14 248 m 0
 14 265 15 282 18 300 c 0
 46 477 204 620 418 620 c 0
 611 620 722 504 722 352 c 0
 722 335 721 318 718 300 c 0
 690 123 531 -20 317 -20 c 0
 125 -20 14 96 14 248 c 0
276 274 m 0
 276 225 326 217 350 190 c 1
 407 190 448 237 458 300 c 0
 459 309 460 317 460 325 c 0
 460 375 434 410 385 410 c 0
 328 410 288 363 278 300 c 0
 277 291 276 282 276 274 c 0
EndSplineSet
Colour: ffff00
EndChar

StartChar: c
Encoding: 99 99 92
Width: 650
VWidth: 0
Flags: W
HStem: -20 200<221 487.953> 420 200<357.517 563.876>
LayerCount: 2
Fore
SplineSet
14 248 m 0
 14 265 15 282 18 300 c 0
 46 477 204 620 418 620 c 0
 541 620 596 587 612 580 c 0
 629 573 646 560 646 544 c 0
 646 530 636 520 631 510 c 2
 577 420 l 2
 570 408 562 395 548 395 c 0
 532 395 523 407 491 415 c 0
 478 418 461 420 437 420 c 0
 368 420 310 373 298 300 c 0
 297 292 296 284 296 277 c 0
 296 217 338 180 399 180 c 0
 423 180 441 182 454 185 c 0
 488 193 501 205 517 205 c 0
 531 205 536 192 539 180 c 2
 564 90 l 2
 567 81 572 72 570 60 c 0
 567 42 543 28 523 20 c 0
 505 13 440 -20 317 -20 c 0
 125 -20 14 96 14 248 c 0
EndSplineSet
Colour: ffff00
EndChar

StartChar: l
Encoding: 108 108 93
Width: 400
VWidth: 0
Flags: W
HStem: -10 850<133.55 282.232>
VStem: 14 394
LayerCount: 2
Fore
SplineSet
14 73 m 0
 14 81 15 91 16 100 c 2
 127 800 l 2
 130 822 151 840 173 840 c 2
 373 840 l 2
 393 840 408 825 408 806 c 0
 408 804 407 802 407 800 c 2
 283 20 l 2
 281 7 276 2 265 0 c 1
 265 0 200 -10 138 -10 c 0
 42 -10 14 23 14 73 c 0
EndSplineSet
Colour: ffff00
EndChar

StartChar: u
Encoding: 117 117 94
Width: 775
VWidth: 0
Flags: W
HStem: -10 210<146 364.5> 0 21G<435 636> 580 20G<109 330 509 730>
VStem: 16 290<113 358.438>
LayerCount: 2
Fore
SplineSet
16 171 m 0xb0
 16 187 17 203 20 220 c 2
 74 560 l 2
 77 582 98 600 120 600 c 2
 320 600 l 2
 340 600 354 585 354 566 c 0
 354 564 354 562 354 560 c 2
 309 280 l 2
 307 267 306 256 306 247 c 0
 306 212 320 200 347 200 c 0xb0
 382 200 408 226 427 267 c 1
 474 560 l 2
 477 582 498 600 520 600 c 2
 720 600 l 2
 740 600 754 585 754 566 c 0
 754 564 754 562 754 560 c 2
 671 40 l 2
 668 18 647 0 625 0 c 2
 445 0 l 2x70
 425 0 411 15 411 34 c 0
 411 36 411 38 411 40 c 2
 421 102 l 1
 386 56 316 -10 203 -10 c 0
 89 -10 16 55 16 171 c 0xb0
EndSplineSet
Colour: ffff00
EndChar

StartChar: a
Encoding: 97 97 95
Width: 740
VWidth: 0
Flags: W
HStem: -10 140<123 337> 0 21G<420 611> 230 140<176 373.717> 440 180<190.861 506.137>
VStem: 428 275<312.523 486.893>
LayerCount: 2
Fore
SplineSet
-4 145 m 0xb8
 -4 156 -3 168 -1 180 c 0
 16 288 103 370 249 370 c 0
 346 370 396 335 419 311 c 1
 427 360 l 2
 428 365 428 370 428 375 c 0
 428 424 381 440 310 440 c 0
 261 440 199 427 166 415 c 0
 152 410 127 400 114 400 c 0
 99 400 97 418 94 430 c 2
 76 510 l 1
 76 510 73 522 75 535 c 0
 77 550 83 558 99 565 c 0
 112 570 232 620 408 620 c 0
 600 620 703 552 703 418 c 0
 703 403 702 387 699 370 c 2
 646 40 l 2
 643 18 622 0 600 0 c 2
 430 0 l 2x78
 410 0 396 15 396 34 c 0
 396 36 396 38 396 40 c 2
 401 70 l 1
 401 70 334 -10 188 -10 c 0
 58 -10 -4 55 -4 145 c 0xb8
268 170 m 0
 268 142 292 130 321 130 c 0xb8
 353 130 374 138 394 152 c 1
 403 208 l 1
 387 222 368 230 336 230 c 0
 304 230 275 215 269 180 c 0
 268 177 268 173 268 170 c 0
EndSplineSet
Substitution2: "'aalt' Latin Access All Alternates" a.alt
Substitution2: "'ss20' Latin a & g alt" a.alt
Substitution2: "'ss19' Latin a alt" a.alt
Colour: ffff00
EndChar

StartChar: d
Encoding: 100 100 96
Width: 800
VWidth: 0
Flags: W
HStem: -10 190<179.5 388> 0 21G<460 651> 420 190<345.897 453.726> 820 20G<572 783>
LayerCount: 2
Fore
SplineSet
13 241 m 0xb0
 13 260 15 280 18 300 c 0
 45 471 179 610 357 610 c 0
 424 610 467 583 496 544 c 1
 537 800 l 2
 540 822 561 840 583 840 c 2
 773 840 l 2
 793 840 807 825 807 806 c 0
 807 804 807 802 807 800 c 2
 686 40 l 2
 683 18 662 0 640 0 c 2
 470 0 l 2x70
 450 0 436 15 436 34 c 0
 436 36 436 38 436 40 c 2
 443 82 l 1
 400 29 339 -10 258 -10 c 0
 101 -10 13 98 13 241 c 0xb0
295 269 m 0
 295 210 328 180 369 180 c 0xb0
 407 180 430 198 446 228 c 1
 469 372 l 1
 463 402 445 420 407 420 c 0
 359 420 311 380 298 300 c 0
 296 289 295 279 295 269 c 0
EndSplineSet
Colour: ffff00
EndChar

StartChar: b
Encoding: 98 98 97
Width: 800
VWidth: 0
Flags: W
HStem: -10 190<320.201 429.604> 0 21G<30 221> 420 190<388 595.5> 820 20G<162 373>
LayerCount: 2
Fore
SplineSet
6 34 m 0x70
 6 36 6 38 6 40 c 2
 127 800 l 2
 130 822 151 840 173 840 c 2
 363 840 l 2
 383 840 397 825 397 806 c 0
 397 804 397 802 397 800 c 2
 356 544 l 1
 397 583 450 610 517 610 c 0
 674 610 763 502 763 359 c 0
 763 340 761 320 758 300 c 0
 731 129 596 -10 418 -10 c 0xb0
 337 -10 290 29 263 82 c 1
 256 40 l 2
 253 18 232 0 210 0 c 2
 40 0 l 2
 20 0 6 15 6 34 c 0x70
306 228 m 1
 312 198 331 180 369 180 c 0
 417 180 465 220 478 300 c 0
 480 311 481 321 481 331 c 0
 481 390 448 420 407 420 c 0
 369 420 345 402 329 372 c 1
 306 228 l 1
EndSplineSet
Colour: ffff00
EndChar

StartChar: e
Encoding: 101 101 98
Width: 730
VWidth: 0
Flags: W
HStem: -20 180<298.508 483.996> 240 110<279 456.999> 440 180<320.925 442.441>
VStem: 457 239<350 426.022>
LayerCount: 2
Fore
SplineSet
14 248 m 0
 14 265 15 282 18 300 c 0
 46 477 204 620 418 620 c 0
 574 620 696 537 696 376 c 0
 696 358 694 340 691 320 c 0
 684 275 669 240 638 240 c 2
 268 240 l 1
 278 189 317 160 385 160 c 0
 434 160 464 167 477 170 c 0
 511 178 524 190 540 190 c 0
 554 190 558 177 561 165 c 2
 581 100 l 2
 584 91 588 82 586 70 c 0
 583 52 560 41 540 30 c 0
 521 20 447 -20 317 -20 c 0
 125 -20 14 96 14 248 c 0
279 350 m 1
 455 350 l 1
 456 357 457 364 457 371 c 0
 457 412 435 440 390 440 c 0
 339 440 300 409 279 350 c 1
EndSplineSet
Colour: ffff00
EndChar

StartChar: q
Encoding: 113 113 99
Width: 800
VWidth: 0
Flags: W
HStem: -10 190<179.5 388> 420 190<345.897 454.574> 580 20G<554 745>
LayerCount: 2
Fore
SplineSet
13 241 m 0xa0
 13 260 15 280 18 300 c 0
 45 471 179 610 357 610 c 0xc0
 438 610 485 571 512 518 c 1
 519 560 l 2
 522 582 543 600 565 600 c 2
 735 600 l 2
 755 600 769 585 769 566 c 0
 769 564 769 562 769 560 c 2
 648 -200 l 2
 645 -222 624 -240 602 -240 c 2
 412 -240 l 2
 392 -240 378 -225 378 -206 c 0
 378 -204 378 -202 378 -200 c 2
 419 56 l 1
 378 17 325 -10 258 -10 c 0
 101 -10 13 98 13 241 c 0xa0
295 269 m 0
 295 210 328 180 369 180 c 0
 407 180 430 198 446 228 c 1
 469 372 l 1
 463 402 445 420 407 420 c 0
 359 420 311 380 298 300 c 0
 296 289 295 279 295 269 c 0
EndSplineSet
Colour: ffff00
EndChar

StartChar: p
Encoding: 112 112 100
Width: 800
VWidth: 0
Flags: W
HStem: -10 190<321.466 429.604> 420 190<388 595.5> 580 20G<124 315>
LayerCount: 2
Fore
SplineSet
-32 -200 m 2xc0
 89 560 l 2
 92 582 113 600 135 600 c 2
 305 600 l 2xa0
 325 600 339 585 339 566 c 0
 339 564 339 562 339 560 c 2
 332 518 l 1
 375 571 436 610 517 610 c 0
 674 610 763 502 763 359 c 0
 763 340 761 320 758 300 c 0
 731 129 596 -10 418 -10 c 0
 351 -10 308 17 279 56 c 1
 238 -200 l 2
 235 -222 214 -240 192 -240 c 2
 2 -240 l 2
 -18 -240 -32 -225 -32 -206 c 0
 -32 -204 -32 -202 -32 -200 c 2xc0
306 228 m 1
 312 198 331 180 369 180 c 0
 417 180 465 220 478 300 c 0
 480 311 481 321 481 331 c 0
 481 390 448 420 407 420 c 0xc0
 369 420 345 402 329 372 c 1
 306 228 l 1
EndSplineSet
Colour: ffff00
EndChar

StartChar: n
Encoding: 110 110 101
Width: 775
VWidth: 0
Flags: W
HStem: 0 21G<20 241 420 641> 400 210<385.5 604> 580 20G<114 315>
VStem: 444 290<241.562 487>
LayerCount: 2
Fore
SplineSet
-4 34 m 0xd0
 -4 36 -4 38 -4 40 c 2
 79 560 l 2
 82 582 103 600 125 600 c 2
 305 600 l 2xb0
 325 600 339 585 339 566 c 0
 339 564 339 562 339 560 c 2
 329 498 l 1
 364 544 434 610 547 610 c 0
 661 610 734 545 734 429 c 0
 734 413 733 397 730 380 c 2
 676 40 l 2
 673 18 652 0 630 0 c 2
 430 0 l 2
 410 0 396 15 396 34 c 0
 396 36 396 38 396 40 c 2
 441 320 l 2
 443 333 444 344 444 353 c 0
 444 388 430 400 403 400 c 0
 368 400 342 374 323 333 c 1
 276 40 l 2
 273 18 252 0 230 0 c 2
 30 0 l 2
 10 0 -4 15 -4 34 c 0xd0
EndSplineSet
Colour: ffff00
EndChar

StartChar: h
Encoding: 104 104 102
Width: 785
VWidth: 0
Flags: W
HStem: 0 21G<30 251 430 651> 400 210<395.5 614> 820 20G<162 373>
VStem: 454 290<241.562 487>
LayerCount: 2
Fore
SplineSet
6 34 m 0
 6 36 6 38 6 40 c 2
 127 800 l 2
 130 822 151 840 173 840 c 2
 363 840 l 2
 383 840 397 825 397 806 c 0
 397 804 397 802 397 800 c 2
 351 513 l 1
 389 558 456 610 557 610 c 0
 671 610 744 545 744 429 c 0
 744 413 743 397 740 380 c 2
 686 40 l 2
 683 18 662 0 640 0 c 2
 440 0 l 2
 420 0 406 15 406 34 c 0
 406 36 406 38 406 40 c 2
 451 320 l 2
 453 333 454 344 454 353 c 0
 454 388 440 400 413 400 c 0
 378 400 352 374 333 333 c 1
 286 40 l 2
 283 18 262 0 240 0 c 2
 40 0 l 2
 20 0 6 15 6 34 c 0
EndSplineSet
Colour: ffff00
EndChar

StartChar: s
Encoding: 115 115 103
Width: 630
VWidth: 0
Flags: W
HStem: -20 155<124.639 283.195> 465 155<323.598 486.131>
VStem: 43 276<344 457.961> 286 286<139.459 258.5>
LayerCount: 2
Fore
SplineSet
-6 58 m 0xd0
 -6 60 -5 63 -5 65 c 0
 -3 77 6 91 11 100 c 2
 50 160 l 2
 57 172 64 183 79 183 c 0
 93 183 109 167 130 158 c 0
 156 146 195 135 226 135 c 0
 260 135 286 143 286 169 c 0xd0
 286 186 268 195 242 205 c 0
 219 214 184 228 158 240 c 0
 109 263 43 304 43 384 c 0
 43 392 44 401 45 410 c 0
 65 537 191 620 358 620 c 0
 491 620 558 583 576 575 c 0
 594 568 606 557 606 543 c 0
 606 531 597 519 591 510 c 2
 550 445 l 2
 543 433 533 425 522 425 c 0
 511 425 499 433 485 440 c 0
 454 455 421 465 384 465 c 0
 348 465 319 457 319 432 c 0xe0
 319 415 340 405 363 395 c 0
 384 386 422 370 447 360 c 0
 499 339 572 301 572 216 c 0
 572 208 571 200 570 191 c 0
 547 45 393 -20 247 -20 c 0
 125 -20 37 20 19 28 c 0
 3 35 -6 44 -6 58 c 0xd0
EndSplineSet
Colour: ffff00
EndChar

StartChar: i
Encoding: 105 105 104
Width: 400
VWidth: 0
Flags: W
HStem: 0 21G<30 251> 580 20G<124 345> 660 180<149.24 368.082>
VStem: 6 382
LayerCount: 2
Fore
SplineSet
6 34 m 0
 6 36 6 38 6 40 c 2
 89 560 l 2
 92 582 113 600 135 600 c 2
 335 600 l 2
 355 600 369 585 369 566 c 0
 369 564 369 562 369 560 c 2
 286 40 l 2
 283 18 262 0 240 0 c 2
 40 0 l 2
 20 0 6 15 6 34 c 0
129 685 m 0
 129 687 129 688 129 690 c 2
 148 810 l 2
 151 826 167 840 183 840 c 2
 363 840 l 2
 377 840 388 829 388 815 c 0
 388 813 388 812 388 810 c 2
 369 690 l 2
 366 674 351 660 335 660 c 2
 155 660 l 2
 141 660 129 671 129 685 c 0
EndSplineSet
Colour: ffff00
EndChar

StartChar: z
Encoding: 122 122 105
Width: 680
VWidth: 0
Flags: W
HStem: 0 160<335 593.796> 440 160<81.2043 320>
LayerCount: 2
Fore
SplineSet
-25 24 m 0
 -25 26 -25 28 -25 30 c 2
 -12 115 l 2
 -8 142 17 161 27 170 c 2
 320 440 l 1
 90 440 l 2
 76 440 64 451 64 465 c 0
 64 467 64 468 64 470 c 2
 80 570 l 2
 83 586 99 600 115 600 c 2
 635 600 l 2
 649 600 660 592 660 576 c 0
 660 574 660 572 660 570 c 2
 646 480 l 2
 642 453 617 434 607 425 c 2
 335 160 l 1
 585 160 l 2
 599 160 611 149 611 135 c 0
 611 133 611 132 611 130 c 2
 595 30 l 2
 592 14 576 0 560 0 c 2
 0 0 l 2
 -14 0 -25 8 -25 24 c 0
EndSplineSet
Colour: ffff00
EndChar

StartChar: g
Encoding: 103 103 106
Width: 680
VWidth: 0
Flags: W
HStem: -280 150<11.9602 261.641> 160 150<273.906 351.445> 450 150<613 704.812> 470 150<291.838 369.851>
VStem: 8 185<-5 146.5> 29 241<314.05 451.143> 263 299<-112.229 11.5>
LayerCount: 2
Fore
SplineSet
-50 -224 m 0xea
 -50 -211 -41 -195 -41 -195 c 1
 -1 -120 l 2
 3 -111 10 -100 24 -100 c 0
 44 -100 50 -110 86 -120 c 0
 107 -126 146 -130 169 -130 c 0
 234 -130 263 -123 263 -100 c 0
 263 -87 251 -80 227 -80 c 2
 162 -80 l 2
 83 -80 8 -46 8 36 c 0xea
 8 44 9 52 10 60 c 0
 20 120 59 168 112 202 c 1
 57 235 29 287 29 352 c 0
 29 364 30 377 32 390 c 0
 54 528 178 620 358 620 c 0xd4
 439 620 504 601 548 568 c 1
 573 590 l 2
 579 595 586 600 595 600 c 2
 695 600 l 2
 709 600 720 589 720 575 c 0
 720 573 720 572 720 570 c 2
 706 480 l 2
 703 464 687 450 671 450 c 2
 613 450 l 1
 614 441 614 433 614 424 c 0
 614 413 614 402 612 390 c 0
 590 252 465 160 285 160 c 0
 256 160 230 162 206 167 c 1
 198 158 193 152 193 141 c 0
 193 124 211 120 249 120 c 2
 349 120 l 2
 491 120 562 55 562 -32 c 0
 562 -41 561 -51 560 -60 c 0
 537 -203 412 -280 216 -280 c 0
 67 -280 26 -267 -15 -255 c 0
 -32 -250 -50 -240 -50 -224 c 0xea
270 362 m 0xd4
 270 332 280 310 309 310 c 0
 347 310 365 348 372 390 c 0
 374 399 374 408 374 417 c 0
 374 447 364 470 334 470 c 0
 296 470 279 432 272 390 c 0
 270 380 270 371 270 362 c 0xd4
EndSplineSet
Substitution2: "'aalt' Latin Access All Alternates" g.alt
Substitution2: "'ss20' Latin a & g alt" g.alt
Substitution2: "'ss18' Latin g alt" g.alt
Colour: ffff00
EndChar

StartChar: f
Encoding: 102 102 107
Width: 540
VWidth: 0
Flags: W
HStem: 0 21G<70 281> 440 160<61.2043 110 395 513.082> 690 180<414.496 565.935>
LayerCount: 2
Fore
SplineSet
44 465 m 0
 44 467 44 468 44 470 c 2
 60 570 l 2
 63 586 79 600 95 600 c 2
 145 600 l 1
 153 650 l 2
 177 803 299 870 428 870 c 0
 521 870 578 841 604 825 c 0
 613 820 617 813 617 805 c 0
 617 803 616 801 616 798 c 0
 615 792 612 784 609 780 c 2
 549 690 l 2
 542 680 533 674 518 680 c 0
 507 685 488 690 469 690 c 0
 439 690 407 677 400 630 c 2
 395 600 l 1
 505 600 l 2
 519 600 530 589 530 575 c 0
 530 573 530 572 530 570 c 2
 514 470 l 2
 511 454 496 440 480 440 c 2
 380 440 l 1
 316 40 l 2
 313 18 292 0 270 0 c 2
 80 0 l 2
 60 0 46 15 46 34 c 0
 46 36 46 38 46 40 c 2
 110 440 l 1
 70 440 l 2
 56 440 44 451 44 465 c 0
EndSplineSet
Colour: ffff00
EndChar

StartChar: t
Encoding: 116 116 108
Width: 530
VWidth: 0
Flags: W
HStem: -20 190<181 389.269> 440 160<51.2043 100 385 503.082>
VStem: 57 279<87 334.375>
LayerCount: 2
Fore
SplineSet
34 465 m 0
 34 467 34 468 34 470 c 2
 50 570 l 2
 53 586 69 600 85 600 c 2
 135 600 l 1
 157 740 l 2
 160 762 182 780 204 780 c 2
 374 780 l 2
 394 780 407 765 407 746 c 0
 407 744 407 742 407 740 c 2
 385 600 l 1
 495 600 l 2
 509 600 520 589 520 575 c 0
 520 573 520 572 520 570 c 2
 504 470 l 2
 501 454 486 440 470 440 c 2
 370 440 l 1
 338 240 l 2
 337 233 336 226 336 220 c 0
 336 184 356 170 377 170 c 0
 394 170 407 174 419 180 c 0
 429 185 439 195 446 195 c 0
 454 195 455 187 457 179 c 2
 474 87 l 2
 475 79 476 71 475 65 c 0
 473 55 461 45 451 39 c 0
 404 9 347 -20 237 -20 c 0
 125 -20 57 30 57 144 c 0
 57 161 59 180 62 200 c 2
 100 440 l 1
 60 440 l 2
 46 440 34 451 34 465 c 0
EndSplineSet
Colour: ffff00
EndChar

StartChar: r
Encoding: 114 114 109
Width: 520
VWidth: 0
Flags: W
HStem: 0 21G<30 251> 399 206<422.917 507.781>
LayerCount: 2
Fore
SplineSet
6 34 m 0
 6 36 6 38 6 40 c 2
 89 560 l 2
 92 582 113 600 135 600 c 2
 315 600 l 2
 335 600 349 585 349 566 c 0
 349 564 349 562 349 560 c 2
 340 503 l 1
 380 556 439 605 511 605 c 0
 525 605 533 600 533 587 c 0
 533 585 532 583 532 580 c 2
 507 420 l 2
 505 406 501 399 493 399 c 0
 483 399 478 405 454 405 c 0
 400 405 361 379 333 335 c 1
 286 40 l 2
 283 18 262 0 240 0 c 2
 40 0 l 2
 20 0 6 15 6 34 c 0
EndSplineSet
Colour: ffff00
EndChar

StartChar: m
Encoding: 109 109 110
Width: 1105
VWidth: 0
Flags: W
HStem: 0 21G<20 231 390 601 760 971> 410 200<370 569 740 948.5> 580 20G<114 315>
VStem: 786 281<258.125 497.5>
LayerCount: 2
Fore
SplineSet
-4 34 m 0xd0
 -4 36 -4 38 -4 40 c 2
 79 560 l 2
 82 582 103 600 125 600 c 2
 305 600 l 2xb0
 325 600 339 585 339 566 c 0
 339 564 339 562 339 560 c 2
 331 513 l 1
 369 558 434 610 527 610 c 0
 611 610 671 573 690 499 c 1
 725 545 794 610 897 610 c 0
 1000 610 1067 553 1067 442 c 0
 1067 426 1065 409 1062 390 c 2
 1006 40 l 2
 1003 18 982 0 960 0 c 2
 770 0 l 2
 750 0 736 15 736 34 c 0
 736 36 736 38 736 40 c 2
 782 330 l 2
 784 345 786 358 786 368 c 0
 786 399 775 410 755 410 c 0
 725 410 706 385 685 349 c 1
 636 40 l 2
 633 18 612 0 590 0 c 2
 400 0 l 2
 380 0 366 15 366 34 c 0
 366 36 366 38 366 40 c 2
 412 330 l 2
 414 345 416 358 416 368 c 0
 416 399 405 410 385 410 c 0
 355 410 336 385 315 349 c 1
 266 40 l 2
 263 18 242 0 220 0 c 2
 30 0 l 2
 10 0 -4 15 -4 34 c 0xd0
EndSplineSet
Colour: ffff00
EndChar

StartChar: j
Encoding: 106 106 111
Width: 400
VWidth: 0
Flags: W
HStem: 580 20G<124 345> 660 180<149.24 368.082>
LayerCount: 2
Fore
SplineSet
-36 -227 m 0
 -36 -225 -35 -222 -35 -220 c 2
 89 560 l 2
 92 582 113 600 135 600 c 2
 335 600 l 2
 355 600 369 585 369 566 c 0
 369 564 369 562 369 560 c 2
 258 -140 l 2
 248 -204 212 -250 100 -250 c 0
 38 -250 -23 -240 -23 -240 c 1
 -32 -238 -36 -235 -36 -227 c 0
129 685 m 0
 129 687 129 688 129 690 c 2
 148 810 l 2
 151 826 167 840 183 840 c 2
 363 840 l 2
 377 840 388 829 388 815 c 0
 388 813 388 812 388 810 c 2
 369 690 l 2
 366 674 351 660 335 660 c 2
 155 660 l 2
 141 660 129 671 129 685 c 0
EndSplineSet
Colour: ffff00
EndChar

StartChar: k
Encoding: 107 107 112
Width: 770
VWidth: 0
Flags: W
HStem: 0 21G<30 241 430.5 667.5> 580 20G<518.5 739.5> 820 20G<162 373>
LayerCount: 2
Fore
SplineSet
6 34 m 0
 6 36 6 38 6 40 c 2
 127 800 l 2
 130 822 151 840 173 840 c 2
 363 840 l 2
 383 840 397 825 397 806 c 0
 397 804 397 802 397 800 c 2
 332 390 l 1
 372 390 l 1
 472 560 l 2
 487 587 504 600 533 600 c 2
 728 600 l 2
 751 600 764 591 764 578 c 0
 764 572 762 566 757 560 c 2
 579 310 l 1
 696 40 l 2
 698 35 700 29 699 25 c 0
 697 10 680 0 655 0 c 2
 445 0 l 2
 416 0 404 13 396 40 c 2
 343 210 l 1
 303 210 l 1
 276 40 l 2
 273 18 252 0 230 0 c 2
 40 0 l 2
 20 0 6 15 6 34 c 0
EndSplineSet
Colour: ffff00
EndChar

StartChar: exclam
Encoding: 33 33 113
Width: 400
VWidth: 0
Flags: W
HStem: 0 200<48.0518 263.948> 820 20G<162 383>
VStem: 25 380
LayerCount: 2
Fore
SplineSet
25 25 m 0
 25 27 25 28 25 30 c 2
 47 170 l 2
 50 186 66 200 82 200 c 2
 262 200 l 2
 276 200 287 189 287 175 c 0
 287 173 287 172 287 170 c 2
 265 30 l 2
 262 14 246 0 230 0 c 2
 50 0 l 2
 36 0 25 11 25 25 c 0
77 304 m 0
 77 306 77 308 77 310 c 1
 129 800 l 1
 132 822 151 840 173 840 c 2
 373 840 l 2
 393 840 405 825 405 806 c 0
 405 804 405 802 405 800 c 1
 301 310 l 1
 298 288 278 270 256 270 c 2
 110 270 l 2
 90 270 77 285 77 304 c 0
EndSplineSet
Colour: ffff00
EndChar

StartChar: quotedbl
Encoding: 34 34 114
Width: 580
VWidth: 0
Flags: W
HStem: 480 360<113.031 244.065 383.031 514.065>
LayerCount: 2
Fore
SplineSet
107 505 m 0
 107 507 107 508 107 510 c 1
 112 810 l 1
 115 826 131 840 147 840 c 2
 309 840 l 2
 323 840 334 829 334 815 c 0
 334 813 334 812 334 810 c 1
 245 510 l 1
 242 494 226 480 210 480 c 2
 132 480 l 2
 118 480 107 491 107 505 c 0
377 505 m 0
 377 507 377 508 377 510 c 1
 382 810 l 1
 385 826 401 840 417 840 c 2
 579 840 l 2
 593 840 604 829 604 815 c 0
 604 813 604 812 604 810 c 1
 515 510 l 1
 512 494 496 480 480 480 c 2
 402 480 l 2
 388 480 377 491 377 505 c 0
EndSplineSet
Colour: ffff00
EndChar

StartChar: numbersign
Encoding: 35 35 115
Width: 960
VWidth: 0
Flags: W
HStem: 0 21G<53 220.5 413 580.5> 180 180<23.2402 104 387 464 747 842.082> 480 180<130.935 226 510 586 870 950.065> 820 20G<392.5 560 752.5 920>
LayerCount: 2
Fore
SplineSet
3 205 m 0
 3 207 3 208 3 210 c 2
 22 330 l 2
 25 346 41 360 57 360 c 2
 177 360 l 1
 226 480 l 1
 136 480 l 2
 122 480 111 491 111 505 c 0
 111 507 111 508 111 510 c 2
 130 630 l 2
 133 646 149 660 165 660 c 2
 300 660 l 1
 360 810 l 2
 367 826 382 840 403 840 c 2
 553 840 l 2
 567 840 574 828 572 817 c 0
 572 815 571 812 570 810 c 2
 510 660 l 1
 660 660 l 1
 720 810 l 2
 727 826 742 840 763 840 c 2
 913 840 l 2
 927 840 934 828 932 817 c 0
 932 815 931 812 930 810 c 2
 870 660 l 1
 945 660 l 2
 959 660 970 649 970 635 c 0
 970 633 970 632 970 630 c 2
 951 510 l 2
 948 494 932 480 916 480 c 2
 796 480 l 1
 747 360 l 1
 837 360 l 2
 851 360 862 349 862 335 c 0
 862 333 862 332 862 330 c 2
 843 210 l 2
 840 194 825 180 809 180 c 2
 674 180 l 1
 613 30 l 2
 606 14 591 0 570 0 c 2
 420 0 l 2
 406 0 399 12 401 23 c 0
 401 25 402 28 403 30 c 2
 464 180 l 1
 314 180 l 1
 253 30 l 2
 246 14 231 0 210 0 c 2
 60 0 l 2
 46 0 39 12 41 23 c 0
 41 25 42 28 43 30 c 2
 104 180 l 1
 29 180 l 2
 15 180 3 191 3 205 c 0
387 360 m 1
 537 360 l 1
 586 480 l 1
 436 480 l 1
 387 360 l 1
EndSplineSet
Colour: ffff00
EndChar

StartChar: dollar
Encoding: 36 36 116
Width: 760
VWidth: 0
Flags: W
HStem: -120 310<222.624 391.291> 650 310<401.307 559.228>
LayerCount: 2
Fore
SplineSet
-7 82 m 0
 -7 93 -1 101 5 110 c 2
 104 245 l 2
 113 258 126 265 137 265 c 0
 147 265 155 262 165 255 c 0
 212 221 252 190 310 190 c 0
 354 190 391 197 396 230 c 0
 396 232 397 234 397 236 c 0
 397 260 371 271 354 280 c 0
 319 299 258 328 216 355 c 0
 158 393 80 447 80 552 c 0
 80 564 81 577 83 590 c 0
 106 738 224 814 349 844 c 1
 362 930 l 2
 365 946 381 960 397 960 c 2
 547 960 l 2
 561 960 572 949 572 935 c 0
 572 933 572 932 572 930 c 2
 560 854 l 1
 653 838 720 797 739 785 c 0
 751 778 760 769 760 758 c 0
 760 757 760 756 760 755 c 0
 758 745 754 739 748 730 c 2
 667 615 l 2
 658 602 645 595 634 595 c 0
 627 595 616 597 610 600 c 0
 570 626 527 650 473 650 c 0
 435 650 402 644 397 610 c 0
 397 608 397 607 397 605 c 0
 397 583 420 571 439 560 c 0
 489 532 505 524 549 500 c 0
 615 464 712 414 712 286 c 0
 712 272 711 257 708 240 c 0
 685 93 564 19 424 -8 c 1
 411 -90 l 2
 408 -106 392 -120 376 -120 c 2
 226 -120 l 2
 212 -120 201 -109 201 -95 c 0
 201 -93 201 -92 201 -90 c 2
 212 -16 l 1
 102 -2 37 39 14 55 c 0
 3 62 -7 71 -7 82 c 0
EndSplineSet
Colour: ffff00
EndChar

StartChar: percent
Encoding: 37 37 117
Width: 1100
VWidth: 0
Flags: W
HStem: -20 150<768.452 854.24> 0 21G<90.5 228.5> 310 150<785.76 871.548> 380 150<241.452 327.24> 710 150<258.76 344.548> 820 20G<884.5 1023>
VStem: 64 167<535.589 680.13> 355 167<559.87 704.411> 591 167<135.589 280.13> 882 167<159.87 304.411>
LayerCount: 2
Fore
SplineSet
64 576 m 0x1bc0
 64 590 66 605 68 620 c 0
 89 753 197 860 331 860 c 0
 450 860 522 776 522 664 c 0
 522 650 520 635 518 620 c 0
 497 487 389 380 255 380 c 0
 136 380 64 464 64 576 c 0x1bc0
77 12 m 0
 77 21 90 30 90 30 c 2
 843 810 l 2
 856 824 873 840 896 840 c 2
 1016 840 l 2
 1030 840 1037 835 1036 827 c 0
 1035 819 1023 810 1023 810 c 1
 270 30 l 2
 257 16 240 0 217 0 c 2
 97 0 l 2x47c0
 84 0 77 5 77 12 c 0
231 596 m 0
 231 558 247 530 279 530 c 0
 317 530 345 570 353 620 c 0
 354 628 355 636 355 644 c 0
 355 682 339 710 307 710 c 0x1bc0
 269 710 241 670 233 620 c 0
 232 612 231 604 231 596 c 0
591 176 m 0
 591 190 593 205 595 220 c 0
 616 353 724 460 858 460 c 0
 977 460 1049 376 1049 264 c 0
 1049 250 1047 235 1045 220 c 0
 1024 87 916 -20 782 -20 c 0xa3c0
 663 -20 591 64 591 176 c 0
758 196 m 0
 758 158 774 130 806 130 c 0
 844 130 872 170 880 220 c 0
 881 228 882 236 882 244 c 0
 882 282 866 310 834 310 c 0
 796 310 768 270 760 220 c 0
 759 212 758 204 758 196 c 0
EndSplineSet
Colour: ffff00
EndChar

StartChar: ampersand
Encoding: 38 38 118
Width: 870
VWidth: 0
Flags: W
HStem: -20 190<215 439.508> 690 170<410.009 502.578>
VStem: 184 202<524.215 668.115> 509 192<565.657 683.175>
LayerCount: 2
Fore
SplineSet
10 177 m 0
 10 188 11 199 13 210 c 0
 35 348 139 414 221 452 c 1
 201 483 184 522 184 572 c 0
 184 584 185 597 187 610 c 0
 213 775 354 860 486 860 c 0
 604 860 701 792 701 659 c 0
 701 644 700 627 697 610 c 0
 683 521 609 449 533 402 c 1
 610 323 l 1
 647 361 676 396 676 396 c 1
 682 405 694 410 704 410 c 0
 709 410 714 409 718 406 c 2
 808 347 l 2
 815 343 819 334 819 326 c 0
 819 324 818 323 818 321 c 0
 817 315 815 310 811 305 c 2
 811 305 773 258 726 207 c 1
 782 150 l 2
 788 144 791 136 790 127 c 0
 789 118 782 111 777 105 c 2
 681 4 l 2
 675 -3 667 -5 659 -5 c 0
 652 -5 640 -2 635 3 c 2
 573 69 l 1
 491 17 389 -20 287 -20 c 0
 143 -20 10 46 10 177 c 0
277 230 m 0
 277 195 306 170 357 170 c 0
 386 170 417 181 451 199 c 1
 340 315 l 1
 312 300 284 277 278 240 c 0
 277 236 277 233 277 230 c 0
386 593 m 0
 386 558 402 533 421 514 c 1
 461 536 501 572 507 610 c 0
 508 617 509 624 509 631 c 0
 509 666 493 690 459 690 c 0
 419 690 394 656 387 610 c 1
 386 604 386 598 386 593 c 0
EndSplineSet
Colour: ffff00
EndChar

StartChar: quotesingle
Encoding: 39 39 119
Width: 320
VWidth: 0
Flags: W
HStem: 480 360<113.031 254.065>
VStem: 107 238<782 836.612>
LayerCount: 2
Fore
SplineSet
107 505 m 0
 107 507 107 508 107 510 c 1
 112 810 l 1
 115 826 131 840 147 840 c 2
 319 840 l 2
 333 840 345 829 345 815 c 0
 345 813 345 812 345 810 c 1
 255 510 l 1
 252 494 236 480 220 480 c 2
 132 480 l 2
 118 480 107 491 107 505 c 0
EndSplineSet
Colour: ffff00
EndChar

StartChar: parenleft
Encoding: 40 40 120
Width: 480
VWidth: 0
Flags: W
VStem: 18 252<127.903 437.062>
LayerCount: 2
Fore
SplineSet
18 255 m 0
 18 288 21 323 27 360 c 0
 70 634 252 800 394 876 c 0
 400 879 407 882 413 882 c 0
 422 882 430 878 435 871 c 2
 503 762 l 2
 505 758 506 753 506 748 c 0
 506 746 506 745 506 743 c 0
 505 735 499 726 491 720 c 0
 412 664 305 539 277 360 c 0
 272 331 270 304 270 278 c 0
 270 143 326 47 377 0 c 0
 383 -6 385 -15 384 -23 c 0
 383 -30 380 -36 375 -42 c 2
 273 -151 l 2
 266 -158 256 -162 247 -162 c 0
 241 -162 236 -159 230 -156 c 0
 128 -90 18 43 18 255 c 0
EndSplineSet
Colour: ffff00
EndChar

StartChar: parenright
Encoding: 41 41 121
Width: 480
VWidth: 0
Flags: W
VStem: 204 252<282.938 592.097>
LayerCount: 2
Fore
SplineSet
-32 -23 m 0
 -31 -15 -25 -6 -17 0 c 0
 62 56 169 181 197 360 c 0
 202 389 204 416 204 442 c 0
 204 577 148 673 97 720 c 0
 91 726 89 735 90 743 c 0
 91 750 94 756 99 762 c 2
 201 871 l 2
 208 878 218 882 227 882 c 0
 233 882 238 879 244 876 c 0
 346 810 456 677 456 465 c 0
 456 432 453 397 447 360 c 0
 404 86 222 -80 80 -156 c 0
 74 -159 67 -162 61 -162 c 0
 52 -162 44 -158 39 -151 c 2
 -29 -42 l 2
 -31 -38 -32 -33 -32 -28 c 0
 -32 -26 -32 -25 -32 -23 c 0
EndSplineSet
Colour: ffff00
EndChar

StartChar: asterisk
Encoding: 42 42 122
Width: 660
VWidth: 0
Flags: W
HStem: 820 20G<321.5 484.5>
LayerCount: 2
Fore
SplineSet
79 567 m 0
 79 572 81 579 83 583 c 2
 152 725 l 2
 157 735 164 743 174 743 c 0
 182 743 186 740 190 738 c 2
 310 660 l 1
 300 810 l 1
 300 810 300 815 301 820 c 0
 303 833 315 840 328 840 c 2
 478 840 l 2
 491 840 501 833 499 820 c 0
 498 815 496 810 496 810 c 1
 440 660 l 1
 584 738 l 2
 588 740 594 743 602 743 c 0
 612 743 617 735 618 725 c 2
 641 583 l 2
 641 580 641 577 641 574 c 0
 641 573 641 571 641 570 c 0
 639 559 626 554 615 552 c 2
 460 536 l 1
 559 434 l 2
 564 428 567 423 566 415 c 0
 564 405 559 401 552 396 c 2
 416 308 l 2
 410 304 404 302 398 302 c 0
 390 302 385 311 382 319 c 2
 343 460 l 1
 260 319 l 2
 255 311 246 302 238 302 c 0
 232 302 226 304 222 308 c 2
 114 396 l 2
 109 401 104 405 106 415 c 0
 107 423 112 428 119 434 c 2
 250 536 l 1
 99 552 l 2
 89 554 79 558 79 567 c 0
EndSplineSet
Colour: ffff00
EndChar

StartChar: plus
Encoding: 43 43 123
Width: 640
VWidth: 0
Flags: W
HStem: 270 180<57.9176 183 451 576.76> 580 20G<257 452>
LayerCount: 2
Fore
SplineSet
38 295 m 0
 38 297 38 298 38 300 c 2
 57 420 l 2
 60 436 75 450 91 450 c 2
 211 450 l 1
 230 570 l 2
 233 586 249 600 265 600 c 2
 445 600 l 2
 459 600 470 589 470 575 c 0
 470 573 470 572 470 570 c 2
 451 450 l 1
 571 450 l 2
 585 450 597 439 597 425 c 0
 597 423 597 422 597 420 c 2
 578 300 l 2
 575 284 559 270 543 270 c 2
 423 270 l 1
 404 150 l 2
 401 134 385 120 369 120 c 2
 189 120 l 2
 175 120 164 131 164 145 c 0
 164 147 164 148 164 150 c 2
 183 270 l 1
 63 270 l 2
 49 270 38 281 38 295 c 0
EndSplineSet
Colour: ffff00
EndChar

StartChar: comma
Encoding: 44 44 124
Width: 360
VWidth: 0
Flags: W
HStem: -200 92<-33.9466 42.6211>
VStem: -36 303
LayerCount: 2
Fore
SplineSet
-36 -125 m 0
 -34 -114 -24 -110 -16 -108 c 0
 15 -102 69 -86 90 0 c 1
 30 0 l 2
 16 0 5 11 5 25 c 0
 5 27 5 28 5 30 c 2
 27 170 l 2
 30 186 46 200 62 200 c 2
 242 200 l 2
 256 200 267 189 267 175 c 0
 267 173 267 172 267 170 c 2
 245 30 l 2
 221 -124 92 -200 -12 -200 c 0
 -23 -200 -33 -194 -34 -180 c 2
 -36 -131 l 1
 -36 -131 -36 -128 -36 -125 c 0
EndSplineSet
Colour: ffff00
EndChar

StartChar: hyphen
Encoding: 45 45 125
Width: 640
VWidth: 0
Flags: W
HStem: 270 180<57.9176 576.76>
LayerCount: 2
Fore
SplineSet
38 295 m 0
 38 297 38 298 38 300 c 2
 57 420 l 2
 60 436 75 450 91 450 c 2
 571 450 l 2
 585 450 597 439 597 425 c 0
 597 423 597 422 597 420 c 2
 578 300 l 2
 575 284 559 270 543 270 c 2
 63 270 l 2
 49 270 38 281 38 295 c 0
EndSplineSet
Colour: ffff00
EndChar

StartChar: period
Encoding: 46 46 126
Width: 360
VWidth: 0
Flags: W
HStem: 0 200<28.0518 243.948>
VStem: 5 262
LayerCount: 2
Fore
SplineSet
5 25 m 0
 5 27 5 28 5 30 c 2
 27 170 l 2
 30 186 46 200 62 200 c 2
 242 200 l 2
 256 200 267 189 267 175 c 0
 267 173 267 172 267 170 c 2
 245 30 l 2
 242 14 226 0 210 0 c 2
 30 0 l 2
 16 0 5 11 5 25 c 0
EndSplineSet
Colour: ffff00
EndChar

StartChar: slash
Encoding: 47 47 127
Width: 600
VWidth: 0
Flags: W
HStem: 0 21G<-7.5 159.5> 820 20G<453.5 620.5>
LayerCount: 2
Fore
SplineSet
-21 11 m 0
 -21 19 -13 30 -13 30 c 1
 416 810 l 2
 425 826 442 840 465 840 c 2
 614 840 l 2
 627 840 634 836 634 829 c 0
 634 829 634 829 634 828 c 0
 633 820 626 810 626 810 c 1
 197 30 l 2
 188 14 171 0 148 0 c 2
 -1 0 l 2
 -14 0 -21 4 -21 11 c 0
EndSplineSet
Colour: ffff00
EndChar

StartChar: zero
Encoding: 48 48 128
Width: 860
VWidth: 0
Flags: W
HStem: -20 240<351.986 469.791> 620 240<403.372 520.462>
VStem: 30 291<252.966 496.585> 553 291<343.415 586.088>
LayerCount: 2
Fore
SplineSet
30 334 m 0
 30 362 32 391 37 420 c 0
 75 658 256 860 506 860 c 0
 725 860 844 704 844 505 c 0
 844 477 842 449 837 420 c 0
 799 182 617 -20 367 -20 c 0
 148 -20 30 135 30 334 c 0
321 348 m 0
 321 268 348 220 405 220 c 0
 477 220 528 298 547 420 c 0
 551 446 553 470 553 491 c 0
 553 571 525 620 468 620 c 0
 396 620 346 542 327 420 c 0
 323 394 321 370 321 348 c 0
EndSplineSet
Colour: ffff00
EndChar

StartChar: one
Encoding: 49 49 129
Width: 600
VWidth: 0
Flags: W
HStem: 0 21G<210 431> 820 20G<366.5 563>
LayerCount: 2
Fore
SplineSet
67 673 m 0
 67 690 83 703 97 710 c 2
 277 800 l 1
 329 828 350 840 383 840 c 2
 553 840 l 2
 573 840 587 825 587 806 c 0
 587 804 587 802 587 800 c 2
 466 40 l 2
 463 18 442 0 420 0 c 2
 220 0 l 2
 200 0 186 15 186 34 c 0
 186 36 186 38 186 40 c 2
 275 600 l 1
 175 538 l 1
 175 538 147 520 132 520 c 0
 122 520 115 529 111 540 c 2
 72 655 l 2
 70 660 67 667 67 673 c 0
EndSplineSet
Colour: ffff00
EndChar

StartChar: two
Encoding: 50 50 130
Width: 800
VWidth: 0
Flags: W
HStem: 0 210<413 701.113> 640 220<304.328 569.046>
VStem: 481 287<524.718 690>
LayerCount: 2
Fore
SplineSet
6 34 m 0
 6 36 6 38 6 40 c 2
 25 160 l 2
 31 197 53 217 77 235 c 2
 361 450 l 2
 404 482 472 521 480 570 c 0
 481 574 481 578 481 582 c 0
 481 619 450 640 390 640 c 0
 320 640 263 598 237 582 c 0
 229 577 219 575 211 575 c 0
 196 575 185 584 179 595 c 2
 121 690 l 2
 117 697 116 703 118 715 c 0
 120 727 132 742 144 750 c 0
 201 791 308 860 466 860 c 0
 668 860 768 748 768 632 c 0
 768 621 767 611 765 600 c 0
 747 485 678 434 609 370 c 1
 413 210 l 1
 693 210 l 2
 713 210 728 195 728 176 c 0
 728 174 727 172 727 170 c 2
 706 40 l 2
 703 18 682 0 660 0 c 2
 40 0 l 2
 20 0 6 15 6 34 c 0
EndSplineSet
Colour: ffff00
EndChar

StartChar: three
Encoding: 51 51 131
Width: 770
VWidth: 0
Flags: W
HStem: -20 210<196.933 406.86> 330 180<239.168 418.469> 660 200<283.657 549.947>
VStem: 432 288<214.558 315.253> 464 284<537.62 643.037>
LayerCount: 2
Fore
SplineSet
-16 86 m 0xf0
 -16 99 -11 108 -5 115 c 2
 96 225 l 2
 106 236 119 245 134 245 c 0
 142 245 152 243 158 238 c 0
 179 223 235 190 320 190 c 0
 395 190 425 220 431 260 c 0
 432 263 432 267 432 270 c 0xf0
 432 305 402 330 342 330 c 2
 252 330 l 2
 232 330 219 345 219 364 c 0
 219 366 219 368 219 370 c 2
 234 470 l 2
 237 492 259 510 281 510 c 2
 371 510 l 2
 429 510 456 548 463 590 c 0
 464 594 464 597 464 600 c 0
 464 636 430 660 385 660 c 0
 315 660 252 623 226 607 c 0
 218 602 213 600 205 600 c 0
 190 600 180 610 173 620 c 2
 115 695 l 2
 110 701 107 708 109 720 c 0
 111 732 123 747 135 755 c 0
 192 796 290 860 446 860 c 0
 648 860 748 756 748 635 c 0xe8
 748 623 747 612 745 600 c 0
 734 531 696 471 631 427 c 1
 689 392 720 338 720 270 c 0
 720 257 718 244 716 230 c 0
 691 73 524 -20 307 -20 c 0
 128 -20 57 25 5 60 c 0
 -8 68 -16 76 -16 86 c 0xf0
EndSplineSet
Colour: ffff00
EndChar

StartChar: four
Encoding: 52 52 132
Width: 800
VWidth: 0
Flags: W
HStem: 0 21G<380 601> 120 180<228 369 678 740.057> 820 20G<511.5 733>
LayerCount: 2
Fore
SplineSet
-5 154 m 0
 -5 156 -5 158 -5 160 c 2
 15 285 l 2
 18 307 46 333 66 355 c 2
 457 800 l 2
 478 823 495 840 528 840 c 2
 723 840 l 2
 743 840 757 825 757 806 c 0
 757 804 757 802 757 800 c 2
 678 300 l 1
 728 300 l 2
 748 300 761 285 761 266 c 0
 761 264 761 262 761 260 c 2
 745 160 l 2
 742 138 721 120 699 120 c 2
 649 120 l 1
 636 40 l 2
 633 18 612 0 590 0 c 2
 390 0 l 2
 370 0 356 15 356 34 c 0
 356 36 356 38 356 40 c 2
 369 120 l 1
 29 120 l 2
 9 120 -5 135 -5 154 c 0
228 300 m 1
 398 300 l 1
 436 540 l 1
 228 300 l 1
EndSplineSet
Colour: ffff00
EndChar

StartChar: five
Encoding: 53 53 133
Width: 780
VWidth: 0
Flags: W
HStem: -20 210<206.775 416.718> 300 540<178.359 314.633> 330 210<349.188 562.5> 630 210<365 731.059>
VStem: 442 297<214.729 393>
LayerCount: 2
Fore
SplineSet
-6 86 m 0xb8
 -6 99 -1 108 5 115 c 2
 106 225 l 2
 116 236 129 245 144 245 c 0
 152 245 162 243 168 238 c 0
 189 223 244 190 329 190 c 0
 404 190 435 220 441 260 c 0
 442 263 442 267 442 270 c 0
 442 305 412 330 352 330 c 0xb8
 322 330 299 323 285 317 c 0
 273 312 255 300 238 300 c 0
 221 300 192 312 192 312 c 1
 95 348 l 2
 77 354 66 365 66 383 c 0
 66 386 66 389 67 392 c 0
 69 406 81 445 81 445 c 1
 174 805 l 2
 178 820 196 840 223 840 c 2xc8
 723 840 l 2
 743 840 757 825 757 806 c 0
 757 804 757 802 757 800 c 2
 736 670 l 2
 733 648 712 630 690 630 c 2
 365 630 l 1
 332 506 l 1
 371 526 422 540 486 540 c 0
 639 540 739 456 739 330 c 0
 739 317 738 304 736 290 c 0
 702 78 534 -20 317 -20 c 0
 138 -20 67 25 15 60 c 0
 2 68 -6 76 -6 86 c 0xb8
EndSplineSet
Colour: ffff00
EndChar

StartChar: six
Encoding: 54 54 134
Width: 810
VWidth: 0
Flags: W
HStem: -20 210<324.457 446.067> 370 180<396.96 597.5> 615 21G<643 654.5> 660 200<406.219 603.787>
LayerCount: 2
Fore
SplineSet
21 237 m 0
 21 251 22 265 24 280 c 2
 59 500 l 2
 94 719 255 860 496 860 c 0
 637 860 709 818 754 785 c 0
 763 779 770 767 770 758 c 0
 770 745 764 737 759 730 c 2
 686 635 l 2
 677 623 662 615 647 615 c 0
 639 615 630 617 624 622 c 0
 603 637 553 660 495 660 c 0
 426 660 349 619 336 540 c 2
 327 486 l 1
 379 523 448 550 537 550 c 0
 658 550 772 486 772 346 c 0
 772 332 771 316 768 300 c 0
 735 91 564 -20 347 -20 c 0
 149 -20 21 88 21 237 c 0
303 265 m 0
 303 224 333 190 380 190 c 0
 433 190 476 232 484 280 c 0
 485 285 485 290 485 295 c 0
 485 336 456 370 409 370 c 0
 349 370 312 328 304 280 c 0
 303 275 303 270 303 265 c 0
EndSplineSet
Colour: ffff00
EndChar

StartChar: seven
Encoding: 55 55 135
Width: 720
VWidth: 0
Flags: W
HStem: 0 21G<92.5 331.5> 630 210<111.941 430>
LayerCount: 2
Fore
SplineSet
68 22 m 0
 68 28 70 34 75 40 c 2
 430 630 l 1
 120 630 l 2
 100 630 86 645 86 664 c 0
 86 666 86 668 86 670 c 2
 107 800 l 2
 110 822 131 840 153 840 c 2
 723 840 l 2
 743 840 758 825 758 806 c 0
 758 804 757 802 757 800 c 2
 736 670 l 2
 732 647 702 602 679 565 c 1
 373 40 l 1
 361 14 346 0 317 0 c 2
 104 0 l 2
 81 0 68 9 68 22 c 0
EndSplineSet
Colour: ffff00
EndChar

StartChar: eight
Encoding: 56 56 136
Width: 800
VWidth: 0
Flags: W
HStem: -20 180<307.575 429.823> 350 160<374.844 456.515> 690 170<401.762 484.375>
LayerCount: 2
Fore
SplineSet
2 185 m 0
 2 196 3 208 5 220 c 0
 21 319 85 392 189 433 c 1
 126 468 95 521 95 585 c 0
 95 596 96 608 98 620 c 0
 119 755 271 860 476 860 c 0
 665 860 780 770 780 650 c 0
 780 640 780 630 778 620 c 0
 765 540 715 474 629 433 c 1
 708 398 748 339 748 261 c 0
 748 248 747 234 745 220 c 0
 720 63 554 -20 337 -20 c 0
 137 -20 2 51 2 185 c 0
289 234 m 0
 289 192 318 160 365 160 c 0
 418 160 462 200 470 250 c 0
 471 257 472 265 472 272 c 0
 472 314 451 350 395 350 c 0
 330 350 298 300 290 250 c 0
 289 245 289 239 289 234 c 0
363 577 m 0
 363 536 384 510 421 510 c 0
 465 510 496 546 505 600 c 0
 506 608 507 615 507 622 c 0
 507 664 466 670 449 690 c 1
 408 690 374 654 365 600 c 0
 364 592 363 584 363 577 c 0
EndSplineSet
Colour: ffff00
EndChar

StartChar: nine
Encoding: 57 57 137
Width: 810
VWidth: 0
Flags: W
HStem: -20 200<222.165 417.281> 290 180<225.5 426.04> 650 210<376.966 498.543>
LayerCount: 2
Fore
SplineSet
52 494 m 0
 52 508 53 524 56 540 c 0
 89 749 259 860 476 860 c 0
 674 860 802 752 802 603 c 0
 802 589 801 575 799 560 c 2
 764 340 l 2
 729 121 568 -20 327 -20 c 0
 186 -20 114 22 69 55 c 0
 60 61 53 73 53 82 c 0
 53 95 59 103 64 110 c 2
 137 205 l 2
 146 217 161 225 176 225 c 0
 184 225 194 223 200 218 c 0
 221 203 271 180 329 180 c 0
 398 180 475 221 488 300 c 2
 496 354 l 1
 444 317 375 290 286 290 c 0
 165 290 52 355 52 494 c 0
337 545 m 0
 337 504 367 470 414 470 c 0
 474 470 511 512 519 560 c 0
 520 565 520 570 520 575 c 0
 520 616 490 650 443 650 c 0
 390 650 347 608 339 560 c 0
 338 555 337 550 337 545 c 0
EndSplineSet
Colour: ffff00
EndChar

StartChar: colon
Encoding: 58 58 138
Width: 360
VWidth: 0
Flags: W
HStem: 0 200<28.0518 243.948> 400 200<91.0518 306.955>
VStem: 5 326
LayerCount: 2
Fore
SplineSet
5 25 m 0
 5 27 5 28 5 30 c 2
 27 170 l 2
 30 186 46 200 62 200 c 2
 242 200 l 2
 256 200 267 189 267 175 c 0
 267 173 267 172 267 170 c 2
 245 30 l 2
 242 14 226 0 210 0 c 2
 30 0 l 2
 16 0 5 11 5 25 c 0
68 425 m 0
 68 427 68 428 68 430 c 2
 90 570 l 2
 93 586 109 600 125 600 c 2
 305 600 l 2
 319 600 331 589 331 575 c 0
 331 573 331 572 331 570 c 2
 308 430 l 2
 305 414 289 400 273 400 c 2
 93 400 l 2
 79 400 68 411 68 425 c 0
EndSplineSet
Colour: ffff00
EndChar

StartChar: semicolon
Encoding: 59 59 139
Width: 360
VWidth: 0
Flags: W
HStem: -200 92<-33.9466 42.6211> 400 200<91.0518 306.948>
VStem: -36 366
LayerCount: 2
Fore
SplineSet
-36 -125 m 0
 -34 -114 -24 -110 -16 -108 c 0
 15 -102 69 -86 90 0 c 1
 30 0 l 2
 16 0 5 11 5 25 c 0
 5 27 5 28 5 30 c 2
 27 170 l 2
 30 186 46 200 62 200 c 2
 242 200 l 2
 256 200 267 189 267 175 c 0
 267 173 267 172 267 170 c 2
 245 30 l 2
 221 -124 92 -200 -12 -200 c 0
 -23 -200 -33 -194 -34 -180 c 2
 -36 -131 l 1
 -36 -131 -36 -128 -36 -125 c 0
68 425 m 0
 68 427 68 428 68 430 c 2
 90 570 l 2
 93 586 109 600 125 600 c 2
 305 600 l 2
 319 600 330 589 330 575 c 0
 330 573 330 572 330 570 c 2
 308 430 l 2
 305 414 289 400 273 400 c 2
 93 400 l 2
 79 400 68 411 68 425 c 0
EndSplineSet
Colour: ffff00
EndChar

StartChar: less
Encoding: 60 60 140
Width: 570
VWidth: 0
Flags: W
LayerCount: 2
Fore
SplineSet
2 259 m 0
 2 260 2 262 2 263 c 2
 17 360 l 1
 32 457 l 2
 35 473 52 481 67 487 c 2
 557 677 l 1
 557 677 568 682 576 682 c 0
 582 682 586 677 586 668 c 0
 586 666 585 663 585 660 c 2
 561 514 l 2
 557 491 541 476 524 470 c 2
 197 360 l 1
 490 250 l 2
 503 245 514 233 514 215 c 0
 514 212 514 209 513 206 c 2
 490 60 l 2
 488 46 482 38 474 38 c 0
 466 38 457 43 457 43 c 1
 27 233 l 2
 15 238 2 246 2 259 c 0
EndSplineSet
Colour: ffff00
EndChar

StartChar: equal
Encoding: 61 61 141
Width: 640
VWidth: 0
Flags: W
HStem: 120 180<33.935 553.065> 420 180<81.2402 600.082>
LayerCount: 2
Fore
SplineSet
14 145 m 0
 14 147 14 148 14 150 c 2
 33 270 l 2
 36 286 52 300 68 300 c 2
 548 300 l 2
 562 300 573 289 573 275 c 0
 573 273 573 272 573 270 c 2
 554 150 l 2
 551 134 535 120 519 120 c 2
 39 120 l 2
 25 120 14 131 14 145 c 0
61 445 m 0
 61 447 61 448 61 450 c 2
 80 570 l 2
 83 586 99 600 115 600 c 2
 595 600 l 2
 609 600 620 589 620 575 c 0
 620 573 620 572 620 570 c 2
 601 450 l 2
 598 434 583 420 567 420 c 2
 87 420 l 2
 73 420 61 431 61 445 c 0
EndSplineSet
Colour: ffff00
EndChar

StartChar: greater
Encoding: 62 62 142
Width: 570
VWidth: 0
Flags: W
LayerCount: 2
Fore
SplineSet
-21 51 m 0
 -21 54 -20 57 -20 60 c 2
 3 206 l 2
 7 229 23 244 40 250 c 2
 367 360 l 1
 74 470 l 2
 61 475 50 487 50 505 c 0
 50 508 50 511 51 514 c 2
 75 660 l 2
 77 674 82 682 90 682 c 0
 98 682 107 677 107 677 c 1
 537 487 l 2
 549 482 562 474 562 461 c 0
 562 460 562 458 562 457 c 2
 547 360 l 1
 532 263 l 2
 529 247 512 239 497 233 c 2
 7 43 l 1
 7 43 -4 38 -12 38 c 0
 -18 38 -21 43 -21 51 c 0
EndSplineSet
Colour: ffff00
EndChar

StartChar: question
Encoding: 63 63 143
Width: 690
VWidth: 0
Flags: W
HStem: 0 200<198.052 413.948> 270 187<240.132 335.262> 620 240<256.691 497.5>
VStem: 410 278<532.202 705.5>
LayerCount: 2
Fore
SplineSet
77 719 m 0
 77 721 77 723 77 725 c 0
 79 738 89 746 100 755 c 0
 157 798 275 860 416 860 c 0
 579 860 688 771 688 640 c 0
 688 627 687 614 685 600 c 0
 661 448 494 375 462 362 c 1
 451 310 l 1
 448 288 427 270 405 270 c 2
 261 270 l 2
 241 270 227 285 227 304 c 0
 227 306 227 308 227 310 c 1
 240 435 l 2
 242 447 252 453 267 457 c 0
 337 476 402 516 409 560 c 0
 410 564 410 568 410 571 c 0
 410 600 387 620 348 620 c 0
 301 620 241 591 202 564 c 0
 194 559 186 555 178 555 c 0
 165 555 155 562 149 573 c 2
 81 700 l 2
 78 705 77 712 77 719 c 0
175 25 m 0
 175 27 175 28 175 30 c 2
 197 170 l 2
 200 186 216 200 232 200 c 2
 412 200 l 2
 426 200 437 189 437 175 c 0
 437 173 437 172 437 170 c 2
 415 30 l 2
 412 14 396 0 380 0 c 2
 200 0 l 2
 186 0 175 11 175 25 c 0
EndSplineSet
Colour: ffff00
EndChar

StartChar: at
Encoding: 64 64 144
Width: 1100
VWidth: 0
Flags: W
HStem: -180 80<331.678 644.843> -145 73<575.549 691.459> 92 152<374.5 529.577> 92 108<731.5 902.342> 436 152<500.663 600.354> 780 80<466.288 755.861>
VStem: 17 91<126.969 415.023> 240 226<256.641 396.018> 980 91<271.81 553.031>
LayerCount: 2
Fore
SplineSet
17 257 m 0x8f80
 17 284 19 312 24 340 c 0
 69 622 329 860 626 860 c 0
 893 860 1071 667 1071 423 c 0
 1071 396 1068 368 1064 340 c 0
 1045 218 962 92 769 92 c 0x9f80
 694 92 628 124 601 187 c 1
 565 135 512 92 437 92 c 0x2f80
 312 92 240 179 240 293 c 0
 240 308 241 324 244 340 c 0
 266 477 373 588 515 588 c 0
 574 588 611 562 633 525 c 1
 637 550 l 2
 640 566 656 580 672 580 c 2
 810 580 l 2
 824 580 835 569 835 555 c 0
 835 553 835 552 835 550 c 2
 796 300 l 2
 795 291 794 282 794 274 c 0
 794 227 818 200 862 200 c 0
 915 200 960 249 974 340 c 0
 978 364 980 387 980 410 c 0
 980 612 836 780 614 780 c 0
 367 780 151 572 114 340 c 0
 110 316 108 293 108 270 c 0
 108 68 252 -100 474 -100 c 0x9f80
 562 -100 612 -89 658 -75 c 0
 663 -74 668 -72 674 -72 c 0
 684 -72 688 -79 690 -90 c 2
 694 -112 l 2
 695 -115 696 -120 695 -125 c 0
 693 -137 685 -142 674 -145 c 0x4f80
 634 -157 576 -180 461 -180 c 0
 194 -180 17 13 17 257 c 0x8f80
466 316 m 0
 466 268 492 244 525 244 c 0x2f80
 556 244 575 259 587 283 c 1
 588 289 589 294 590 300 c 2
 605 398 l 1
 600 421 586 436 555 436 c 0
 517 436 478 404 468 340 c 0
 467 331 466 323 466 316 c 0
EndSplineSet
Colour: ffff00
EndChar

StartChar: A
Encoding: 65 65 145
Width: 980
VWidth: 0
Flags: W
HStem: 0 21G<-11.5 229.5 630.5 872.5> 120 180<394 562> 820 20G<420.5 705.5>
LayerCount: 2
Fore
SplineSet
-36 22 m 0
 -36 28 -34 34 -29 40 c 1
 382 800 l 1
 387 813 408 840 433 840 c 2
 563 840 l 1
 693 840 l 2
 718 840 731 813 732 800 c 1
 901 40 l 1
 903 36 904 31 904 27 c 0
 904 26 904 26 904 25 c 0
 902 10 885 0 860 0 c 2
 645 0 l 2
 616 0 605 14 601 40 c 2
 589 120 l 1
 309 120 l 1
 271 40 l 2
 259 14 244 0 215 0 c 2
 0 0 l 2
 -23 0 -36 9 -36 22 c 0
394 300 m 1
 562 300 l 1
 526 540 l 1
 525 570 l 1
 520 570 l 1
 515 570 l 1
 506 540 l 1
 394 300 l 1
EndSplineSet
Colour: ffff00
EndChar

StartChar: B
Encoding: 66 66 146
Width: 880
VWidth: 0
Flags: W
HStem: 0 180<309 494.113> 350 150<359 514.285> 660 180<385 538.252>
LayerCount: 2
Fore
SplineSet
6 34 m 0
 6 36 6 38 6 40 c 2
 127 800 l 2
 130 822 151 840 173 840 c 2
 553 840 l 2
 756 840 850 762 850 647 c 0
 850 635 849 623 847 610 c 0
 835 533 789 472 706 434 c 1
 789 400 829 342 829 263 c 0
 829 249 827 235 825 220 c 0
 799 56 630 0 480 0 c 2
 40 0 l 2
 20 0 6 15 6 34 c 0
309 180 m 1
 419 180 l 2
 471 180 524 214 531 260 c 0
 532 265 532 270 532 275 c 0
 532 315 507 350 445 350 c 2
 335 350 l 1
 309 180 l 1
359 500 m 1
 469 500 l 2
 513 500 546 542 552 580 c 0
 553 584 553 587 553 591 c 0
 553 626 528 660 485 660 c 2
 385 660 l 1
 359 500 l 1
EndSplineSet
Colour: ffff00
EndChar

StartChar: C
Encoding: 67 67 147
Width: 840
VWidth: 0
Flags: W
HStem: -20 240<411.263 612.701> 620 240<465.184 688.623>
VStem: 31 308<288.856 485.852>
LayerCount: 2
Fore
SplineSet
31 345 m 0
 31 370 33 394 37 420 c 0
 75 658 278 860 576 860 c 0
 741 860 838 792 849 785 c 0
 862 777 870 768 870 758 c 0
 870 746 864 739 858 730 c 2
 765 600 l 2
 756 587 743 580 732 580 c 0
 725 580 714 582 708 585 c 0
 698 589 656 620 578 620 c 0
 451 620 361 542 342 420 c 0
 340 406 339 393 339 380 c 0
 339 281 403 220 515 220 c 1
 593 220 643 251 655 255 c 0
 661 258 674 260 681 260 c 0
 692 260 703 253 708 240 c 2
 759 110 l 2
 763 101 765 95 763 85 c 0
 761 73 750 64 734 55 c 0
 721 48 602 -20 437 -20 c 0
 171 -20 31 141 31 345 c 0
EndSplineSet
Colour: ffff00
EndChar

StartChar: D
Encoding: 68 68 148
Width: 900
VWidth: 0
Flags: W
HStem: 0 210<313 462.896> 630 210<380 522.77>
VStem: 591 293<354.643 560.207>
LayerCount: 2
Fore
SplineSet
6 34 m 0
 6 36 6 38 6 40 c 2
 127 800 l 2
 130 822 151 840 173 840 c 2
 473 840 l 2
 747 840 884 696 884 497 c 0
 884 472 881 446 877 420 c 0
 839 182 648 0 340 0 c 2
 40 0 l 2
 20 0 6 15 6 34 c 0
313 210 m 1
 363 210 l 2
 481 210 568 301 587 420 c 0
 589 435 591 449 591 463 c 0
 591 560 533 630 430 630 c 2
 380 630 l 1
 313 210 l 1
EndSplineSet
Colour: ffff00
EndChar

StartChar: E
Encoding: 69 69 149
Width: 790
VWidth: 0
Flags: W
HStem: 0 210<313 691.059> 310 200<361 689.905> 630 210<380 781.059>
LayerCount: 2
Fore
SplineSet
6 34 m 0
 6 36 6 38 6 40 c 2
 127 800 l 2
 130 822 151 840 173 840 c 2
 773 840 l 2
 793 840 807 825 807 806 c 0
 807 804 807 802 807 800 c 2
 786 670 l 2
 783 648 762 630 740 630 c 2
 380 630 l 1
 361 510 l 1
 681 510 l 2
 701 510 715 495 715 476 c 0
 715 474 714 472 714 470 c 2
 695 350 l 2
 692 328 671 310 649 310 c 2
 329 310 l 1
 313 210 l 1
 683 210 l 2
 703 210 717 195 717 176 c 0
 717 174 717 172 717 170 c 2
 696 40 l 2
 693 18 672 0 650 0 c 2
 40 0 l 2
 20 0 6 15 6 34 c 0
EndSplineSet
Colour: ffff00
EndChar

StartChar: F
Encoding: 70 70 150
Width: 740
VWidth: 0
Flags: W
HStem: 0 21G<30 261> 270 200<364 664.564> 630 210<390 761.059>
LayerCount: 2
Fore
SplineSet
6 34 m 0
 6 36 6 38 6 40 c 2
 127 800 l 2
 130 822 151 840 173 840 c 2
 753 840 l 2
 773 840 787 825 787 806 c 0
 787 804 787 802 787 800 c 2
 766 670 l 2
 763 648 742 630 720 630 c 2
 390 630 l 1
 364 470 l 1
 654 470 l 2
 674 470 688 455 688 436 c 0
 688 434 688 432 688 430 c 2
 669 310 l 2
 666 288 645 270 623 270 c 2
 333 270 l 1
 296 40 l 2
 293 18 272 0 250 0 c 2
 40 0 l 2
 20 0 6 15 6 34 c 0
EndSplineSet
Colour: ffff00
EndChar

StartChar: G
Encoding: 71 71 151
Width: 920
VWidth: 0
Flags: W
HStem: -20 210<408.824 589.467> 290 180<493.029 606> 620 240<464.501 710.818>
VStem: 31 302<264.411 485.852>
LayerCount: 2
Fore
SplineSet
31 345 m 0
 31 370 33 394 37 420 c 0
 75 658 278 860 576 860 c 0
 761 860 859 792 869 785 c 0
 882 777 890 768 890 758 c 0
 890 746 884 739 878 730 c 2
 785 600 l 2
 776 587 763 580 752 580 c 0
 745 580 734 582 728 585 c 0
 721 589 670 620 578 620 c 0
 451 620 356 542 337 420 c 0
 334 401 333 384 333 367 c 0
 333 253 399 190 510 190 c 0
 540 190 568 195 592 202 c 1
 606 290 l 1
 506 290 l 2
 486 290 472 305 472 324 c 0
 472 326 472 328 472 330 c 2
 488 430 l 2
 491 452 512 470 534 470 c 2
 834 470 l 2
 872 470 887 461 887 431 c 0
 887 425 886 418 885 410 c 2
 844 150 l 2
 833 82 648 -20 437 -20 c 0
 171 -20 31 141 31 345 c 0
EndSplineSet
Colour: ffff00
EndChar

StartChar: H
Encoding: 72 72 152
Width: 920
VWidth: 0
Flags: W
HStem: 0 21G<30 251 550 771> 290 220<361 566> 820 20G<162 383 682 903>
LayerCount: 2
Fore
SplineSet
6 34 m 0
 6 36 6 38 6 40 c 2
 127 800 l 2
 130 822 151 840 173 840 c 2
 373 840 l 2
 393 840 407 825 407 806 c 0
 407 804 407 802 407 800 c 2
 361 510 l 1
 601 510 l 1
 647 800 l 2
 650 822 671 840 693 840 c 2
 893 840 l 2
 913 840 927 825 927 806 c 0
 927 804 927 802 927 800 c 2
 806 40 l 2
 803 18 782 0 760 0 c 2
 560 0 l 2
 540 0 526 15 526 34 c 0
 526 36 526 38 526 40 c 2
 566 290 l 1
 326 290 l 1
 286 40 l 2
 283 18 262 0 240 0 c 2
 40 0 l 2
 20 0 6 15 6 34 c 0
EndSplineSet
Colour: ffff00
EndChar

StartChar: I
Encoding: 73 73 153
Width: 400
VWidth: 0
Flags: W
HStem: 0 21G<30 251> 820 20G<162 383>
LayerCount: 2
Fore
SplineSet
6 34 m 0
 6 36 6 38 6 40 c 2
 127 800 l 2
 130 822 151 840 173 840 c 2
 373 840 l 2
 393 840 407 825 407 806 c 0
 407 804 407 802 407 800 c 2
 286 40 l 2
 283 18 262 0 240 0 c 2
 40 0 l 2
 20 0 6 15 6 34 c 0
EndSplineSet
Colour: ffff00
EndChar

StartChar: J
Encoding: 74 74 154
Width: 580
VWidth: 0
Flags: W
HStem: -10 210<61.729 208.408> 820 20G<342 563>
LayerCount: 2
Fore
SplineSet
-48 80 m 0
 -48 82 -47 83 -47 85 c 0
 -46 91 -43 97 -39 102 c 2
 56 214 l 2
 62 222 73 226 82 226 c 0
 89 226 95 225 100 221 c 0
 117 210 140 200 162 200 c 0
 187 200 214 213 221 260 c 2
 307 800 l 2
 310 822 331 840 353 840 c 2
 553 840 l 2
 573 840 587 825 587 806 c 0
 587 804 587 802 587 800 c 2
 498 240 l 2
 471 67 327 -10 188 -10 c 0
 78 -10 0 30 -37 60 c 0
 -44 65 -48 72 -48 80 c 0
EndSplineSet
Colour: ffff00
EndChar

StartChar: K
Encoding: 75 75 155
Width: 890
VWidth: 0
Flags: W
HStem: 0 21G<30 251 525.5 782.5> 820 20G<162 383 643.5 884.5>
LayerCount: 2
Fore
SplineSet
6 34 m 0
 6 36 6 38 6 40 c 2
 127 800 l 2
 130 822 151 840 173 840 c 2
 373 840 l 2
 393 840 407 825 407 806 c 0
 407 804 407 802 407 800 c 2
 364 530 l 1
 404 530 l 1
 597 800 l 2
 617 827 629 840 658 840 c 2
 873 840 l 2
 896 840 909 831 909 818 c 0
 909 812 907 806 902 800 c 2
 620 440 l 1
 811 40 l 2
 813 35 815 29 814 25 c 0
 812 10 795 0 770 0 c 2
 540 0 l 2
 511 0 503 13 491 40 c 2
 371 320 l 1
 331 320 l 1
 286 40 l 2
 283 18 262 0 240 0 c 2
 40 0 l 2
 20 0 6 15 6 34 c 0
EndSplineSet
Colour: ffff00
EndChar

StartChar: L
Encoding: 76 76 156
Width: 660
VWidth: 0
Flags: W
HStem: 0 210<313 581.113> 820 20G<162 383>
LayerCount: 2
Fore
SplineSet
6 34 m 0
 6 36 6 38 6 40 c 2
 127 800 l 2
 130 822 151 840 173 840 c 2
 373 840 l 2
 393 840 407 825 407 806 c 0
 407 804 407 802 407 800 c 2
 313 210 l 1
 573 210 l 2
 593 210 608 195 608 176 c 0
 608 174 607 172 607 170 c 2
 586 40 l 2
 583 18 562 0 540 0 c 2
 40 0 l 2
 20 0 6 15 6 34 c 0
EndSplineSet
Colour: ffff00
EndChar

StartChar: M
Encoding: 77 77 157
Width: 1080
VWidth: 0
Flags: W
HStem: 0 21G<30 251 710 931> 820 20G<162 421 805 1063>
LayerCount: 2
Fore
SplineSet
6 34 m 0
 6 36 6 38 6 40 c 2
 127 800 l 2
 130 822 151 840 173 840 c 2
 408 840 l 2
 434 840 446 824 457 800 c 1
 561 510 l 1
 757 800 l 1
 776 824 792 840 818 840 c 2
 1053 840 l 2
 1073 840 1087 825 1087 806 c 0
 1087 804 1087 802 1087 800 c 2
 966 40 l 2
 963 18 942 0 920 0 c 2
 720 0 l 2
 700 0 686 15 686 34 c 0
 686 36 686 38 686 40 c 2
 753 460 l 1
 585 220 l 1
 570 197 556 180 539 180 c 2
 509 180 l 1
 479 180 l 2
 462 180 452 197 445 220 c 1
 353 460 l 1
 286 40 l 2
 283 18 262 0 240 0 c 2
 40 0 l 2
 20 0 6 15 6 34 c 0
EndSplineSet
Colour: ffff00
EndChar

StartChar: N
Encoding: 78 78 158
Width: 920
VWidth: 0
Flags: W
HStem: 0 21G<30 251 537 771> 820 20G<162 396 682 903>
LayerCount: 2
Fore
SplineSet
6 34 m 0
 6 36 6 38 6 40 c 2
 127 800 l 2
 130 822 151 840 173 840 c 2
 383 840 l 2
 409 840 421 824 432 800 c 1
 587 420 l 1
 647 800 l 2
 650 822 671 840 693 840 c 2
 893 840 l 2
 913 840 927 825 927 806 c 0
 927 804 927 802 927 800 c 2
 806 40 l 2
 803 18 782 0 760 0 c 2
 550 0 l 2
 524 0 512 16 501 40 c 2
 342 390 l 1
 286 40 l 2
 283 18 262 0 240 0 c 2
 40 0 l 2
 20 0 6 15 6 34 c 0
EndSplineSet
Colour: ffff00
EndChar

StartChar: O
Encoding: 79 79 159
Width: 1000
VWidth: 0
Flags: W
HStem: -20 240<389.369 570.542> 620 240<442.628 625.234>
VStem: 31 298<288.856 493.39> 685 298<346.61 551.144>
LayerCount: 2
Fore
SplineSet
31 345 m 0
 31 370 33 394 37 420 c 0
 75 658 278 860 576 860 c 0
 842 860 983 699 983 495 c 0
 983 471 981 445 977 420 c 0
 939 182 735 -20 437 -20 c 0
 171 -20 31 141 31 345 c 0
329 378 m 0
 329 281 387 220 475 220 c 0
 575 220 663 298 682 420 c 0
 684 435 685 449 685 462 c 0
 685 560 626 620 538 620 c 0
 438 620 351 542 332 420 c 0
 330 405 329 391 329 378 c 0
EndSplineSet
Colour: ffff00
EndChar

StartChar: P
Encoding: 80 80 160
Width: 870
VWidth: 0
Flags: W
HStem: 0 21G<30 251> 240 200<350 550.534> 640 200<381 571.526>
LayerCount: 2
Fore
SplineSet
6 34 m 0
 6 36 6 38 6 40 c 2
 127 800 l 2
 130 822 151 840 173 840 c 2
 573 840 l 2
 774 840 880 730 880 588 c 0
 880 572 879 556 876 540 c 0
 850 376 709 240 478 240 c 2
 318 240 l 1
 286 40 l 2
 283 18 262 0 240 0 c 2
 40 0 l 2
 20 0 6 15 6 34 c 0
350 440 m 1
 460 440 l 2
 541 440 587 483 596 540 c 0
 597 546 597 551 597 556 c 0
 597 605 560 640 491 640 c 2
 381 640 l 1
 350 440 l 1
EndSplineSet
Colour: ffff00
EndChar

StartChar: Q
Encoding: 81 81 161
Width: 1010
VWidth: 0
Flags: W
HStem: -20 240<389.369 518.51> 620 240<442.628 625.234>
VStem: 31 298<288.856 493.39> 685 298<348.196 551.144>
LayerCount: 2
Fore
SplineSet
31 345 m 0
 31 370 33 394 37 420 c 0
 75 658 278 860 576 860 c 0
 842 860 983 699 983 495 c 0
 983 471 981 445 977 420 c 0
 961 316 911 219 837 142 c 1
 883 90 l 2
 888 85 890 77 889 69 c 0
 888 61 884 53 877 48 c 2
 776 -38 l 2
 769 -44 762 -47 754 -47 c 0
 747 -47 739 -44 734 -38 c 2
 678 30 l 1
 608 -2 527 -20 437 -20 c 0
 171 -20 31 141 31 345 c 0
329 378 m 0
 329 281 387 220 475 220 c 0
 490 220 505 222 519 225 c 1
 463 294 l 2
 458 300 456 308 457 315 c 0
 458 323 462 331 469 337 c 2
 559 415 l 2
 565 420 572 423 580 423 c 0
 587 423 595 420 601 414 c 2
 660 346 l 1
 670 369 678 393 682 420 c 0
 684 435 685 449 685 462 c 0
 685 560 626 620 538 620 c 0
 438 620 351 542 332 420 c 0
 330 405 329 391 329 378 c 0
EndSplineSet
Colour: ffff00
EndChar

StartChar: R
Encoding: 82 82 162
Width: 900
VWidth: 0
Flags: W
HStem: 0 21G<30 251 535.5 792.5> 640 200<381 571.526>
LayerCount: 2
Fore
SplineSet
6 34 m 0
 6 36 6 38 6 40 c 2
 127 800 l 2
 130 822 151 840 173 840 c 2
 573 840 l 2
 774 840 880 730 880 588 c 0
 880 572 879 556 876 540 c 0
 859 433 793 338 685 285 c 1
 821 40 l 2
 823 35 825 29 824 25 c 0
 822 10 805 0 780 0 c 2
 550 0 l 2
 521 0 513 13 501 40 c 2
 408 240 l 1
 318 240 l 1
 286 40 l 2
 283 18 262 0 240 0 c 2
 40 0 l 2
 20 0 6 15 6 34 c 0
350 440 m 1
 460 440 l 2
 541 440 587 483 596 540 c 0
 597 546 597 551 597 556 c 0
 597 605 560 640 491 640 c 2
 381 640 l 1
 350 440 l 1
EndSplineSet
Colour: ffff00
EndChar

StartChar: S
Encoding: 83 83 163
Width: 820
VWidth: 0
Flags: W
HStem: -20 210<239.152 449.353> 650 210<403.359 615.849>
LayerCount: 2
Fore
SplineSet
-6 87 m 0
 -6 99 0 106 6 115 c 2
 98 240 l 2
 107 253 120 260 131 260 c 0
 138 260 149 258 155 255 c 0
 218 218 303 190 370 190 c 0
 414 190 451 197 456 230 c 0
 456 232 457 235 457 237 c 0
 457 261 433 275 414 280 c 0
 359 297 268 328 216 355 c 0
 154 387 80 442 80 546 c 0
 80 558 81 571 83 585 c 0
 114 778 300 860 496 860 c 0
 634 860 745 811 799 780 c 0
 811 774 819 764 819 753 c 0
 819 752 819 751 819 750 c 0
 817 740 813 734 807 725 c 2
 727 615 l 2
 718 602 705 595 694 595 c 0
 687 595 676 597 670 600 c 0
 609 634 530 650 473 650 c 0
 435 650 402 644 397 610 c 0
 397 608 397 606 397 604 c 0
 397 582 418 566 439 560 c 0
 514 536 555 523 609 500 c 0
 679 471 774 424 774 297 c 0
 774 282 773 267 770 250 c 0
 740 61 543 -20 347 -20 c 0
 193 -20 73 28 15 60 c 0
 3 66 -6 76 -6 87 c 0
EndSplineSet
Colour: ffff00
EndChar

StartChar: T
Encoding: 84 84 164
Width: 740
VWidth: 0
Flags: W
HStem: 0 21G<200 421> 630 210<91.9407 270 550 761.113>
LayerCount: 2
Fore
SplineSet
66 664 m 0
 66 666 66 668 66 670 c 2
 87 800 l 2
 90 822 111 840 133 840 c 2
 753 840 l 2
 773 840 788 825 788 806 c 0
 788 804 787 802 787 800 c 2
 766 670 l 2
 763 648 742 630 720 630 c 2
 550 630 l 1
 456 40 l 2
 453 18 432 0 410 0 c 2
 210 0 l 2
 190 0 176 15 176 34 c 0
 176 36 176 38 176 40 c 2
 270 630 l 1
 100 630 l 2
 80 630 66 645 66 664 c 0
EndSplineSet
Colour: ffff00
EndChar

StartChar: U
Encoding: 85 85 165
Width: 920
VWidth: 0
Flags: W
HStem: -20 210<355.424 514.253> 820 20G<162 383 682 903>
LayerCount: 2
Fore
SplineSet
40 232 m 0
 40 247 41 263 44 280 c 2
 127 800 l 2
 130 822 151 840 173 840 c 2
 373 840 l 2
 393 840 407 825 407 806 c 0
 407 804 407 802 407 800 c 2
 329 310 l 2
 328 301 327 293 327 285 c 0
 327 223 369 190 430 190 c 0
 499 190 557 232 569 310 c 2
 647 800 l 2
 650 822 671 840 693 840 c 2
 893 840 l 2
 913 840 927 825 927 806 c 0
 927 804 927 802 927 800 c 2
 844 280 l 2
 814 92 637 -20 397 -20 c 0
 178 -20 40 73 40 232 c 0
EndSplineSet
Colour: ffff00
EndChar

StartChar: V
Encoding: 86 86 166
Width: 980
VWidth: 0
Flags: W
HStem: 0 21G<287.5 572.5> 820 20G<120.5 362.5 763.5 1004.5>
VStem: 89 303<744.737 837.406>
LayerCount: 2
Fore
SplineSet
89 813 m 0
 89 830 108 840 133 840 c 2
 348 840 l 2
 377 840 388 826 392 800 c 2
 468 300 l 1
 468 270 l 1
 473 270 l 1
 478 270 l 1
 488 300 l 1
 722 800 l 2
 734 826 749 840 778 840 c 2
 993 840 l 2
 1016 840 1029 831 1029 818 c 0
 1029 817 1029 816 1029 815 c 0
 1028 811 1026 805 1022 800 c 1
 611 40 l 1
 606 27 585 0 560 0 c 2
 430 0 l 1
 300 0 l 2
 275 0 262 27 261 40 c 1
 92 800 l 1
 90 804 89 809 89 813 c 0
EndSplineSet
Colour: ffff00
EndChar

StartChar: W
Encoding: 87 87 167
Width: 1370
VWidth: 0
Flags: W
HStem: 0 21G<237.5 504.5 745.5 1012.5> 820 20G<120.5 377.5 678.5 837.5 1138.5 1394.5>
LayerCount: 2
Fore
SplineSet
89 812 m 0
 89 829 108 840 133 840 c 2
 363 840 l 2
 392 840 406 824 407 800 c 2
 434 340 l 1
 434 310 l 1
 444 310 l 1
 454 340 l 1
 647 800 l 1
 656 824 664 840 693 840 c 2
 758 840 l 1
 823 840 l 2
 852 840 856 824 857 800 c 1
 904 340 l 1
 904 310 l 1
 914 310 l 1
 924 340 l 1
 1097 800 l 2
 1106 824 1124 840 1153 840 c 2
 1383 840 l 2
 1406 840 1419 831 1419 818 c 0
 1419 817 1419 816 1419 815 c 0
 1418 811 1416 804 1414 800 c 2
 1051 40 l 1
 1046 27 1025 0 1000 0 c 2
 760 0 l 2
 731 0 718 13 716 40 c 2
 692 420 l 1
 546 40 l 2
 536 13 519 0 490 0 c 2
 250 0 l 2
 225 0 212 27 211 40 c 1
 90 800 l 2
 90 803 89 808 89 812 c 0
EndSplineSet
Colour: ffff00
EndChar

StartChar: X
Encoding: 88 88 168
Width: 940
VWidth: 0
Flags: W
HStem: 0 21G<-11.5 259.5 560.5 832.5> 820 20G<150.5 402.5 683.5 934.5>
LayerCount: 2
Fore
SplineSet
-36 22 m 0
 -36 28 -34 34 -29 40 c 2
 278 430 l 1
 122 800 l 2
 120 805 118 811 119 815 c 0
 121 830 138 840 163 840 c 2
 388 840 l 2
 417 840 425 827 437 800 c 1
 502 580 l 1
 637 800 l 1
 657 827 669 840 698 840 c 2
 923 840 l 2
 946 840 959 831 959 818 c 0
 959 817 959 816 959 815 c 0
 958 811 956 805 952 800 c 2
 678 430 l 1
 861 40 l 2
 863 35 865 29 864 25 c 0
 862 10 845 0 820 0 c 2
 575 0 l 2
 546 0 538 13 526 40 c 1
 450 250 l 1
 306 40 l 1
 286 13 274 0 245 0 c 2
 0 0 l 2
 -23 0 -36 9 -36 22 c 0
EndSplineSet
Colour: ffff00
EndChar

StartChar: Y
Encoding: 89 89 169
Width: 940
VWidth: 0
Flags: W
HStem: 0 21G<300 521> 820 20G<130.5 382.5 703.5 954.5>
LayerCount: 2
Fore
SplineSet
99 813 m 0
 99 830 118 840 143 840 c 2
 368 840 l 2
 397 840 405 827 417 800 c 1
 496 540 l 1
 657 800 l 1
 677 827 689 840 718 840 c 2
 943 840 l 2
 966 840 979 831 979 818 c 0
 979 817 979 816 979 815 c 0
 978 811 976 805 972 800 c 2
 594 280 l 1
 556 40 l 2
 553 18 532 0 510 0 c 2
 310 0 l 2
 290 0 276 15 276 34 c 0
 276 36 276 38 276 40 c 2
 314 280 l 1
 102 800 l 2
 100 804 99 809 99 813 c 0
EndSplineSet
Colour: ffff00
EndChar

StartChar: Z
Encoding: 90 90 170
Width: 830
VWidth: 0
Flags: W
HStem: 0 210<383 741.113> 630 210<131.941 460>
LayerCount: 2
Fore
SplineSet
-24 34 m 0
 -24 36 -24 38 -24 40 c 2
 -5 155 l 2
 -1 183 23 202 46 225 c 2
 460 630 l 1
 140 630 l 2
 120 630 106 645 106 664 c 0
 106 666 106 668 106 670 c 2
 127 800 l 2
 130 822 151 840 173 840 c 2
 803 840 l 2
 823 840 838 825 838 806 c 0
 838 804 837 802 837 800 c 2
 816 670 l 2
 812 642 788 623 765 600 c 2
 383 210 l 1
 733 210 l 2
 753 210 768 195 768 176 c 0
 768 174 767 172 767 170 c 2
 746 40 l 2
 743 18 722 0 700 0 c 2
 10 0 l 2
 -10 0 -24 15 -24 34 c 0
EndSplineSet
Colour: ffff00
EndChar

StartChar: bracketleft
Encoding: 91 91 171
Width: 480
VWidth: 0
Flags: W
HStem: -150 170<233 359.912> 700 170<341 494.912>
LayerCount: 2
Fore
SplineSet
-27 -110 m 2
 121 830 l 2
 124 852 146 870 168 870 c 2
 488 870 l 2
 502 870 513 859 513 845 c 0
 513 843 513 842 513 840 c 2
 496 730 l 2
 493 714 477 700 461 700 c 2
 341 700 l 1
 233 20 l 1
 353 20 l 2
 367 20 378 9 378 -5 c 0
 378 -7 378 -8 378 -10 c 2
 361 -120 l 2
 358 -136 342 -150 326 -150 c 2
 6 -150 l 2
 -14 -150 -27 -135 -27 -116 c 0
 -27 -114 -27 -112 -27 -110 c 2
EndSplineSet
Colour: ffff00
EndChar

StartChar: backslash
Encoding: 92 92 172
Width: 600
VWidth: 0
Flags: W
HStem: 0 21G<320.5 488> 820 20G<124 292.5>
VStem: 108 397
LayerCount: 2
Fore
SplineSet
108 824 m 0
 108 835 116 840 132 840 c 2
 281 840 l 2
 304 840 317 826 320 810 c 2
 503 30 l 1
 503 30 505 23 505 16 c 0
 505 15 505 13 505 12 c 0
 504 4 495 0 481 0 c 2
 332 0 l 2
 309 0 296 14 293 30 c 2
 110 810 l 1
 110 810 108 817 108 824 c 0
EndSplineSet
Colour: ffff00
EndChar

StartChar: bracketright
Encoding: 93 93 173
Width: 480
VWidth: 0
Flags: W
HStem: -150 170<-20.9123 133> 700 170<114.088 241>
LayerCount: 2
Fore
SplineSet
-39 -120 m 2
 -22 -10 l 2
 -19 6 -3 20 13 20 c 2
 133 20 l 1
 241 700 l 1
 121 700 l 2
 107 700 96 711 96 725 c 0
 96 727 96 728 96 730 c 2
 113 840 l 2
 116 856 132 870 148 870 c 2
 468 870 l 2
 488 870 501 855 501 836 c 0
 501 834 501 832 501 830 c 2
 353 -110 l 2
 350 -132 328 -150 306 -150 c 2
 -14 -150 l 2
 -28 -150 -39 -139 -39 -125 c 0
 -39 -123 -39 -122 -39 -120 c 2
EndSplineSet
Colour: ffff00
EndChar

StartChar: asciicircum
Encoding: 94 94 174
Width: 600
VWidth: 0
Flags: W
HStem: 600 240<427.634 479.766>
LayerCount: 2
Fore
SplineSet
58 618 m 0
 58 632 66 638 72 645 c 1
 253 810 l 2
 273 828 288 840 313 840 c 2
 373 840 l 1
 433 840 l 2
 458 840 469 828 483 810 c 2
 612 645 l 1
 615 639 619 634 619 626 c 0
 619 624 618 622 618 620 c 0
 617 612 609 600 595 600 c 2
 477 600 l 2
 457 600 444 612 425 628 c 2
 349 690 l 1
 253 628 l 2
 228 612 213 600 193 600 c 2
 75 600 l 2
 62 600 58 610 58 618 c 0
EndSplineSet
Colour: ffff00
EndChar

StartChar: underscore
Encoding: 95 95 175
Width: 700
VWidth: 0
Flags: W
HStem: -180 180<-14.065 565.065>
LayerCount: 2
Fore
SplineSet
-34 -150 m 2
 -15 -30 l 2
 -12 -14 4 0 20 0 c 2
 560 0 l 2
 574 0 585 -11 585 -25 c 0
 585 -27 585 -28 585 -30 c 2
 566 -150 l 2
 563 -166 547 -180 531 -180 c 2
 -9 -180 l 2
 -23 -180 -34 -169 -34 -155 c 0
 -34 -153 -34 -152 -34 -150 c 2
EndSplineSet
Colour: ffff00
EndChar

StartChar: grave
Encoding: 96 96 176
Width: 450
VWidth: 0
Flags: W
HStem: 600 240<268.332 321.598>
VStem: 70 379
LayerCount: 2
Fore
SplineSet
70 816 m 0
 70 828 78 840 93 840 c 2
 278 840 l 2
 301 840 314 826 324 810 c 2
 442 645 l 2
 445 639 449 634 449 626 c 0
 449 624 448 622 448 620 c 0
 447 612 439 600 425 600 c 2
 315 600 l 2
 295 600 283 612 264 630 c 2
 89 785 l 1
 89 785 70 799 70 816 c 0
EndSplineSet
Colour: ffff00
EndChar

StartChar: v
Encoding: 118 118 177
Width: 780
VWidth: 0
Flags: W
HStem: 0 21G<187.5 472.5> 580 20G<82.5 309.5 540.5 766.5>
VStem: 51 288<454.375 597.694>
LayerCount: 2
Fore
SplineSet
51 573 m 0
 51 590 70 600 95 600 c 2
 295 600 l 2
 324 600 336 587 339 560 c 2
 360 250 l 1
 360 220 l 1
 365 220 l 1
 370 220 l 1
 380 250 l 1
 499 560 l 2
 510 587 526 600 555 600 c 2
 755 600 l 2
 778 600 791 591 791 578 c 0
 791 577 791 576 791 575 c 0
 790 571 788 565 784 560 c 1
 511 40 l 1
 506 27 485 0 460 0 c 2
 330 0 l 1
 200 0 l 2
 175 0 162 27 161 40 c 1
 54 560 l 1
 52 564 51 569 51 573 c 0
EndSplineSet
Colour: ffff00
EndChar

StartChar: w
Encoding: 119 119 178
Width: 1050
VWidth: 0
Flags: W
HStem: 0 21G<140 378.5 551.5 790> 580 20G<79.5 309.5 500.5 619.5 810.5 1039>
VStem: 47 285<373.125 598.843>
LayerCount: 2
Fore
SplineSet
47 577 m 0
 47 596 64 600 95 600 c 2
 295 600 l 2
 324 600 333 587 334 560 c 2
 333 270 l 1
 332 230 l 1
 341 230 l 1
 353 270 l 1
 469 560 l 2
 478 584 486 600 515 600 c 2
 560 600 l 1
 605 600 l 2
 634 600 638 584 639 560 c 2
 663 270 l 1
 661 230 l 1
 671 230 l 1
 683 270 l 1
 774 560 l 2
 783 587 796 600 825 600 c 2
 1025 600 l 2
 1053 600 1067 596 1067 583 c 0
 1067 582 1067 581 1067 580 c 0
 1066 575 1062 565 1059 560 c 2
 826 40 l 2
 817 19 805 0 775 0 c 2
 565 0 l 2
 538 0 530 16 526 40 c 1
 505 250 l 1
 416 40 l 1
 404 16 392 0 365 0 c 2
 155 0 l 2
 125 0 119 19 116 40 c 2
 49 560 l 2
 48 564 47 572 47 577 c 0
EndSplineSet
Colour: ffff00
EndChar

StartChar: x
Encoding: 120 120 179
Width: 760
VWidth: 0
Flags: W
HStem: 0 21G<-11.5 224.5 415.5 652.5> 580 20G<102.5 324.5 505.5 726.5>
LayerCount: 2
Fore
SplineSet
-36 22 m 0
 -36 28 -34 34 -29 40 c 2
 189 310 l 1
 74 560 l 2
 72 565 70 571 71 575 c 0
 73 590 90 600 115 600 c 2
 310 600 l 2
 339 600 347 587 354 560 c 2
 387 420 l 1
 464 560 l 2
 479 587 491 600 520 600 c 2
 715 600 l 2
 738 600 751 591 751 578 c 0
 751 577 751 576 751 575 c 0
 750 571 748 565 744 560 c 2
 549 310 l 1
 681 40 l 2
 683 35 685 29 684 25 c 0
 682 10 665 0 640 0 c 2
 430 0 l 2
 401 0 394 13 386 40 c 2
 349 180 l 1
 266 40 l 2
 250 13 239 0 210 0 c 2
 0 0 l 2
 -23 0 -36 9 -36 22 c 0
EndSplineSet
Colour: ffff00
EndChar

StartChar: y
Encoding: 121 121 180
Width: 780
VWidth: 0
Flags: W
HStem: -260 170<30.2222 207.271> 580 20G<82.5 309.5 540.5 766.5>
LayerCount: 2
Fore
SplineSet
-37 -207 m 0
 -37 -194 -28 -184 -23 -175 c 2
 24 -90 l 2
 31 -78 39 -65 50 -65 c 0
 70 -65 89 -90 136 -90 c 0
 201 -90 224 -54 249 -3 c 1
 198 9 161 41 144 120 c 1
 54 560 l 1
 52 565 50 571 51 575 c 0
 53 590 70 600 95 600 c 2
 295 600 l 2
 324 600 336 587 339 560 c 2
 360 250 l 1
 360 220 l 1
 365 220 l 1
 370 220 l 1
 380 250 l 1
 499 560 l 2
 510 587 526 600 555 600 c 2
 755 600 l 2
 778 600 791 591 791 578 c 0
 791 572 789 566 784 560 c 1
 490 0 l 1
 399 -210 268 -260 149 -260 c 0
 83 -260 33 -247 7 -240 c 0
 -11 -235 -37 -222 -37 -207 c 0
EndSplineSet
Colour: ffff00
EndChar

StartChar: braceleft
Encoding: 123 123 181
Width: 480
VWidth: 0
Flags: W
HStem: 700 170<408.448 504.912>
VStem: 58 252<-68 99.5469> 91 244<39.6573 286.446>
LayerCount: 2
Fore
SplineSet
5 341 m 0xa0
 5 342 5 344 5 345 c 2
 7 360 l 1
 9 375 l 2
 12 391 29 399 44 405 c 0
 58 410 131 445 146 540 c 2
 174 720 l 2
 189 816 264 870 358 870 c 2
 498 870 l 2
 512 870 523 859 523 845 c 0
 523 843 523 842 523 840 c 2
 506 730 l 2
 503 714 487 700 471 700 c 2
 451 700 l 2
 415 700 408 685 401 640 c 2
 381 510 l 2
 363 395 277 360 277 360 c 1
 277 360 335 333 335 245 c 0xa0
 335 234 335 222 333 210 c 2
 313 80 l 2
 311 67 310 56 310 48 c 0
 310 28 318 20 343 20 c 2
 363 20 l 2
 377 20 388 9 388 -5 c 0
 388 -7 388 -8 388 -10 c 2
 371 -120 l 2
 368 -136 352 -150 336 -150 c 2
 196 -150 l 2
 112 -150 58 -107 58 -29 c 0xc0
 58 -20 58 -10 60 0 c 2
 89 180 l 2
 91 190 91 199 91 208 c 0
 91 282 41 311 30 315 c 0
 18 320 5 328 5 341 c 0xa0
EndSplineSet
Colour: ffff00
EndChar

StartChar: bar
Encoding: 124 124 182
Width: 360
VWidth: 0
Flags: W
VStem: -4 362
LayerCount: 2
Fore
SplineSet
-4 -120 m 2
 148 840 l 2
 151 856 167 870 183 870 c 2
 333 870 l 2
 347 870 358 859 358 845 c 0
 358 843 358 842 358 840 c 2
 206 -120 l 2
 203 -136 187 -150 171 -150 c 2
 21 -150 l 2
 7 -150 -4 -139 -4 -125 c 0
 -4 -123 -4 -122 -4 -120 c 2
EndSplineSet
Colour: ffff00
EndChar

StartChar: braceright
Encoding: 125 125 183
Width: 480
VWidth: 0
Flags: W
HStem: -150 170<-30.9123 65.5525>
VStem: 138 245<433.492 680.343> 164 252<618.422 788>
LayerCount: 2
Fore
SplineSet
-49 -120 m 2xc0
 -32 -10 l 2
 -29 6 -13 20 3 20 c 2
 23 20 l 2
 59 20 66 35 73 80 c 2
 93 210 l 2
 111 325 197 360 197 360 c 1
 197 360 138 387 138 475 c 0xc0
 138 486 139 498 141 510 c 2
 161 640 l 2
 163 653 164 664 164 672 c 0xa0
 164 692 156 700 131 700 c 2
 111 700 l 2
 97 700 86 711 86 725 c 0
 86 727 86 728 86 730 c 2
 103 840 l 2
 106 856 122 870 138 870 c 2xc0
 278 870 l 2
 362 870 416 827 416 749 c 0xa0
 416 740 416 730 414 720 c 2
 386 540 l 2
 384 530 383 520 383 511 c 0
 383 438 433 409 444 405 c 0
 456 400 469 392 469 379 c 0
 469 378 469 376 469 375 c 2
 467 360 l 1
 465 345 l 2
 462 329 445 321 430 315 c 0
 416 310 344 275 329 180 c 2
 300 0 l 2
 285 -96 210 -150 116 -150 c 2
 -24 -150 l 2
 -38 -150 -49 -139 -49 -125 c 0
 -49 -123 -49 -122 -49 -120 c 2xc0
EndSplineSet
Colour: ffff00
EndChar

StartChar: asciitilde
Encoding: 126 126 184
Width: 650
VWidth: 0
Flags: W
HStem: 240 180<349.205 481.781> 300 180<162.306 294.804>
LayerCount: 2
Fore
SplineSet
34 307 m 0x40
 34 310 34 313 35 316 c 0
 42 362 104 480 236 480 c 0x40
 283 480 308 465 341 450 c 0
 379 432 404 420 437 420 c 0
 465 420 482 443 495 460 c 0
 501 468 508 475 517 475 c 0
 528 475 534 470 534 470 c 1
 599 433 l 2
 608 428 610 421 610 413 c 0
 610 410 610 407 609 404 c 0
 602 358 540 240 408 240 c 0x80
 361 240 336 255 303 270 c 0
 265 288 241 300 208 300 c 0
 180 300 162 277 149 260 c 0
 143 252 136 245 127 245 c 0
 116 245 110 250 110 250 c 1
 45 287 l 2
 36 292 34 299 34 307 c 0x40
EndSplineSet
Colour: ffff00
EndChar

StartChar: Euro
Encoding: 8364 8364 185
Width: 810
VWidth: 0
Flags: W
HStem: -20 240<435.366 616.577> 275 120<19.1053 85.1539 410 587.062> 445 120<45.9375 90 455 613.895> 620 240<490.654 692.102>
LayerCount: 2
Fore
SplineSet
8 300 m 0
 8 302 8 303 8 305 c 2
 18 365 l 2
 21 381 37 395 53 395 c 2
 83 395 l 1
 84 403 86 412 87 420 c 0
 88 428 89 437 90 445 c 1
 60 445 l 2
 46 445 35 456 35 470 c 0
 35 472 35 473 35 475 c 2
 45 535 l 2
 48 551 63 565 79 565 c 2
 127 565 l 1
 199 735 351 860 586 860 c 0
 749 860 823 795 833 788 c 0
 843 781 853 772 853 761 c 0
 853 750 847 742 841 733 c 2
 749 603 l 2
 740 590 730 580 719 580 c 0
 712 580 704 587 698 590 c 0
 691 594 661 620 588 620 c 0
 529 620 486 600 455 565 c 1
 599 565 l 2
 613 565 625 554 625 540 c 0
 625 538 625 537 625 535 c 2
 615 475 l 2
 612 459 596 445 580 445 c 2
 401 445 l 1
 399 437 398 429 397 420 c 0
 396 411 394 403 394 395 c 1
 573 395 l 2
 587 395 598 384 598 370 c 0
 598 368 598 367 598 365 c 2
 588 305 l 2
 585 289 570 275 554 275 c 2
 410 275 l 1
 429 240 466 220 525 220 c 0
 598 220 636 246 645 250 c 0
 651 253 661 260 668 260 c 0
 679 260 686 250 691 237 c 2
 742 107 l 2
 746 98 748 92 746 82 c 0
 744 70 729 60 716 52 c 0
 704 45 610 -20 447 -20 c 0
 212 -20 100 105 82 275 c 1
 34 275 l 2
 20 275 8 286 8 300 c 0
EndSplineSet
Colour: ffff00
EndChar

StartChar: quoteleft
Encoding: 8216 8216 186
Width: 360
VWidth: 0
Flags: W
HStem: 768 92<305.98 377.947>
VStem: 78 302
LayerCount: 2
Fore
SplineSet
78 485 m 0
 78 487 78 488 78 490 c 2
 100 630 l 2
 124 784 252 860 356 860 c 0
 367 860 377 854 378 840 c 2
 380 791 l 1
 380 791 380 788 380 785 c 0
 378 774 369 770 361 768 c 0
 330 762 276 746 255 660 c 1
 315 660 l 2
 329 660 340 649 340 635 c 0
 340 633 340 632 340 630 c 2
 318 490 l 2
 315 474 299 460 283 460 c 2
 103 460 l 2
 89 460 78 471 78 485 c 0
EndSplineSet
Colour: ff00ff
EndChar

StartChar: quoteright
Encoding: 8217 8217 187
Width: 360
VWidth: 0
Flags: W
HStem: 440 92<68.0534 140.02> 820 20G<155 350>
VStem: 66 303
LayerCount: 2
Fore
SplineSet
66 509 m 1
 66 509 66 512 66 515 c 0
 68 526 77 530 85 532 c 0
 116 538 170 554 191 640 c 1
 131 640 l 2
 117 640 106 651 106 665 c 0
 106 667 106 668 106 670 c 2
 128 810 l 2
 131 826 147 840 163 840 c 2
 343 840 l 2
 357 840 369 829 369 815 c 0
 369 813 369 812 369 810 c 2
 346 670 l 2
 322 516 194 440 90 440 c 0
 79 440 69 446 68 460 c 2
 66 509 l 1
EndSplineSet
Colour: ff00ff
EndChar

StartChar: quotedblleft
Encoding: 8220 8220 188
Width: 660
VWidth: 0
Flags: W
HStem: 460 200<255 316.948 555 616.948> 768 92<305.98 377.947 605.98 677.947>
LayerCount: 2
Fore
SplineSet
78 485 m 0
 78 487 78 488 78 490 c 2
 100 630 l 2
 124 784 252 860 356 860 c 0
 367 860 377 854 378 840 c 2
 380 791 l 1
 380 791 380 788 380 785 c 0
 378 774 369 770 361 768 c 0
 330 762 276 746 255 660 c 1
 315 660 l 2
 329 660 340 649 340 635 c 0
 340 633 340 632 340 630 c 2
 318 490 l 2
 315 474 299 460 283 460 c 2
 103 460 l 2
 89 460 78 471 78 485 c 0
378 485 m 0
 378 487 378 488 378 490 c 2
 400 630 l 2
 424 784 552 860 656 860 c 0
 667 860 677 854 678 840 c 2
 680 791 l 1
 680 791 680 788 680 785 c 0
 678 774 669 770 661 768 c 0
 630 762 576 746 555 660 c 1
 615 660 l 2
 629 660 640 649 640 635 c 0
 640 633 640 632 640 630 c 2
 618 490 l 2
 615 474 599 460 583 460 c 2
 403 460 l 2
 389 460 378 471 378 485 c 0
EndSplineSet
Colour: ff00ff
EndChar

StartChar: quotedblright
Encoding: 8221 8221 189
Width: 660
VWidth: 0
Flags: W
HStem: 440 92<68.0534 140.02 368.053 440.02> 640 200<129.052 191 429.052 491>
LayerCount: 2
Fore
SplineSet
66 509 m 1
 66 509 66 512 66 515 c 0
 68 526 77 530 85 532 c 0
 116 538 170 554 191 640 c 1
 131 640 l 2
 117 640 106 651 106 665 c 0
 106 667 106 668 106 670 c 2
 128 810 l 2
 131 826 147 840 163 840 c 2
 343 840 l 2
 357 840 368 829 368 815 c 0
 368 813 368 812 368 810 c 2
 346 670 l 2
 322 516 194 440 90 440 c 0
 79 440 69 446 68 460 c 2
 66 509 l 1
366 509 m 1
 366 509 366 512 366 515 c 0
 368 526 377 530 385 532 c 0
 416 538 470 554 491 640 c 1
 431 640 l 2
 417 640 406 651 406 665 c 0
 406 667 406 668 406 670 c 2
 428 810 l 2
 431 826 447 840 463 840 c 2
 643 840 l 2
 657 840 668 829 668 815 c 0
 668 813 668 812 668 810 c 2
 646 670 l 2
 622 516 494 440 390 440 c 0
 379 440 369 446 368 460 c 2
 366 509 l 1
EndSplineSet
Colour: ff00ff
EndChar

StartChar: bullet
Encoding: 8226 8226 190
Width: 400
VWidth: 0
Flags: W
HStem: 210 300<133.337 260.663>
VStem: 45 304<298.202 421.798>
LayerCount: 2
Fore
SplineSet
45 336 m 0
 45 344 46 352 47 360 c 0
 60 443 138 510 221 510 c 0
 296 510 349 456 349 384 c 0
 349 376 348 368 347 360 c 0
 334 277 256 210 173 210 c 0
 98 210 45 264 45 336 c 0
EndSplineSet
Colour: ffff00
EndChar

StartChar: endash
Encoding: 8211 8211 191
Width: 770
VWidth: 0
Flags: W
HStem: 270 180<57.9176 716.76>
LayerCount: 2
Fore
SplineSet
38 295 m 0
 38 297 38 298 38 300 c 2
 57 420 l 2
 60 436 75 450 91 450 c 2
 711 450 l 2
 725 450 737 439 737 425 c 0
 737 423 737 422 737 420 c 2
 718 300 l 2
 715 284 699 270 683 270 c 2
 63 270 l 2
 49 270 38 281 38 295 c 0
EndSplineSet
Colour: ffff00
EndChar

StartChar: emdash
Encoding: 8212 8212 192
Width: 1100
VWidth: 0
Flags: W
HStem: 270 180<57.9176 1046.76>
LayerCount: 2
Fore
SplineSet
38 295 m 0
 38 297 38 298 38 300 c 2
 57 420 l 2
 60 436 75 450 91 450 c 2
 1041 450 l 2
 1055 450 1067 439 1067 425 c 0
 1067 423 1067 422 1067 420 c 2
 1048 300 l 2
 1045 284 1029 270 1013 270 c 2
 63 270 l 2
 49 270 38 281 38 295 c 0
EndSplineSet
Colour: ffff00
EndChar

StartChar: ellipsis
Encoding: 8230 8230 193
Width: 1020
VWidth: 0
Flags: W
HStem: 0 200<28.0518 243.948 358.052 573.948 688.052 903.948>
LayerCount: 2
Fore
SplineSet
5 25 m 0
 5 27 5 28 5 30 c 2
 27 170 l 2
 30 186 46 200 62 200 c 2
 242 200 l 2
 256 200 267 189 267 175 c 0
 267 173 267 172 267 170 c 2
 245 30 l 2
 242 14 226 0 210 0 c 2
 30 0 l 2
 16 0 5 11 5 25 c 0
335 25 m 0
 335 27 335 28 335 30 c 2
 357 170 l 2
 360 186 376 200 392 200 c 2
 572 200 l 2
 586 200 597 189 597 175 c 0
 597 173 597 172 597 170 c 2
 575 30 l 2
 572 14 556 0 540 0 c 2
 360 0 l 2
 346 0 335 11 335 25 c 0
665 25 m 0
 665 27 665 28 665 30 c 2
 687 170 l 2
 690 186 706 200 722 200 c 2
 902 200 l 2
 916 200 927 189 927 175 c 0
 927 173 927 172 927 170 c 2
 905 30 l 2
 902 14 886 0 870 0 c 2
 690 0 l 2
 676 0 665 11 665 25 c 0
EndSplineSet
Colour: ffff00
EndChar

StartChar: uni0E33.alt
Encoding: 60979 60979 195
Width: 540
VWidth: 0
Flags: W
HStem: 0 21G<180 401> 410 200<118.628 358.5> 670 90<-508.022 -434.041> 850 90<-501.428 -429.745>
VStem: -645 136<760.835 843.529> -427 136<766.471 849.165> 208 287<248.594 495.5>
LayerCount: 2
Fore
SplineSet
-645 782 m 0
 -645 789 -644 797 -643 805 c 0
 -630 884 -560 940 -446 940 c 0
 -343 940 -291 895 -291 828 c 0
 -291 821 -292 813 -293 805 c 0
 -306 726 -375 670 -489 670 c 0
 -592 670 -645 715 -645 782 c 0
-509 794 m 0
 -509 771 -494 760 -475 760 c 0
 -453 760 -433 775 -428 805 c 0
 -427 809 -427 813 -427 816 c 0
 -427 839 -441 850 -460 850 c 0
 -482 850 -503 835 -508 805 c 0
 -509 801 -509 797 -509 794 c 0
29 524 m 0
 29 526 29 528 29 530 c 0
 31 542 39 549 59 560 c 1
 59 560 152 610 287 610 c 0
 430 610 495 552 495 439 c 0
 495 421 493 401 490 380 c 2
 436 40 l 2
 433 18 412 0 390 0 c 2
 190 0 l 2
 170 0 156 15 156 34 c 0
 156 36 156 38 156 40 c 2
 207 360 l 2
 208 366 208 372 208 377 c 0
 208 402 195 410 165 410 c 1
 139 410 115 404 93 395 c 0
 83 391 72 385 61 385 c 0
 50 385 46 393 44 405 c 2
 30 505 l 1
 30 505 29 516 29 524 c 0
EndSplineSet
Colour: ffff00
EndChar

StartChar: uni0E31.left
Encoding: 60977 60977 196
Width: 0
VWidth: 0
Flags: W
HStem: 690 150<-522 -327.188>
LayerCount: 2
Fore
SplineSet
-737 765 m 0
 -737 770 -737 775 -736 780 c 0
 -730 821 -701 870 -701 870 c 1
 -692 886 -676 900 -656 900 c 2
 -522 900 l 2
 -511 900 -503 893 -503 883 c 0
 -503 879 -504 875 -507 870 c 2
 -522 840 l 1
 -337 840 l 2
 -323 840 -312 829 -312 815 c 0
 -312 813 -312 812 -312 810 c 2
 -326 720 l 2
 -329 704 -345 690 -361 690 c 2
 -641 690 l 2
 -697 690 -737 716 -737 765 c 0
EndSplineSet
Colour: ffff00
EndChar

StartChar: uni0E34.left
Encoding: 60980 60980 197
Width: 0
VWidth: 0
Flags: W
HStem: 690 150<-740.812 -337.188>
LayerCount: 2
Fore
SplineSet
-756 715 m 0
 -756 717 -756 718 -756 720 c 2
 -742 810 l 2
 -739 826 -723 840 -707 840 c 2
 -347 840 l 2
 -333 840 -322 829 -322 815 c 0
 -322 813 -322 812 -322 810 c 2
 -336 720 l 2
 -339 704 -355 690 -371 690 c 2
 -731 690 l 2
 -745 690 -756 701 -756 715 c 0
EndSplineSet
Colour: ffff00
EndChar

StartChar: uni0E35.left
Encoding: 60981 60981 198
Width: 0
VWidth: 0
Flags: W
HStem: 690 230<-478.065 -316.935> 690 150<-750.812 -503.253>
LayerCount: 2
Fore
SplineSet
-766 715 m 0x40
 -766 717 -766 718 -766 720 c 2
 -752 810 l 2
 -749 826 -733 840 -717 840 c 2
 -567 840 l 2x40
 -511 840 -493 800 -493 800 c 1
 -479 890 l 2
 -476 906 -460 920 -444 920 c 2
 -314 920 l 2
 -300 920 -289 909 -289 895 c 0
 -289 893 -289 892 -289 890 c 2
 -316 720 l 2
 -319 704 -335 690 -351 690 c 2x80
 -741 690 l 2
 -755 690 -766 701 -766 715 c 0x40
EndSplineSet
Colour: ffff00
EndChar

StartChar: uni0E36.left
Encoding: 60982 60982 199
Width: 0
VWidth: 0
Flags: W
HStem: 690 150<-760.812 -563.092> 690 80<-457.689 -393.522> 850 80<-450.478 -387.494>
VStem: -553 95<798.247 844.876> -386 96<775.124 847.306>
LayerCount: 2
Fore
SplineSet
-776 715 m 0xb8
 -776 717 -776 718 -776 720 c 2
 -762 810 l 2
 -759 826 -743 840 -727 840 c 2
 -607 840 l 2xb8
 -581 840 -564 819 -553 798 c 1
 -553 802 -553 806 -552 810 c 0
 -541 882 -479 930 -403 930 c 0
 -335 930 -290 891 -290 831 c 0
 -290 824 -291 817 -292 810 c 0
 -303 738 -365 690 -441 690 c 2x78
 -751 690 l 2
 -765 690 -776 701 -776 715 c 0xb8
-458 801 m 0
 -458 781 -446 770 -428 770 c 0x78
 -407 770 -391 784 -387 810 c 0
 -386 814 -386 817 -386 820 c 0
 -386 840 -406 841 -415 850 c 1
 -436 850 -453 836 -457 810 c 0
 -458 807 -458 804 -458 801 c 0
EndSplineSet
Colour: ffff00
EndChar

StartChar: uni0E37.left
Encoding: 60983 60983 200
Width: 0
VWidth: 0
Flags: W
HStem: 690 230<-596.9 -485 -484 -473 -417.844 -316.935> 690 150<-760.812 -621.113> 690 100<-485 -435>
LayerCount: 2
Fore
SplineSet
-776 715 m 0x40
 -776 717 -776 718 -776 720 c 2
 -762 810 l 2
 -759 826 -743 840 -727 840 c 2
 -677 840 l 2x40
 -626 840 -613 800 -613 800 c 1
 -597 900 l 2
 -595 911 -585 920 -574 920 c 2
 -484 920 l 2x80
 -473 920 -465 911 -467 900 c 2
 -485 790 l 1
 -435 790 l 1x20
 -417 900 l 2
 -415 911 -405 920 -394 920 c 2
 -304 920 l 2
 -293 920 -285 911 -287 900 c 2
 -316 720 l 2
 -319 704 -335 690 -351 690 c 2x80
 -751 690 l 2
 -765 690 -776 701 -776 715 c 0x40
EndSplineSet
Colour: ffff00
EndChar

StartChar: uni0E38.low
Encoding: 60984 60984 201
Width: 0
VWidth: -200
Flags: W
HStem: -490 220<-401.56 -214.579>
VStem: -447 256<-388.906 -304>
LayerCount: 2
Fore
SplineSet
-447 -360 m 2
 -438 -300 l 2
 -435 -284 -419 -270 -403 -270 c 2
 -243 -270 l 2
 -211 -270 -191 -289 -191 -318 c 0
 -191 -322 -191 -326 -192 -330 c 2
 -213 -460 l 2
 -216 -476 -232 -490 -248 -490 c 2
 -388 -490 l 2
 -402 -490 -413 -479 -413 -465 c 0
 -413 -463 -413 -462 -413 -460 c 2
 -402 -390 l 1
 -422 -390 l 2
 -436 -390 -447 -379 -447 -365 c 0
 -447 -363 -447 -362 -447 -360 c 2
EndSplineSet
Colour: ffff00
EndChar

StartChar: uni0E39.low
Encoding: 60985 60985 202
Width: 0
VWidth: 0
Flags: W
HStem: -490 220<-621.861 -443.36 -357.065 -216.457> -490 90<-443 -373>
LayerCount: 2
Fore
SplineSet
-667 -360 m 2x80
 -658 -300 l 2
 -655 -284 -639 -270 -623 -270 c 2
 -483 -270 l 2x80
 -451 -270 -431 -289 -431 -318 c 0
 -431 -322 -431 -326 -432 -330 c 2
 -443 -400 l 1
 -373 -400 l 1x40
 -358 -300 l 2
 -355 -284 -339 -270 -323 -270 c 2
 -203 -270 l 2
 -189 -270 -178 -281 -178 -295 c 0
 -178 -297 -178 -298 -178 -300 c 2
 -198 -430 l 2
 -204 -465 -238 -490 -298 -490 c 2
 -548 -490 l 2
 -602 -490 -629 -470 -629 -440 c 0
 -629 -437 -629 -433 -628 -430 c 2
 -622 -390 l 1
 -642 -390 l 2
 -656 -390 -667 -379 -667 -365 c 0
 -667 -363 -667 -362 -667 -360 c 2x80
EndSplineSet
Colour: ffff00
EndChar

StartChar: uni0E3A.low
Encoding: 60986 60986 203
Width: 0
VWidth: 0
Flags: W
HStem: -430 160<-406.673 -224.204>
VStem: -423 216<-352.5 -344>
LayerCount: 2
Fore
SplineSet
-423 -400 m 2
 -408 -300 l 2
 -405 -284 -389 -270 -373 -270 c 2
 -233 -270 l 2
 -219 -270 -207 -281 -207 -295 c 0
 -207 -297 -207 -298 -207 -300 c 2
 -223 -400 l 2
 -226 -416 -242 -430 -258 -430 c 2
 -398 -430 l 2
 -412 -430 -423 -419 -423 -405 c 0
 -423 -403 -423 -402 -423 -400 c 2
EndSplineSet
Colour: ffff00
EndChar

StartChar: uni0E47.left
Encoding: 60999 60999 204
Width: 0
VWidth: 0
Flags: W
HStem: 670 115<-651.5 -509.389> 680 140<-458.987 -331.995> 865 115<-576.738 -279.018>
VStem: -751 167<788.24 858.496>
LayerCount: 2
Fore
SplineSet
-751 798 m 0xb0
 -751 807 -750 816 -749 825 c 0
 -736 907 -668 980 -550 980 c 2
 -295 980 l 2
 -281 980 -270 969 -270 955 c 0
 -270 953 -270 952 -270 950 c 2
 -278 895 l 2
 -281 879 -297 865 -313 865 c 2
 -528 865 l 2
 -555 865 -580 852 -584 825 c 0
 -584 823 -584 820 -584 818 c 0
 -584 796 -566 785 -541 785 c 0xb0
 -517 785 -503 794 -494 805 c 0
 -488 813 -481 820 -470 820 c 2
 -358 820 l 2
 -342 820 -335 806 -331 790 c 2
 -309 710 l 1
 -309 710 -304 699 -305 695 c 0
 -307 685 -319 680 -330 680 c 2
 -432 680 l 2x70
 -448 680 -456 694 -460 710 c 1
 -465 742 l 1
 -488 706 -529 670 -599 670 c 0
 -704 670 -751 728 -751 798 c 0xb0
EndSplineSet
Colour: ffff00
EndChar

StartChar: uni0E4D.high
Encoding: 61005 61005 205
Width: 0
VWidth: 300
Flags: W
HStem: 920 75<-150.284 -86.5602> 1075 75<-145.44 -81.2228>
VStem: -267 116<997.424 1069.75> -80 116<999.244 1073.68>
AnchorPoint: "th-mkmk" -60 0 mark 0
LayerCount: 2
Fore
SplineSet
-267 1018 m 0
 -267 1023 -267 1029 -266 1035 c 0
 -256 1100 -193 1150 -98 1150 c 0
 -11 1150 36 1109 36 1052 c 0
 36 1047 35 1041 34 1035 c 0
 24 970 -39 920 -134 920 c 0
 -221 920 -267 961 -267 1018 c 0
-151 1026 m 0
 -151 1007 -141 995 -122 995 c 0
 -100 995 -85 1011 -81 1035 c 0
 -80 1038 -80 1041 -80 1044 c 0
 -80 1063 -91 1075 -110 1075 c 0
 -132 1075 -147 1059 -151 1035 c 0
 -152 1032 -151 1029 -151 1026 c 0
EndSplineSet
Substitution2: "TH Nikhahit High-Left" uni0E4D.high.left
Colour: ffff00
EndChar

StartChar: uni0E48.low
Encoding: 61000 61000 206
Width: 0
VWidth: 0
Flags: W
HStem: 690 230<-208.065 -36.935>
VStem: -236 227
AnchorPoint: "th-vow-above" -25 660 mark 0
LayerCount: 2
Fore
SplineSet
-236 715 m 0
 -236 717 -236 718 -236 720 c 2
 -209 890 l 2
 -206 906 -190 920 -174 920 c 2
 -34 920 l 2
 -20 920 -9 909 -9 895 c 0
 -9 893 -9 892 -9 890 c 2
 -36 720 l 2
 -39 704 -55 690 -71 690 c 2
 -211 690 l 2
 -225 690 -236 701 -236 715 c 0
EndSplineSet
Substitution2: "TH Tone Low to High" uni0E48
Colour: ffff00
EndChar

StartChar: uni0E49.low
Encoding: 61001 61001 207
Width: 0
VWidth: 0
Flags: W
HStem: 690 120<-177 -17.1053> 810 110<-357.982 -312>
VStem: -404 398<729.6 766.349>
AnchorPoint: "th-vow-above" -25 660 mark 0
LayerCount: 2
Fore
SplineSet
-404 723 m 0xa0
 -404 725 -404 728 -404 730 c 0
 -401 747 -388 759 -373 770 c 1
 -312 810 l 1
 -342 810 l 2
 -356 810 -367 821 -367 835 c 0
 -367 837 -367 838 -367 840 c 2
 -359 890 l 2
 -356 906 -340 920 -324 920 c 2
 -144 920 l 2x60
 -121 920 -110 902 -110 886 c 0
 -110 884 -111 882 -111 880 c 0
 -114 861 -126 848 -137 840 c 2
 -177 810 l 1
 -32 810 l 2
 -18 810 -6 799 -6 785 c 0
 -6 783 -6 782 -6 780 c 2
 -16 720 l 2
 -19 704 -35 690 -51 690 c 2
 -371 690 l 2
 -393 690 -404 705 -404 723 c 0xa0
EndSplineSet
Substitution2: "TH Tone Low to High" uni0E49
Colour: ffff00
EndChar

StartChar: uni0E4A.low
Encoding: 61002 61002 208
Width: 0
VWidth: 0
Flags: W
HStem: 690 230<-238.065 -85.3269> 690 100<-85 -17.25> 810 120<-377 -278.983>
VStem: -499 167<690.059 804.266>
AnchorPoint: "th-vow-above" -25 660 mark 0
LayerCount: 2
Fore
SplineSet
-499 725 m 0x70
 -499 729 -499 733 -499 739 c 0
 -499 750 -499 765 -496 780 c 0
 -482 869 -416 930 -338 930 c 0x70
 -291 930 -263 892 -245 851 c 1
 -239 890 l 2
 -236 906 -220 920 -204 920 c 2
 -94 920 l 2x90
 -80 920 -69 909 -69 895 c 0
 -69 893 -69 892 -69 890 c 2
 -85 790 l 1
 -35 790 l 2
 -21 790 -10 779 -10 765 c 0
 -10 763 -10 762 -10 760 c 2
 -16 720 l 2
 -19 704 -35 690 -51 690 c 2
 -241 690 l 2
 -255 690 -266 701 -266 715 c 0
 -266 717 -266 718 -266 720 c 2
 -259 763 l 1
 -269 789 -284 810 -297 810 c 0
 -317 810 -327 782 -330 760 c 0
 -332 750 -332 741 -332 734 c 0
 -332 728 -332 724 -331 720 c 0
 -330 715 -328 709 -329 705 c 0
 -331 695 -345 690 -356 690 c 2
 -471 690 l 2
 -490 690 -499 709 -499 725 c 0x70
EndSplineSet
Substitution2: "TH Tone Low to High" uni0E4A
Colour: ffff00
EndChar

StartChar: uni0E4B.low
Encoding: 61003 61003 209
Width: 0
VWidth: 0
Flags: W
HStem: 690 230<-203.065 -61.935> 755 100<-297.8 -225 -40 32.75>
VStem: -306 346<785 825>
AnchorPoint: "th-vow-above" -25 660 mark 0
LayerCount: 2
Fore
SplineSet
-306 780 m 0x60
 -306 782 -306 783 -306 785 c 2
 -299 825 l 2
 -296 841 -281 855 -265 855 c 2
 -210 855 l 1x60
 -204 890 l 2
 -201 906 -185 920 -169 920 c 2
 -59 920 l 2xa0
 -45 920 -34 909 -34 895 c 0
 -34 893 -34 892 -34 890 c 2
 -40 855 l 1
 15 855 l 2
 29 855 40 844 40 830 c 0
 40 828 40 827 40 825 c 2
 34 785 l 2
 31 769 16 755 0 755 c 2
 -55 755 l 1x60
 -61 720 l 2
 -64 704 -80 690 -96 690 c 2
 -206 690 l 2xa0
 -220 690 -231 701 -231 715 c 0
 -231 717 -231 718 -231 720 c 2
 -225 755 l 1
 -280 755 l 2
 -294 755 -306 766 -306 780 c 0x60
EndSplineSet
Substitution2: "TH Tone Low to High" uni0E4B
Colour: ffff00
EndChar

StartChar: uni0E4C.low
Encoding: 61004 61004 210
Width: 0
VWidth: 0
Flags: W
HStem: 770 140<-133 25.6783>
VStem: -312 352<828.308 870.352>
AnchorPoint: "th-vow-above" -25 660 mark 0
LayerCount: 2
Fore
SplineSet
-312 793 m 0
 -312 801 -311 810 -310 820 c 0
 -301 878 -247 910 -186 910 c 2
 14 910 l 2
 28 910 40 899 40 885 c 0
 40 883 40 882 40 880 c 2
 27 800 l 2
 24 784 8 770 -8 770 c 2
 -133 770 l 1
 -126 740 l 1
 -126 740 -122 729 -123 725 c 0
 -125 715 -139 710 -150 710 c 2
 -273 710 l 2
 -289 710 -298 724 -304 740 c 1
 -304 740 -312 762 -312 793 c 0
EndSplineSet
Substitution2: "TH Tone Low to High" uni0E4C
Colour: ffff00
EndChar

StartChar: uni0E48.low.left
Encoding: 986696 986696 211
Width: 0
VWidth: 0
Flags: W
HStem: 690 230<-528.065 -356.935>
VStem: -556 227
LayerCount: 2
Fore
SplineSet
-556 715 m 0
 -556 717 -556 718 -556 720 c 2
 -529 890 l 2
 -526 906 -510 920 -494 920 c 2
 -354 920 l 2
 -340 920 -329 909 -329 895 c 0
 -329 893 -329 892 -329 890 c 2
 -356 720 l 2
 -359 704 -375 690 -391 690 c 2
 -531 690 l 2
 -545 690 -556 701 -556 715 c 0
EndSplineSet
Colour: ffff00
EndChar

StartChar: uni0E49.low.left
Encoding: 986697 986697 212
Width: 0
VWidth: 0
Flags: W
HStem: 690 120<-477 -317.105> 810 110<-657.982 -612>
VStem: -704 398<729.6 766.349>
LayerCount: 2
Fore
SplineSet
-704 723 m 0xa0
 -704 725 -704 728 -704 730 c 0
 -701 747 -688 759 -673 770 c 1
 -612 810 l 1
 -642 810 l 2
 -656 810 -667 821 -667 835 c 0
 -667 837 -667 838 -667 840 c 2
 -659 890 l 2
 -656 906 -640 920 -624 920 c 2
 -444 920 l 2x60
 -421 920 -410 902 -410 886 c 0
 -410 884 -411 882 -411 880 c 0
 -414 861 -426 848 -437 840 c 2
 -477 810 l 1
 -332 810 l 2
 -318 810 -306 799 -306 785 c 0
 -306 783 -306 782 -306 780 c 2
 -316 720 l 2
 -319 704 -335 690 -351 690 c 2
 -671 690 l 2
 -693 690 -704 705 -704 723 c 0xa0
EndSplineSet
Colour: ffff00
EndChar

StartChar: uni0E4A.low.left
Encoding: 986698 986698 213
Width: 0
VWidth: 0
Flags: W
HStem: 690 230<-498.065 -365.327> 690 100<-365 -307.25> 815 115<-627 -533.729>
VStem: -739 147<690.059 811.998>
LayerCount: 2
Fore
SplineSet
-739 725 m 0x70
 -739 729 -739 733 -739 739 c 0
 -739 750 -739 765 -736 780 c 0
 -722 869 -666 930 -588 930 c 0x70
 -539 930 -517 887 -506 844 c 1
 -499 890 l 2
 -496 906 -480 920 -464 920 c 2
 -374 920 l 2x90
 -360 920 -349 909 -349 895 c 0
 -349 893 -349 892 -349 890 c 2
 -365 790 l 1
 -325 790 l 2
 -311 790 -300 779 -300 765 c 0
 -300 763 -300 762 -300 760 c 2
 -306 720 l 2
 -309 704 -325 690 -341 690 c 2
 -501 690 l 2
 -515 690 -526 701 -526 715 c 0
 -526 717 -526 718 -526 720 c 2
 -522 746 l 1
 -528 782 -541 815 -556 815 c 0
 -576 815 -585 791 -590 760 c 0
 -592 750 -592 741 -592 734 c 0
 -592 728 -592 724 -591 720 c 0
 -590 715 -588 709 -589 705 c 0
 -591 695 -605 690 -616 690 c 2
 -711 690 l 2
 -730 690 -739 709 -739 725 c 0x70
EndSplineSet
Colour: ffff00
EndChar

StartChar: uni0E4B.low.left
Encoding: 986699 986699 214
Width: 0
VWidth: 0
Flags: W
HStem: 690 230<-553.065 -411.935> 755 100<-647.8 -575 -390 -317.25>
VStem: -656 346<785 825>
LayerCount: 2
Fore
SplineSet
-656 780 m 0x60
 -656 782 -656 783 -656 785 c 2
 -649 825 l 2
 -646 841 -631 855 -615 855 c 2
 -560 855 l 1x60
 -554 890 l 2
 -551 906 -535 920 -519 920 c 2
 -409 920 l 2xa0
 -395 920 -384 909 -384 895 c 0
 -384 893 -384 892 -384 890 c 2
 -390 855 l 1
 -335 855 l 2
 -321 855 -310 844 -310 830 c 0
 -310 828 -310 827 -310 825 c 2
 -316 785 l 2
 -319 769 -334 755 -350 755 c 2
 -405 755 l 1x60
 -411 720 l 2
 -414 704 -430 690 -446 690 c 2
 -556 690 l 2xa0
 -570 690 -581 701 -581 715 c 0
 -581 717 -581 718 -581 720 c 2
 -575 755 l 1
 -630 755 l 2
 -644 755 -656 766 -656 780 c 0x60
EndSplineSet
Colour: ffff00
EndChar

StartChar: uni0E4C.low.left
Encoding: 986700 986700 215
Width: 0
VWidth: 0
Flags: W
HStem: 770 140<-473 -314.322>
VStem: -652 352<828.308 870.352>
LayerCount: 2
Fore
SplineSet
-652 793 m 0
 -652 801 -651 810 -650 820 c 0
 -641 878 -587 910 -526 910 c 2
 -326 910 l 2
 -312 910 -300 899 -300 885 c 0
 -300 883 -300 882 -300 880 c 2
 -313 800 l 2
 -316 784 -332 770 -348 770 c 2
 -473 770 l 1
 -466 740 l 1
 -466 740 -462 729 -463 725 c 0
 -465 715 -479 710 -490 710 c 2
 -613 710 l 2
 -629 710 -638 724 -644 740 c 1
 -644 740 -652 762 -652 793 c 0
EndSplineSet
Colour: ffff00
EndChar

StartChar: uni0E4D.low.left
Encoding: 986701 986701 216
Width: 0
VWidth: 0
Flags: W
HStem: 670 90<-508.022 -434.041> 850 90<-501.428 -429.745>
VStem: -645 136<760.835 843.529> -427 136<766.471 849.165>
LayerCount: 2
Fore
SplineSet
-645 782 m 0
 -645 789 -644 797 -643 805 c 0
 -630 884 -560 940 -446 940 c 0
 -343 940 -291 895 -291 828 c 0
 -291 821 -292 813 -293 805 c 0
 -306 726 -375 670 -489 670 c 0
 -592 670 -645 715 -645 782 c 0
-509 794 m 0
 -509 771 -494 760 -475 760 c 0
 -453 760 -433 775 -428 805 c 0
 -427 809 -427 813 -427 816 c 0
 -427 839 -441 850 -460 850 c 0
 -482 850 -503 835 -508 805 c 0
 -509 801 -509 797 -509 794 c 0
EndSplineSet
Colour: ffff00
EndChar

StartChar: uni0E48.high.left
Encoding: 1044040 1044040 217
Width: 0
VWidth: 0
Flags: W
HStem: 960 210<-433.082 -279.345>
VStem: -458 204
LayerCount: 2
Fore
SplineSet
-458 985 m 0
 -458 987 -458 988 -458 990 c 2
 -434 1140 l 2
 -431 1156 -416 1170 -400 1170 c 2
 -280 1170 l 2
 -266 1170 -254 1159 -254 1145 c 0
 -254 1143 -254 1142 -254 1140 c 2
 -278 990 l 2
 -281 974 -297 960 -313 960 c 2
 -433 960 l 2
 -447 960 -458 971 -458 985 c 0
EndSplineSet
Colour: ffff00
EndChar

StartChar: uni0E49.high.left
Encoding: 1044041 1044041 218
Width: 0
VWidth: 0
Flags: W
HStem: 960 110<-366 -214.114> 1080 90<-537.9 -489>
VStem: -572 366<964.673 1039.48>
LayerCount: 2
Fore
SplineSet
-572 994 m 0
 -572 996 -572 998 -572 1000 c 0
 -569 1017 -560 1029 -545 1040 c 2
 -489 1080 l 1
 -529 1080 l 2
 -540 1080 -548 1089 -546 1100 c 2
 -538 1150 l 2
 -536 1161 -526 1170 -515 1170 c 2
 -335 1170 l 2
 -312 1170 -300 1156 -300 1140 c 0
 -300 1138 -300 1137 -300 1135 c 0
 -302 1121 -309 1113 -320 1105 c 2
 -366 1070 l 1
 -231 1070 l 2
 -217 1070 -206 1059 -206 1045 c 0
 -206 1043 -206 1042 -206 1040 c 2
 -213 990 l 2
 -216 974 -232 960 -248 960 c 2
 -538 960 l 2
 -560 960 -572 976 -572 994 c 0
EndSplineSet
Colour: ffff00
EndChar

StartChar: uni0E4A.high.left
Encoding: 1044042 1044042 219
Width: 0
VWidth: 0
Flags: W
HStem: 960 210<-378.082 -244.454> 960 90<-244 -175.1> 1070 110<-508.5 -415.805>
VStem: -620 158<960.015 1065.79> -403 228<960.008 1049.13>
LayerCount: 2
Fore
SplineSet
-620 990 m 0x78
 -620 1002 -619 1017 -617 1030 c 0
 -603 1119 -544 1180 -473 1180 c 0x78
 -430 1180 -404 1146 -385 1108 c 1
 -379 1140 l 2
 -376 1156 -361 1170 -345 1170 c 2
 -255 1170 l 2x98
 -241 1170 -229 1159 -229 1145 c 0
 -229 1143 -229 1142 -229 1140 c 2
 -244 1050 l 1
 -184 1050 l 2
 -173 1050 -165 1041 -167 1030 c 2
 -175 980 l 2
 -177 969 -187 960 -198 960 c 2x58
 -378 960 l 2x98
 -392 960 -403 971 -403 985 c 0
 -403 987 -403 988 -403 990 c 2
 -397 1026 l 1
 -407 1051 -418 1070 -431 1070 c 0
 -451 1070 -460 1036 -463 1020 c 0
 -465 1010 -466 998 -464 990 c 0
 -463 985 -461 979 -462 975 c 0
 -464 965 -478 960 -489 960 c 2
 -593 960 l 2
 -609 960 -620 974 -620 990 c 0x78
EndSplineSet
Colour: ffff00
EndChar

StartChar: uni0E4B.high.left
Encoding: 1044043 1044043 220
Width: 0
VWidth: 0
Flags: W
HStem: 960 210<-423.082 -289.345> 1020 90<-511.9 -443 -269 -200.1>
VStem: -520 328
LayerCount: 2
Fore
SplineSet
-520 1040 m 2x60
 -512 1090 l 2
 -510 1101 -500 1110 -489 1110 c 2
 -429 1110 l 1x60
 -424 1140 l 2
 -421 1156 -406 1170 -390 1170 c 2
 -290 1170 l 2xa0
 -276 1170 -264 1159 -264 1145 c 0
 -264 1143 -264 1142 -264 1140 c 2
 -269 1110 l 1
 -209 1110 l 2
 -198 1110 -190 1101 -192 1090 c 2
 -200 1040 l 2
 -202 1029 -212 1020 -223 1020 c 2
 -283 1020 l 1x60
 -288 990 l 2
 -291 974 -307 960 -323 960 c 2
 -423 960 l 2xa0
 -437 960 -448 971 -448 985 c 0
 -448 987 -448 988 -448 990 c 2
 -443 1020 l 1
 -503 1020 l 2
 -514 1020 -522 1029 -520 1040 c 2x60
EndSplineSet
Colour: ffff00
EndChar

StartChar: uni0E4C.high.left
Encoding: 1044044 1044044 221
Width: 0
VWidth: 0
Flags: W
HStem: 990 120<-318 -178.959>
VStem: -479 310<1024 1080.8>
LayerCount: 2
Fore
SplineSet
-479 1011 m 0
 -479 1017 -478 1023 -477 1030 c 0
 -468 1088 -425 1110 -364 1110 c 2
 -194 1110 l 2
 -180 1110 -169 1099 -169 1085 c 0
 -169 1083 -169 1082 -169 1080 c 2
 -178 1020 l 2
 -181 1004 -197 990 -213 990 c 2
 -318 990 l 1
 -308 960 l 1
 -308 960 -302 949 -303 945 c 0
 -305 935 -319 930 -330 930 c 2
 -434 930 l 2
 -450 930 -460 944 -466 960 c 0
 -469 969 -479 985 -479 1011 c 0
EndSplineSet
Colour: ffff00
EndChar

StartChar: uni0E4D.high.left
Encoding: 1044045 1044045 222
Width: 0
VWidth: 300
Flags: W
HStem: 920 75<-410.284 -346.56> 1075 75<-405.44 -341.223>
VStem: -527 116<997.424 1069.75> -340 116<999.244 1073.68>
LayerCount: 2
Fore
SplineSet
-527 1018 m 0
 -527 1023 -527 1029 -526 1035 c 0
 -516 1100 -453 1150 -358 1150 c 0
 -271 1150 -224 1109 -224 1052 c 0
 -224 1047 -225 1041 -226 1035 c 0
 -236 970 -299 920 -394 920 c 0
 -481 920 -527 961 -527 1018 c 0
-411 1026 m 0
 -411 1007 -401 995 -382 995 c 0
 -360 995 -345 1011 -341 1035 c 0
 -340 1038 -340 1041 -340 1044 c 0
 -340 1063 -351 1075 -370 1075 c 0
 -392 1075 -407 1059 -411 1035 c 0
 -412 1032 -411 1029 -411 1026 c 0
EndSplineSet
Colour: ffff00
EndChar

StartChar: a.alt
Encoding: 983137 983137 223
Width: 790
VWidth: 0
Flags: W
HStem: -10 190<179.5 388> 0 21G<460 651> 420 190<345.897 454.574> 580 20G<554 745>
LayerCount: 2
Fore
SplineSet
13 241 m 0x80
 13 260 15 280 18 300 c 0
 45 471 179 610 357 610 c 0xa0
 438 610 485 571 512 518 c 1
 519 560 l 2
 522 582 543 600 565 600 c 2
 735 600 l 2
 755 600 769 585 769 566 c 0
 769 564 769 562 769 560 c 2
 686 40 l 2
 683 18 662 0 640 0 c 2
 470 0 l 2x50
 450 0 436 15 436 34 c 0
 436 36 436 38 436 40 c 2
 443 82 l 1
 400 29 339 -10 258 -10 c 0
 101 -10 13 98 13 241 c 0x80
295 269 m 0
 295 210 328 180 369 180 c 0
 407 180 430 198 446 228 c 1
 469 372 l 1
 463 402 445 420 407 420 c 0
 359 420 311 380 298 300 c 0
 296 289 295 279 295 269 c 0
EndSplineSet
Colour: ffff00
EndChar

StartChar: g.alt
Encoding: 983143 983143 224
Width: 790
VWidth: 0
Flags: W
HStem: -260 180<144.378 384.855> -10 190<179.5 388> 420 190<345.897 454.574> 580 20G<554 745>
LayerCount: 2
Fore
SplineSet
13 241 m 0xd0
 13 260 15 280 18 300 c 0
 45 471 179 610 357 610 c 0xe0
 438 610 485 571 512 518 c 1
 519 560 l 2
 522 582 543 600 565 600 c 2
 735 600 l 2
 755 600 769 585 769 566 c 0
 769 564 769 562 769 560 c 2
 683 20 l 2
 655 -156 541 -260 309 -260 c 0
 177 -260 120 -234 109 -230 c 0
 99 -226 83 -218 83 -207 c 0
 83 -200 91 -185 91 -185 c 2
 139 -75 l 2
 145 -63 151 -55 162 -55 c 0
 171 -55 187 -65 209 -70 c 0
 236 -76 271 -80 297 -80 c 0
 355 -80 411 -59 420 0 c 2
 431 68 l 1
 389 23 332 -10 258 -10 c 0
 101 -10 13 98 13 241 c 0xd0
295 269 m 0
 295 210 328 180 369 180 c 0
 407 180 430 198 446 228 c 1
 469 372 l 1
 463 402 445 420 407 420 c 0
 359 420 311 380 298 300 c 0
 296 289 295 279 295 269 c 0
EndSplineSet
Colour: ffff00
EndChar

StartChar: uni25CC
Encoding: 9676 9676 228
Width: 720
VWidth: 0
Flags: W
HStem: -20 70<269.583 334.308> 2 70<164.692 229.417 382.692 447.417> 63 70<81.6919 146.417 485.692 550.417> 156 70<34.583 99.3081 560.583 625.308> 265 70<30.6919 95.417 600.692 665.417> 374 70<69.6919 134.417 595.692 660.417> 467 70<145.692 210.417 549.692 614.417> 528 70<247.583 312.308 465.583 530.308> 550 70<360.692 425.417>
VStem: 32 70<158.885 222.798 270.144 333.466> 67 70<404 441.115> 79 70<93 130.115> 143 70<497 534.115> 162 70<32 69.1153> 245 70<530.885 568> 267 70<-17.1153 20> 358 70<580 617.115> 380 70<32 69.1153> 463 70<530.885 568> 483 70<93 130.115> 547 70<497 534.115> 558 70<158.885 196> 598 70<295 332.115 404 442.648>
LayerCount: 2
Fore
SplineSet
28 295 m 0x1c
 28 297 28 298 28 300 c 0
 31 319 49 335 68 335 c 0
 85 335 98 322 98 305 c 0
 98 303 98 302 98 300 c 0
 95 281 76 265 57 265 c 0
 40 265 28 278 28 295 c 0x1c
32 186 m 0x1c40
 32 188 32 189 32 191 c 0
 35 210 54 226 73 226 c 0
 90 226 102 213 102 196 c 0
 102 194 102 193 102 191 c 0
 99 172 81 156 62 156 c 0
 45 156 32 169 32 186 c 0x1c40
67 404 m 0x1c20
 67 406 67 407 67 409 c 0
 70 428 88 444 107 444 c 0
 124 444 137 431 137 414 c 0
 137 412 137 411 137 409 c 0
 134 390 115 374 96 374 c 0
 79 374 67 387 67 404 c 0x1c20
79 93 m 0x3c10
 79 95 79 96 79 98 c 0
 82 117 100 133 119 133 c 0
 136 133 149 120 149 103 c 0
 149 101 149 100 149 98 c 0
 146 79 127 63 108 63 c 0
 91 63 79 76 79 93 c 0x3c10
143 497 m 0x1e08
 143 499 143 500 143 502 c 0
 146 521 164 537 183 537 c 0
 200 537 213 524 213 507 c 0
 213 505 213 504 213 502 c 0
 210 483 191 467 172 467 c 0
 155 467 143 480 143 497 c 0x1e08
162 32 m 0x5c04
 162 34 162 35 162 37 c 0
 165 56 183 72 202 72 c 0
 219 72 232 59 232 42 c 0
 232 40 232 39 232 37 c 0
 229 18 210 2 191 2 c 0
 174 2 162 15 162 32 c 0x5c04
245 558 m 0x1d02
 245 560 245 561 245 563 c 0
 248 582 267 598 286 598 c 0
 303 598 315 585 315 568 c 0
 315 566 315 565 315 563 c 0
 312 544 294 528 275 528 c 0
 258 528 245 541 245 558 c 0x1d02
267 10 m 0x9c01
 267 12 267 13 267 15 c 0
 270 34 289 50 308 50 c 0
 325 50 337 37 337 20 c 0
 337 18 337 17 337 15 c 0
 334 -4 316 -20 297 -20 c 0
 280 -20 267 -7 267 10 c 0x9c01
358 580 m 0x1c8080
 358 582 358 583 358 585 c 0
 361 604 379 620 398 620 c 0
 415 620 428 607 428 590 c 0
 428 588 428 587 428 585 c 0
 425 566 406 550 387 550 c 0
 370 550 358 563 358 580 c 0x1c8080
380 32 m 0x5c0040
 380 34 380 35 380 37 c 0
 383 56 401 72 420 72 c 0
 437 72 450 59 450 42 c 0
 450 40 450 39 450 37 c 0
 447 18 428 2 409 2 c 0
 392 2 380 15 380 32 c 0x5c0040
463 558 m 0x1d0020
 463 560 463 561 463 563 c 0
 466 582 485 598 504 598 c 0
 521 598 533 585 533 568 c 0
 533 566 533 565 533 563 c 0
 530 544 512 528 493 528 c 0
 476 528 463 541 463 558 c 0x1d0020
483 93 m 0x3c0010
 483 95 483 96 483 98 c 0
 486 117 504 133 523 133 c 0
 540 133 553 120 553 103 c 0
 553 101 553 100 553 98 c 0
 550 79 531 63 512 63 c 0
 495 63 483 76 483 93 c 0x3c0010
547 497 m 0x1e0008
 547 499 547 500 547 502 c 0
 550 521 568 537 587 537 c 0
 604 537 617 524 617 507 c 0
 617 505 617 504 617 502 c 0
 614 483 595 467 576 467 c 0
 559 467 547 480 547 497 c 0x1e0008
558 186 m 0x1c0004
 558 188 558 189 558 191 c 0
 561 210 580 226 599 226 c 0
 616 226 628 213 628 196 c 0
 628 194 628 193 628 191 c 0
 625 172 607 156 588 156 c 0
 571 156 558 169 558 186 c 0x1c0004
593 404 m 0
 593 406 593 407 593 409 c 0
 596 428 614 444 633 444 c 0
 650 444 663 431 663 414 c 0
 663 412 663 411 663 409 c 0
 660 390 641 374 622 374 c 0
 605 374 593 387 593 404 c 0
598 295 m 0x1c0002
 598 297 598 298 598 300 c 0
 601 319 619 335 638 335 c 0
 655 335 668 322 668 305 c 0
 668 303 668 302 668 300 c 0
 665 281 646 265 627 265 c 0
 610 265 598 278 598 295 c 0x1c0002
EndSplineSet
Colour: ffff00
EndChar

StartChar: uni0E0A.swap
Encoding: 60938 60938 229
Width: 770
VWidth: -360
Flags: W
HStem: -20 180<298.901 399.844> 490 168<628.567 750.912> 580 20G<107 332>
VStem: 442 262<224.922 414.004>
AnchorPoint: "th-vow-above" 695 660 basechar 0
LayerCount: 2
Fore
SplineSet
22 179 m 0xd0
 22 192 23 206 25 220 c 0
 44 338 137 420 137 420 c 1
 87 420 l 2
 73 420 61 431 61 445 c 0
 61 447 61 448 61 450 c 2
 80 570 l 2
 83 586 99 599 115 600 c 1
 295 600 l 2xb0
 369 600 399 567 399 512 c 0
 399 502 398 491 396 480 c 0
 383 397 310 317 295 220 c 0
 294 215 294 210 294 206 c 0
 294 174 315 160 345 160 c 0
 379 160 408 177 415 220 c 2
 439 370 l 2
 441 382 442 392 442 400 c 0
 442 418 437 427 428 430 c 0
 418 433 409 439 411 450 c 2
 421 510 l 2
 423 521 436 528 445 535 c 0
 486 565 634 658 744 658 c 0
 758 658 769 647 769 633 c 0
 769 631 769 630 769 628 c 2
 752 520 l 2
 749 504 734 490 718 490 c 0
 661 490 620 480 589 467 c 1
 654 454 704 401 704 345 c 0
 704 340 703 335 702 330 c 2
 685 220 l 2
 659 54 518 -20 317 -20 c 0
 134 -20 22 47 22 179 c 0xd0
EndSplineSet
Colour: ffff00
EndChar

StartChar: uni0E0B.swap
Encoding: 60939 60939 230
Width: 780
VWidth: -360
Flags: W
HStem: -20 180<308.292 409.844> 450 160<170 346> 490 168<638.567 760.912>
VStem: 452 262<224.922 414.004>
AnchorPoint: "th-vow-above" 715 660 basechar 0
LayerCount: 2
Fore
SplineSet
31 176 m 0xb0
 31 190 33 205 35 220 c 0
 53 333 188 369 197 425 c 0
 199 438 196 450 181 450 c 0
 159 450 139 430 126 415 c 0
 121 409 115 400 103 400 c 0
 97 400 85 410 85 410 c 1
 44 435 l 2
 37 440 31 448 33 460 c 2
 53 590 l 2
 54 598 61 607 69 607 c 0
 74 607 77 606 85 600 c 2
 157 550 l 1
 180 570 233 610 307 610 c 0
 385 610 428 565 428 503 c 0
 428 496 427 488 426 480 c 0
 413 397 320 317 305 220 c 0
 304 215 303 209 303 205 c 0
 303 173 325 160 355 160 c 0
 389 160 418 177 425 220 c 2
 449 370 l 2
 451 382 452 392 452 400 c 0
 452 418 447 427 438 430 c 0
 428 433 424 439 426 450 c 2xd0
 436 510 l 2
 438 521 446 528 455 535 c 0
 496 565 644 658 754 658 c 0
 768 658 779 647 779 633 c 0
 779 631 779 630 779 628 c 2
 762 520 l 2
 759 504 744 490 728 490 c 0
 671 490 630 480 599 467 c 1
 664 454 714 401 714 345 c 0
 714 340 713 335 712 330 c 2
 695 220 l 2
 669 54 528 -20 327 -20 c 0
 145 -20 31 41 31 176 c 0xb0
EndSplineSet
Colour: ffff00
EndChar

StartChar: uni0E28.swap
Encoding: 60968 60968 231
Width: 800
VWidth: 0
Flags: W
HStem: 0 21G<10 221 440 651> 165 175<319.207 387.947> 430 190<330.843 459.263> 510 168<698.614 804.598>
AnchorPoint: "th-vow-above" 705 660 basechar 0
LayerCount: 2
Fore
SplineSet
-14 34 m 0xe0
 -14 36 -14 38 -14 40 c 2
 39 370 l 2
 65 536 214 620 428 620 c 0xe0
 485 620 529 609 562 596 c 1
 627 634 721 678 797 678 c 0
 811 678 823 667 823 653 c 0
 823 651 823 650 823 648 c 2
 806 540 l 2
 803 524 787 510 771 510 c 0xd0
 743 510 718 508 697 503 c 1
 722 479 741 440 741 395 c 0
 741 387 740 379 739 370 c 2
 686 40 l 2
 683 18 662 0 640 0 c 2
 450 0 l 2
 430 0 416 15 416 34 c 0
 416 36 416 38 416 40 c 2
 467 360 l 2
 468 365 468 370 468 374 c 0
 468 412 438 430 398 430 c 0
 354 430 315 408 307 360 c 2
 296 290 l 1
 318 317 345 340 374 340 c 0
 385 340 392 338 398 335 c 0
 407 330 410 319 409 310 c 2
 388 175 l 2
 387 167 378 162 371 163 c 0
 365 164 359 165 346 165 c 0
 315 165 286 146 270 125 c 1
 256 40 l 2
 253 18 232 0 210 0 c 2
 20 0 l 2
 0 0 -14 15 -14 34 c 0xe0
EndSplineSet
Colour: ffff00
EndChar

StartChar: uni0E2A.swap
Encoding: 60970 60970 232
Width: 760
VWidth: 0
Flags: W
HStem: 0 21G<400 611> 230 140<176 373.717> 440 180<190.861 412.466> 510 168<655.033 764.598>
VStem: 428 273<312.523 421.906>
AnchorPoint: "th-vow-above" 665 660 basechar 0
LayerCount: 2
Fore
SplineSet
-4 145 m 0xd8
 -4 156 -3 168 -1 180 c 0
 16 288 103 370 249 370 c 0
 346 370 396 335 419 311 c 1
 427 360 l 2
 428 365 428 370 428 375 c 0
 428 424 381 440 310 440 c 0xe8
 261 440 199 427 166 415 c 0
 152 410 127 400 114 400 c 0
 99 400 97 418 94 430 c 2
 76 510 l 1xd8
 76 510 73 522 75 535 c 0
 77 550 83 558 99 565 c 0
 112 570 232 620 408 620 c 0xe8
 458 620 498 611 528 599 c 1
 593 636 683 678 757 678 c 0
 771 678 783 667 783 653 c 0
 783 651 783 650 783 648 c 2
 766 540 l 2
 763 524 747 510 731 510 c 0
 701 510 676 507 654 503 c 1
 673 483 701 447 701 394 c 0
 701 386 700 378 699 370 c 2
 646 40 l 2
 643 18 622 0 600 0 c 2
 410 0 l 2
 390 0 376 15 376 34 c 0
 376 36 376 38 376 40 c 2
 403 208 l 1
 387 222 368 230 336 230 c 0
 304 230 275 215 269 180 c 0
 268 176 268 172 268 169 c 0
 268 139 301 139 311 130 c 1
 327 130 335 135 341 135 c 0
 347 135 351 132 349 120 c 2
 336 40 l 2
 334 25 318 16 302 10 c 0
 271 -1 232 -10 188 -10 c 0
 58 -10 -4 55 -4 145 c 0xd8
EndSplineSet
Colour: ffff00
EndChar

StartChar: uni0E2C.swap
Encoding: 60972 60972 233
Width: 1040
VWidth: -360
Flags: W
HStem: 0 21G<140 378.5 551.5 790> 510 168<884.675 1044.6> 580 20G<79.5 309.5 500.5 619.5>
VStem: 47 285<373.125 598.843> 736 243<377.979 478.068>
AnchorPoint: "th-vow-below" 780 0 basechar 0
AnchorPoint: "th-vow-above" 885 660 basechar 0
LayerCount: 2
Fore
SplineSet
47 577 m 0xd8
 47 596 64 600 95 600 c 2
 295 600 l 2
 324 600 333 587 334 560 c 2
 333 270 l 1
 332 230 l 1
 341 230 l 1
 353 270 l 1
 469 560 l 2
 478 584 486 600 515 600 c 2
 560 600 l 1
 605 600 l 2
 634 600 638 584 639 560 c 2
 663 270 l 1
 661 230 l 1
 671 230 l 1
 683 270 l 1
 724 400 l 1
 724 400 732 429 735 445 c 0
 736 450 736 456 736 460 c 0
 736 476 731 485 726 490 c 1
 726 490 718 494 720 505 c 2
 732 580 l 2xb8
 734 592 746 605 757 610 c 0
 778 619 941 678 1037 678 c 0
 1051 678 1063 667 1063 653 c 0
 1063 651 1063 650 1063 648 c 2
 1046 540 l 2
 1043 524 1027 510 1011 510 c 2
 871 510 l 1
 870 505 l 1
 930 505 979 476 979 418 c 0
 979 412 979 406 978 400 c 0
 973 367 943 300 943 300 c 1
 826 40 l 2
 817 19 805 0 775 0 c 2
 565 0 l 2
 538 0 530 16 526 40 c 1
 505 250 l 1
 416 40 l 1
 404 16 392 0 365 0 c 2
 155 0 l 2
 125 0 119 19 116 40 c 2
 49 560 l 2
 48 564 47 572 47 577 c 0xd8
EndSplineSet
Colour: ffff00
EndChar

StartChar: uni0E2E.swap
Encoding: 60974 60974 234
Width: 750
VWidth: 0
Flags: W
HStem: -20 180<261.043 374.274> 230 110<250 299.982> 440 180<185.97 425> 510 168<643.391 754.598>
VStem: 421 272<226.164 405.981>
AnchorPoint: "th-vow-above" 655 660 basechar 0
LayerCount: 2
Fore
SplineSet
7 206 m 0xd8
 7 223 8 241 11 260 c 0
 18 305 46 340 84 340 c 2
 284 340 l 2
 298 340 309 329 309 315 c 0
 309 313 309 312 309 310 c 2
 301 260 l 2
 298 244 282 230 266 230 c 2
 251 230 l 1
 250 225 250 220 250 216 c 0
 250 178 279 160 315 160 c 0
 373 160 404 210 418 300 c 0
 420 312 421 323 421 333 c 0
 421 409 369 440 290 440 c 0xe8
 230 440 190 427 167 420 c 0
 153 416 128 405 115 405 c 0
 100 405 98 423 95 435 c 2
 76 510 l 1xd8
 76 510 73 522 75 535 c 0
 77 550 83 558 99 565 c 0
 112 570 222 620 398 620 c 0xe8
 452 620 490 610 517 599 c 1
 581 635 673 678 747 678 c 0
 761 678 773 667 773 653 c 0
 773 651 773 650 773 648 c 2
 756 540 l 2
 753 524 737 510 721 510 c 0
 690 510 665 507 642 502 c 1
 667 479 693 436 693 361 c 0
 693 343 692 323 688 300 c 0
 660 123 501 -20 287 -20 c 0
 123 -20 7 53 7 206 c 0xd8
EndSplineSet
Colour: ffff00
EndChar
